<?xml version="1.0" standalone="no"?>
<!DOCTYPE svg PUBLIC "-//W3C//DTD SVG 1.1//EN" "http://www.w3.org/Graphics/SVG/1.1/DTD/svg11.dtd" >
<svg xmlns="http://www.w3.org/2000/svg" xmlns:xlink="http://www.w3.org/1999/xlink" version="1.1">
<metadata>
Created by FontForge 20170731 at Wed Dec  4 14:54:58 2019
 By Aleksey,,,
Great Wishes(c)Yumnatype. 2019. All Rights Reserved
</metadata>
<defs>
<font id="GreatWishes" horiz-adv-x="918" >
  <font-face 
    font-family="Great Wishes"
    font-weight="400"
    font-stretch="normal"
    units-per-em="1000"
    panose-1="2 0 5 0 0 0 0 0 0 0"
    ascent="800"
    descent="-200"
    x-height="728.5"
    cap-height="1327"
    bbox="-147.898 -280.25 1555.67 1655.5"
    underline-thickness="50"
    underline-position="-200"
    unicode-range="U+001D-E393"
  />
<missing-glyph horiz-adv-x="500" 
 />
    <glyph glyph-name="e_e" unicode="ee" horiz-adv-x="804" 
d="M773 358q7 8 42 1q9 -1 9 -3q-36 -82 -129.5 -166.5t-164.5 -79.5q-120 9 -144 166q-50 -56 -116.5 -92t-119.5 -32q-92 7 -124.5 71.5t-27.5 167.5q3 49 13 96t29.5 94t53.5 83t79 53q38 14 80 16t80.5 -16t51.5 -56q22 -38 -6.5 -90.5t-70.5 -91.5q-69 -64 -145 -85
q-3 -124 21 -160q46 -73 196 113q0 7 0.5 22t0.5 22q3 49 13 96t29.5 94t53.5 83t79 53q28 10 59.5 13.5t62.5 -1t56 -22t35 -46.5q21 -38 -7.5 -90.5t-70.5 -91.5q-69 -64 -144 -85q-7 -164 17 -202q10 -15 24 -17t31 9t34 26.5t35.5 38t33 41.5t29.5 39.5t22 28.5z
M698 686q-34 12 -62.5 -11.5t-46 -69t-28 -90.5t-13.5 -85q50 28 83 60q56 54 69 102q4 15 4.5 28.5t-3 37.5t-3.5 28zM315 686q-34 12 -62.5 -11.5t-46 -69t-28 -90.5t-13.5 -85q50 28 83 60q56 54 69 102q4 15 4.5 28.5t-3 37.5t-3.5 28z" />
    <glyph glyph-name="g_g" unicode="gg" horiz-adv-x="1464" 
d="M1527 365q9 0 9 -1q-3 -17 -27.5 -33t-60 -31t-44.5 -21q-33 -21 -61 -40q10 -145 -16 -271q-15 -71 -57.5 -128.5t-105.5 -87.5q-40 -18 -88 -27.5t-99.5 0t-75.5 46.5q-50 77 74 221q52 60 183 175q-3 37 -3 62q-1 32 -18 202q-75 -159 -181 -244q-42 -34 -97.5 -46
t-105 11.5t-62.5 84.5q-6 28 -6 62q-46 -30 -52 -34q10 -137 -15 -257q-15 -69 -56 -123.5t-103 -82.5q-38 -18 -84.5 -27t-96.5 0t-73 44q-47 73 71 211q51 57 177 167q-2 46 -2 59q0 3 -17 192q-73 -151 -176 -232q-41 -33 -95 -44.5t-101.5 11t-59.5 80.5
q-24 111 38.5 265t157.5 216q27 17 62 25.5t69 6t59.5 -23.5t30.5 -59q0 -1 -5.5 -1.5t-11 0t-6.5 1.5q-17 37 -44.5 43.5t-55.5 -10.5t-52 -40.5t-40 -48.5q-46 -75 -70 -144q-78 -228 -3 -273q19 -11 52 13.5t69 70.5t58.5 78.5t39.5 59.5q42 64 76 162q2 90 26 155
q6 15 44 16t47 -13q17 -26 30.5 -60.5t20.5 -58.5t13.5 -72.5t8 -63t5.5 -73.5t4 -63q2 -34 4 -50q43 22 60 28q12 113 71 228t135 165q37 25 86.5 33t91.5 -13t49 -73q0 -1 -5.5 -1.5t-11.5 0t-7 1.5q-17 38 -45 45.5t-57 -10.5t-54 -43t-41 -51q-46 -72 -73 -152
q-82 -238 -3 -286q20 -12 54 13.5t71 74.5t60 82t41 63q42 65 78 170q2 92 27 163q6 16 45 17t49 -13q15 -24 27 -50.5t20.5 -60t14 -55.5t10 -65t5.5 -58.5t4 -64.5t4 -57l3 -54q97 55 189 68zM449 -5q2 14 0.5 37.5t0 50t6.5 31.5q-12 -13 -43.5 -45.5t-48.5 -50.5
t-39 -47.5t-36 -56.5q-28 -59 3 -85q20 -15 57 -2q42 13 68 61q20 37 32 107zM1153 -45q2 15 0.5 39.5t0 52.5t6.5 34q-13 -14 -45 -48t-50 -53.5t-40.5 -50.5t-36.5 -59t-13 -52.5t16 -36.5q21 -16 59 -3q42 14 70 65q22 41 33 112z" />
    <glyph glyph-name="l_l" unicode="ll" horiz-adv-x="844" 
d="M855 362q1 3 14 3t14 -3q19 -104 -47.5 -203t-170.5 -109q-87 -9 -144 35t-79 124q-30 -52 -79 -87t-108 -41q-108 -10 -169 55t-67 171q-6 105 -6.5 180t9 174t32.5 177q74 247 241 255q24 0 38 -7q2 -2 2 -3q28 -7 43 -27.5t16.5 -48t-3 -52.5t-13.5 -50
q-11 -29 -27 -55t-42.5 -53.5t-42 -41.5t-50.5 -44q-3 -3 -19.5 -16t-26.5 -22q-12 -124 -12 -279q1 -17 0 -36t0.5 -40t3 -41t6.5 -40.5t13 -37t21 -31t31 -23.5q16 -8 28 -10t23 2.5t19 11t21 19.5l7 7q21 21 39 45q32 42 57 109q-16 336 37 524q74 263 241 271
q23 0 38 -8q3 -1 2 -3q29 -7 42.5 -27t13.5 -45.5t-1 -55.5q-20 -316 -229 -636q-6 -190 72 -231q17 -9 29 -12t26.5 6.5t18 12.5t24.5 25q19 20 39 47q33 46 75 165zM590 777q-11 -86 -13 -259q58 124 82 189q42 113 63 208q5 23 8 47.5t4 57.5t-11.5 50.5t-37.5 10.5
q-11 -11 -21 -25t-18 -32.5t-14.5 -34t-12 -38.5t-9 -37t-7 -40t-5 -35.5t-5 -34t-3.5 -27.5zM323 976q0 15 -1 27.5t-5 26.5t-15 20.5t-27 1.5q-10 -9 -19 -21.5t-16 -24.5t-14 -29.5t-11 -29.5t-9 -33l-7.5 -31.5t-6 -32.5t-4.5 -29t-4 -28.5t-3 -23.5q12 12 41.5 34.5
t43.5 37.5q55 55 57 135z" />
    <glyph glyph-name="o_o" unicode="oo" horiz-adv-x="1171" 
d="M1135 359q17 14 64 6q27 -5 26 -14l-4 -5q-69 -48 -176 -40q-14 -34 -32 -58q-30 -42 -52.5 -68t-59.5 -51.5t-74 -29.5q-5 -1 -25.5 -0.5t-39.5 2.5q-59 -1 -108.5 62t-73.5 148q-46 -9 -92 -5q-16 -36 -33 -58q-34 -48 -89.5 -79t-116.5 -37q-5 -1 -25.5 -0.5
t-39.5 2.5q-55 -1 -98.5 48.5t-62.5 114t-16 119.5q3 75 29 151t71 130q37 44 81 62q11 4 50 8t67 -1q25 4 59 -2q64 -11 104 -56.5t52 -108.5t7 -130.5t-26 -129.5q42 -2 68 15q-6 37 -5 62q4 76 30 151.5t71 129.5q35 44 81 62q9 4 49.5 8t67.5 -1q25 4 58 -2
q64 -11 104.5 -56.5t52.5 -108.5t6.5 -130.5t-26.5 -129.5q48 -3 77 20zM366 244q24 29 43 76q-63 17 -115.5 50t-81.5 75q-17 26 -27 58q-10 -58 -13 -114.5t10 -123t47 -100.5q1 0 4.5 -0.5t5.5 -0.5q35 7 71 30.5t56 49.5zM430 381q36 147 -21 269q-8 25 -30 53
q-16 1 -46 2t-46 1q-13 -8 -24 -68q-11 -62 6 -121q23 -83 98 -131q26 -16 56 -27q1 4 3.5 11.5zM923 244q24 29 43 76q-138 37 -196 125q-16 24 -28 58q-6 -54 -6.5 -121.5t18.5 -141t53 -108.5q1 0 4.5 -0.5t5.5 -0.5q22 4 40.5 22t41 53t24.5 38zM987 381q36 146 -20 269
q-10 29 -31 53q-30 1 -92 3q-12 -8 -23 -68q-11 -64 5 -121q23 -84 99 -131q28 -17 55 -27q2 5 7 22z" />
    <glyph glyph-name="p_p" unicode="pp" horiz-adv-x="1133" 
d="M1011 846q19 -9 32 -29t19.5 -38t10 -50.5t4 -47t0 -50t-0.5 -37.5q2 -202 -66 -310q-62 -97 -164 -107q-89 -6 -121 34q-28 -106 -42 -158q-1 -121 -6 -245q-1 -20 -37 -29.5t-73 -2.5t-40 27q-46 251 -14 557q1 11 3.5 35t3.5 37q-15 -9 -47 -27q-10 -115 -54 -188
q-53 -89 -142 -97q-77 -6 -104 31l-36 -144q-1 -37 -2.5 -111.5t-2.5 -111.5q-1 -19 -32 -27.5t-63.5 -2t-35.5 24.5q-39 233 -13 508q1 7 4.5 42t4.5 45.5t4.5 43.5t6 46.5t7.5 43t9 46t11 42t14 44t16.5 39.5t20.5 39q7 10 40.5 11t36.5 -12q10 -50 9.5 -113.5t-6 -114
t-13.5 -120.5t-10 -112q79 237 95 279q0 1 8.5 24t12.5 31.5t14 32.5t17.5 35.5t19.5 30.5t23 27t25 16t29.5 6.5t31.5 -9.5q14 -7 24.5 -20t16.5 -31.5t10 -34.5t5 -40t1.5 -37.5t0 -37.5t-0.5 -29v-44q16 9 50 27q27 230 101 349q6 11 46 12.5t43 -12.5q13 -46 11 -122.5
t-8 -128.5t-15.5 -129t-11.5 -124q76 223 109 305q1 3 10 26.5t14 34.5t16.5 36t20.5 38.5t22.5 33.5t27 29.5t29.5 18t33.5 7t36.5 -10.5zM240 176q14 -10 26 -10t24 12t22 28.5t19 40t16 46t13 46.5q-157 -104 -138 -144q3 0 3 -2q2 -3 6 -7q6 -4 10 -5q5 -2 -1 -5z
M376 421q0 3 2 28t3 45.5t1.5 52.5t0 57t-3.5 51t-9 42q-24 -25 -44 -59.5t-38.5 -85.5t-27 -77.5t-25 -89t-17.5 -65.5l-9 -30q16 14 23 19q45 32 141 90q3 13 3 22zM961 508q18 237 -7 302q-27 -27 -51 -66t-44 -92.5t-31.5 -87t-29 -95t-20.5 -72.5q-23 -73 -39 -134
q40 4 47 -6q59 -80 119 53q40 87 54 183q2 9 2 15z" />
    <glyph glyph-name="r_r" unicode="rr" horiz-adv-x="990" 
d="M925 885q7 -10 12 -22.5t7.5 -28.5t3.5 -26.5t1.5 -30.5t0.5 -25q5 -86 -19 -188q-5 -21 -56 -19q-39 1 -37 11q29 129 30 221q3 44 -5 69h-1q-32 23 -103 -29q-2 -2 -4 -4.5t-3 -3.5q-55 -61 -85 -143.5t-35 -177t0.5 -172.5t19.5 -172q3 -15 2 -28q-4 -27 -41 -40.5
t-76 -7t-50 29.5q-17 36 -24.5 87.5t-7.5 88.5t3 100.5t3 86.5q0 18 -0.5 98t0.5 115.5t9 95t23 104.5q6 17 49.5 18.5t50.5 -15.5q21 -60 33 -145q60 121 168 163q94 35 131 -10zM301 776q52 19 81.5 1t40 -58t7.5 -84t-17 -77q-7 -17 -53 -12q-41 4 -40 18q0 1 1 2
q3 7 11.5 33.5t17.5 61t7.5 61.5t-17.5 28q-20 2 -81 -155q-24 -57 -35.5 -87t-24.5 -79.5t-15 -92.5q-1 -23 3 -76t1 -81q-2 -21 -25.5 -30.5t-49.5 -8.5t-43 8q-66 25 -64 150v70t0.5 80.5t4 72.5t10 80.5t18.5 68t30 68.5q10 17 56 15.5t50 -21.5q11 -60 11 -145l3 9
q3 6 11.5 30t14 37t16 34.5t19.5 34.5t22.5 25.5t28.5 18.5z" />
    <glyph glyph-name="s_s" unicode="ss" horiz-adv-x="778" 
d="M797 312q11 2 35 -4q9 -3 3 -5q-182 -60 -224 -78q5 -5 7 -8q183 -216 28 -308q-52 -28 -119.5 -20t-115.5 43q-43 32 -55 70t4 74t45 67t69 55q-34 44 -55 81q-4 6 -9.5 13.5t-8.5 11.5t-4 5q-4 6 -12 20q-109 -36 -147 -53q1 -1 2.5 -3t2.5 -3q148 -174 22 -247
q-41 -23 -95.5 -16.5t-92.5 35.5q-45 33 -46.5 75t26 76.5t70.5 60.5q-32 44 -43 66q-15 20 -18 23q-39 58 -49 108q-14 62 13 133t76 115q27 24 74 33.5t86.5 -8.5t39.5 -64q-1 -29 -17 -49t-43 -25q-6 -3 -26 -1.5t-22 9.5q0 1 -1 3t-1 3l2 3q4 9 14 23t15.5 27t3.5 27
q-2 9 -7 13q-2 1 -12 1q-33 -5 -54.5 -29t-28.5 -55.5t-9 -66.5t5 -62q14 -84 94 -182q1 1 3.5 2t3.5 1q74 32 149 42q-28 51 -39 99q-17 77 16.5 166t95.5 143q33 30 91.5 42t107.5 -10t49 -80q0 -36 -20 -61t-54 -32q-8 -3 -32.5 -1.5t-27.5 11.5q0 1 -1 4t-2 4l2 4
q5 11 17.5 29t19.5 33.5t5 32.5q-2 13 -9 17q-6 3 -14 1q-41 -6 -68 -36t-36 -69t-11 -82.5t6 -77.5q18 -104 117 -227q6 2 9 4q99 41 200 54zM217 75q10 25 -13 80q-17 16 -51 65q-31 -30 -44 -56.5t-4 -64.5q4 -17 17.5 -34t30 -27t34.5 -2t30 39zM586 -26q13 33 -17 100
q-13 12 -63 80q-19 -18 -29.5 -30t-22.5 -33t-12 -39.5t4 -47.5q5 -21 22 -42.5t37.5 -34t43.5 -2t37 48.5z" />
    <glyph glyph-name="t_t" unicode="tt" horiz-adv-x="695" 
d="M765 181q3 -3 5 -11q14 -65 -20.5 -120.5t-96 -77.5t-122.5 0q-51 18 -86 58q-45 -50 -99 -63q-24 -7 -55 -9q-49 -11 -114 13q-72 26 -106 86.5t-48 149.5q-25 167 -9 494v19q-12 0 -34 -2q-11 -3 -33 -11q-18 -5 -57 3q-21 4 -17 11q-32 6 -15 20q65 49 160 72
q10 235 86 315q9 11 44 11t41 -15q10 -27 11 -64t-3.5 -67t-11.5 -71.5t-9 -64.5q-1 -4 -1.5 -12.5t-0.5 -12.5q40 2 76 0q70 -2 123 -8q10 223 86 304q9 11 43.5 11t40.5 -15q10 -27 11 -64t-3.5 -67t-11 -71t-8.5 -65q-1 -11 -2.5 -32t-2.5 -31q19 -5 44 -14q60 -9 77 -36
q3 -2 9 -5.5t9 -5.5t-4 -4l-30 -4q-72 4 -107 7l-6 -189q0 -27 -4.5 -129.5t-2.5 -167.5t15 -128q4 -21 9 -37.5t14 -37t20.5 -28.5t29.5 -13t40 9q24 12 42 37.5t38.5 70.5t23.5 52q9 16 18 13q3 0 4 -3zM281 0q50 1 90 39.5t26 82.5q-10 29 -19 85q-24 157 -12 448
q6 5 6 14q-1 8 -1.5 17t-1 20t-0.5 17v6v12q-65 2 -119 -1q-58 -4 -87 -7q-1 -23 -1 -48.5t0.5 -54.5t0.5 -42q0 -2 2 -6q-1 -13 -1 -39q0 -27 -2 -78.5t-2.5 -84t0.5 -77t4 -82.5q11 -123 38 -175q25 -46 79 -46z" />
    <glyph glyph-name=".notdef" horiz-adv-x="500" 
 />
    <glyph glyph-name=".null" horiz-adv-x="0" 
 />
    <glyph glyph-name=".null" horiz-adv-x="0" 
 />
    <glyph glyph-name="nonmarkingreturn" horiz-adv-x="508" 
 />
    <glyph glyph-name="space" unicode=" " horiz-adv-x="400" 
 />
    <glyph glyph-name="space" unicode="&#xa0;" horiz-adv-x="400" 
 />
    <glyph glyph-name="exclam" unicode="!" horiz-adv-x="281" 
d="M58 384q-15 29 -26 61.5t-16 77t-8.5 70.5t-2.5 83.5t1 72t4 80.5t4 67q14 316 86 542q4 14 32 19.5t54 0t25 -19.5q-3 -58 -18.5 -240t-17.5 -282q-4 -152 0 -254q1 -23 5.5 -84.5t3.5 -105t-12 -82.5q-7 -22 -55.5 -24t-58.5 18zM191 65q-3 -22 -37 -32.5t-69 -4
t-42 26.5q-21 65 -10 164q3 26 42 36t77 0t39 -36q7 -113 0 -154z" />
    <glyph glyph-name="quotedbl" unicode="&#x22;" horiz-adv-x="320" 
d="M97 1489q13 -24 15.5 -68t-1.5 -103.5t-4 -68.5q0 -32 -26 -48.5t-53 -7t-28 42.5q0 2 -1 19.5t-1.5 25.5t-1 27t0 30.5t1.5 30t3 31t5 29t7.5 27.5t11 22.5t14.5 19.5q17 14 33.5 10t24.5 -19zM261 1489q13 -24 15.5 -68t-1.5 -103.5t-4 -68.5q0 -32 -26 -48.5t-53 -7
t-28 42.5q0 2 -1 19.5t-1.5 25.5t-1 27t0 30.5t1.5 30t3 31t5 29t7.5 27.5t11 22.5t14.5 19.5q17 14 33.5 10t24.5 -19z" />
    <glyph glyph-name="numbersign" unicode="#" horiz-adv-x="599" 
d="M239 848q0 12 36.5 12t40.5 -12q10 -36 31 -81q21 14 40 24q12 7 52 4q29 -2 23 -13q-25 -41 -78 -88q23 -43 56 -99q2 -5 8.5 -14t8.5 -13q6 3 16 7q15 6 41 4q2 0 5 -0.5t7 -1.5t6 -3t0 -5q-6 -10 -11 -15q-4 -3 -14 -11q-19 -16 -20 -17q42 -63 27 -100q-3 -6 -20 -6
t-24 3q-25 12 -51 36q-42 -38 -74 -72q24 -35 37 -55.5t25.5 -51t11.5 -54.5q0 -9 -17 -11.5t-34.5 0t-23.5 5.5q-46 25 -85 74q-14 -16 -41.5 -48t-41.5 -48q-1 -2 -6.5 -3t-12 -0.5t-12.5 1t-10 1.5t-4 2q36 77 90 150q-14 24 -61 117q-3 6 -4 7q-52 -59 -74 -112
q-8 -19 -59 -13q-34 4 -31 13q24 74 130 186q-47 107 -59 198q-2 14 22 19t52 1t35 -14l1 -1q24 -54 42 -103q20 21 60 61q-38 84 -36 140zM314 632q-32 -28 -46 -43l-21 -21q27 -63 47 -103q1 -3 4.5 -9t5.5 -9q36 41 72 66q-9 15 -59 112q-1 1 -2 3.5t-1 3.5z" />
    <glyph glyph-name="dollar" unicode="$" horiz-adv-x="781" 
d="M699 402q28 -132 -43.5 -225t-194.5 -123q-57 -14 -122 -14q-1 -17 -1 -51t-1 -51q0 -6 -23.5 -6t-24.5 6l-3 105q-93 11 -167.5 61t-118.5 141q-27 68 -10.5 138.5t64.5 125.5q30 34 79 59t88 18q15 -2 35 -12t26 -24q0 30 1 90.5t2 90.5v27q-98 132 -139 204
q-152 258 19 369q57 37 132 42q5 83 23 151q1 3 14 3t14 -3q14 -64 14 -156q11 -2 33 -8q68 -15 103 -61q14 -18 17 -48.5t-5 -59.5t-24 -53.5t-39 -31t-51 8.5q-14 6 -11 22.5t12 31t19 35t9 34.5q-4 64 -63 88q-1 -37 -5 -110t-5 -108l-3 -165q42 -60 75 -104
q19 -27 98.5 -124t120 -166t56.5 -147zM112 428q-33 -105 23 -188.5t148 -103.5q-3 175 -1 393q-5 -9 -23.5 -12.5t-40 -4t-27.5 -2.5q-28 -6 -48.5 -29t-30.5 -53zM292 1128q0 20 0.5 83.5t1.5 98.5q-37 -43 -41 -115.5t20 -120.5q8 -17 17 -34q1 15 1.5 44t0.5 44z
M341 132q115 9 156 137q35 111 -52 260q-40 65 -100 148q-1 -91 -2 -272.5t-2 -272.5z" />
    <glyph glyph-name="percent" unicode="%" horiz-adv-x="715" 
d="M195 -7q-4 -8 -32 -7.5t-31 9.5q-8 24 -12.5 48.5t-3.5 55.5t1 49.5t7 57t9 49t12 56t11 48.5q27 131 84 314q52 169 117 333q4 9 17 42.5t18 46t17.5 42.5t20 45.5t21 41.5t24.5 43t26 37t30 37q6 7 31.5 11t48.5 0.5t22 -16.5q-5 -51 -23.5 -105.5t-51 -127
t-43.5 -100.5q-68 -178 -116 -333q-47 -152 -103 -383q-4 -14 -14 -58.5t-16 -65.5t-17 -56t-24 -62t-30 -52zM115 852q-64 -2 -106.5 36.5t-28.5 101.5q19 75 67 94q18 6 41 8q2 5 15 6q53 9 100.5 -16t50.5 -79q3 -52 -47 -111q-30 -38 -92 -40zM109 1065q-20 -11 -32 -49
t-10 -60q2 -32 21 -54q12 -15 19.5 -15.5t20.5 11.5q63 65 56 111q-5 41 -43 63q-1 -7 -32 -7zM595 277q-31 -37 -92 -40q-65 -2 -107.5 36.5t-27.5 101.5q7 31 24 57.5t42 36.5q18 8 41 8q1 4 15 7q53 8 100.5 -17t50.5 -78t-46 -112zM475 287q12 -15 20 -15.5t21 12.5
q62 62 56 110q-7 44 -43 63q-3 -5 -33 -7q-20 -11 -32 -49t-10 -60q2 -32 21 -54z" />
    <glyph glyph-name="ampersand" unicode="&#x26;" horiz-adv-x="864" 
d="M778 263q-61 -27 -103 -18q-7 2 -44.5 22.5t-71 34.5t-41.5 4q-97 -117 -229 -95q-97 15 -169.5 95.5t-98.5 183.5q-17 66 0.5 130t68 106t121.5 40q-4 0 -20.5 47t-21.5 67q-26 77 -20 137q10 97 93 112t167 -38.5t97 -128.5q8 -48 -28 -78.5t-82 -17.5q-5 2 -6 4
q-3 3 0 8q23 68 18 99q-1 12 -6 23q-16 41 -66 65q-52 25 -75 -1q-16 -19 -7 -61q27 -123 97 -255q86 -164 156 -212q3 4 18.5 48t39.5 55q11 7 41.5 5.5t32.5 -17.5q1 -16 -18 -77t-20 -87q-2 -6 -4 -18q0 -10 1 -14q7 -7 21 -23l2 -1q13 -14 74.5 -47t80.5 -48
q27 -20 18 -35q-3 -8 -16 -14zM452 379q2 6 4 11q-60 63 -131 171q-63 99 -95 162q-25 1 -45 -12q-9 -8 -17 -17q-19 -25 -28 -65q-19 -86 32 -174q37 -64 113 -119q93 -70 167 43z" />
    <glyph glyph-name="quotesingle" unicode="'" horiz-adv-x="161" 
d="M97 1489q13 -24 15.5 -68t-1.5 -103.5t-4 -68.5q0 -32 -26 -48.5t-53 -7t-28 42.5q0 2 -1 19.5t-1.5 25.5t-1 27t0 30.5t1.5 30t3 31t5 29t7.5 27.5t11 22.5t14.5 19.5q17 14 33.5 10t24.5 -19z" />
    <glyph glyph-name="parenleft" unicode="(" horiz-adv-x="372" 
d="M232 1091q-59 -189 -69 -333q-14 -171 14 -333q8 -50 25.5 -101.5t42 -112.5t36.5 -97q4 -11 -18 -15q-37 -5 -75 4q-3 1 -5 2q-35 20 -61 50.5t-43.5 77t-25 74.5t-19.5 84q-40 182 -23 367q5 64 13.5 120.5t29 131.5t48.5 130.5t75 99.5t107 55q19 0 20 -2q6 -10 6 -20
t-2.5 -15.5t-10.5 -17.5t-11 -19q-31 -59 -54 -130z" />
    <glyph glyph-name="parenright" unicode=")" horiz-adv-x="401" 
d="M-4 95q13 42 51 160.5t55 178t35.5 156.5t20.5 181q5 164 -29 326q-22 99 -55 189q-4 12 -12.5 32t-13.5 32t-7.5 30t-0.5 34q4 9 27.5 8t31.5 -6q65 -41 105.5 -122t71.5 -187q44 -156 42 -318q-3 -189 -57 -374t-158 -326q-12 -15 -64 -13q-45 3 -43 19z" />
    <glyph glyph-name="asterisk" unicode="*" horiz-adv-x="434" 
d="M106 1221q-12 -17 -63 -9q-37 5 -35 17q0 1 1 2q30 42 60 73q-42 -3 -70 10q-21 10 2 21q2 0 3 1q28 12 73 23q-50 23 -66 45q-1 1 0.5 2t4.5 1.5t6.5 1t8.5 0.5h8h7h3q27 -6 58 -15q5 56 25 88q12 18 65.5 18t52.5 -25q0 -7 -0.5 -22t-0.5 -23q34 14 67 21q19 3 48 -5
q16 -4 8 -10q-1 0 -2 -1q-14 -8 -52 -29t-58 -34q77 -6 107 -37q1 -1 -0.5 -1.5t-4.5 -1l-6 -1t-6.5 -0.5h-5h-3.5q-55 5 -94 5v-3q71 -39 111 -84q7 -7 -12 -12q-37 -11 -73 -2q-8 2 -12 5q-2 3 -7.5 7.5t-8.5 6.5q-1 -3 -1 -7q-2 -42 -18 -62.5t-57 -18.5q-56 3 -63 55z
" />
    <glyph glyph-name="plus" unicode="+" horiz-adv-x="728" 
d="M643 567q-19 -3 -41 -5t-37.5 -2.5t-42 0t-37 1t-42.5 3t-39 2.5q-6 1 -19 1.5t-20 0.5v-22q0 -118 6 -236q1 -12 4 -49t3.5 -54t-3.5 -45t-14 -51q-6 -14 -43.5 -13t-45.5 13q-25 38 -37 100.5t-13 105.5t2 127t3 102v26q-129 -4 -195 -50q-17 -12 -64 -4q-32 5 -29 16
q1 3 5 6q35 26 91 42t90.5 19.5t102.5 7.5q2 101 8 172q1 10 2.5 53.5t6.5 72.5t18 49q12 19 48.5 19t53.5 -8q15 -10 17 -11h3q0 -1 -1 -2l2 -1q1 -5 -4 -8q-15 -68 -18 -163.5t1 -167.5q131 0 266 -14q28 -3 34 -17q4 -9 -13 -14q-4 -1 -9 -2z" />
    <glyph glyph-name="comma" unicode="," horiz-adv-x="236" 
d="M17 88q-9 5 -14 11t-7 10.5t-0.5 13t2.5 12.5t6 15.5t6 14.5q8 21 16.5 58t11 79t-16.5 50q-14 6 11 12q14 3 21 3q44 1 79.5 -17.5t46.5 -57.5q10 -34 11.5 -71t-11.5 -74t-43 -55q-25 -15 -59 -16.5t-60 12.5z" />
    <glyph glyph-name="hyphen" unicode="-" horiz-adv-x="678" 
d="M589 487q-36 -9 -74.5 -10.5t-91 1.5t-75.5 3q-36 0 -139.5 -5.5t-160.5 -2.5q-24 1 -41 17q-18 17 12 28q104 37 310 43q7 0 44 0.5t49.5 0.5t44 -1.5t49.5 -4.5t42.5 -9.5t43.5 -16.5q22 -13 16 -24.5t-29 -18.5z" />
    <glyph glyph-name="hyphen" unicode="&#xad;" horiz-adv-x="678" 
d="M589 487q-36 -9 -74.5 -10.5t-91 1.5t-75.5 3q-36 0 -139.5 -5.5t-160.5 -2.5q-24 1 -41 17q-18 17 12 28q104 37 310 43q7 0 44 0.5t49.5 0.5t44 -1.5t49.5 -4.5t42.5 -9.5t43.5 -16.5q22 -13 16 -24.5t-29 -18.5z" />
    <glyph glyph-name="period" unicode="." horiz-adv-x="236" 
d="M48 162q-10 2 -23.5 9.5t-15.5 16.5q-22 80 6 121q15 23 70 25q58 0 71 -25q7 -13 14 -64q2 -18 3 -28q2 -10 2 -18q1 -20 -23 -30.5t-50 -12.5q-27 -2 -54 6z" />
    <glyph glyph-name="slash" unicode="/" horiz-adv-x="579" 
d="M417 1438q4 4 16 7.5t26.5 5t28.5 1t23 -5.5t8 -13q-4 -51 -22.5 -105.5t-51.5 -127.5t-43 -100q-68 -178 -116 -333q-43 -139 -104 -383q-2 -9 -13 -58t-16.5 -67t-16.5 -54.5t-24 -63t-30 -51.5q-5 -8 -32.5 -7.5t-31.5 9.5q-8 24 -12 49t-3.5 54.5t1.5 50.5t7 56
t9 50.5t11.5 54.5t10.5 49q29 134 85 314q56 181 116 333q4 10 22.5 56t25.5 62.5t24.5 55.5t30 60.5t32 50t39.5 50.5z" />
    <glyph glyph-name="zero" unicode="0" horiz-adv-x="616" 
d="M322 12q-12 -5 -36 -6.5t-31 -0.5q-70 12 -121.5 50.5t-77.5 91t-41.5 116.5t-14 127.5t5.5 124.5q6 58 16.5 111t33 112.5t53 100.5t79.5 64t109 14l3 -1q2 0 4 -0.5t5 -1.5t5 -2t3.5 -2.5t1.5 -3t-1 -3.5q-3 -3 -4 -5q41 14 90.5 2t81.5 -46q45 -46 70 -128t30 -153.5
t0 -140.5q-4 -69 -20 -137.5t-45.5 -134.5t-81 -107t-117.5 -41zM187 482q-22 -301 124 -441q179 30 195 410q1 33 -1 78.5t-11.5 112t-26.5 118t-50 83.5t-78 21q-14 -3 -47 4q-88 -137 -105 -386z" />
    <glyph glyph-name="one" unicode="1" horiz-adv-x="376" 
d="M313 45q1 -18 -16.5 -31t-43 -16t-51.5 0t-45 15.5t-21 31.5q-20 230 -3 442q1 13 5.5 75.5t7 88.5t8 73t12.5 84q-41 -29 -75 -33q-33 -4 -57 4t-21 36q0 3 12.5 2.5t14.5 -2.5q46 -38 153 111q3 5 5 7q8 12 47.5 12t41.5 -16q11 -43 7 -220.5t-2 -221.5q9 -225 21 -442
z" />
    <glyph glyph-name="two" unicode="2" horiz-adv-x="591" 
d="M538 185q18 -79 -17 -135t-111 -56q-57 0 -111 35q-7 5 -30.5 27t-36.5 26h-2q-10 -4 -20 -11q-7 -5 -17 -19q-2 -3 -5.5 -9t-4.5 -9q-15 -29 -64.5 -38t-89 9.5t-27.5 57.5q17 57 51 112.5t74 102t80 92.5t77 100.5t58 108.5q16 42 21.5 94.5t-1.5 103t-40.5 82
t-89.5 25.5q-64 -7 -98.5 -59t-28.5 -116.5t51 -107.5l-6 -3q-34 -9 -45 -1q-51 38 -68.5 97t5 115t79.5 83q75 36 163 36t149 -47q56 -44 78.5 -114.5t14.5 -141t-37 -137.5q-27 -61 -69.5 -123t-99.5 -133.5t-86 -113.5q30 0 39 -11q19 -6 49.5 -24.5t41.5 -23.5
q38 -19 54 0t23.5 66.5t15.5 63.5q6 12 41.5 11t39.5 -15z" />
    <glyph glyph-name="three" unicode="3" horiz-adv-x="566" 
d="M380 553q46 -8 80 -36.5t50.5 -67t22 -83.5t-6.5 -87q-26 -103 -98.5 -183t-170.5 -96q-45 -7 -95 3.5t-90 36.5t-57.5 67t2.5 95q4 9 29 8.5t29 -8.5q18 -33 35 -54.5t40 -37.5t51.5 -12.5t60.5 27.5q76 57 113 119q50 87 31 174q-11 53 -42 80.5t-88 5.5
q-33 -39 -70 -73q-26 -25 -92 -14q-57 9 -65 33q-4 12 11 25q165 139 216 262q15 39 14 75q0 41 -9 52t-48 3q-33 -7 -56.5 -24.5t-53.5 -53t-42 -47.5q-2 -2 -13.5 -2.5t-21 0.5t-9.5 3q20 56 75.5 107t121 67.5t125.5 -29.5q28 -23 36 -64.5t2 -78.5t-19 -74
q-20 -58 -63 -117q38 3 65 -1z" />
    <glyph glyph-name="four" unicode="4" horiz-adv-x="612" 
d="M505 39q-8 -30 -68 -33.5t-71 25.5q-39 100 -33 302q-136 1 -271 -18q-17 -5 -45 0q-17 3 -16 11q0 1 1 3q57 105 148 321q14 34 58.5 127t64.5 145h13q-4 -23 -12.5 -75.5t-14 -80.5t-16 -70.5t-23.5 -79.5q-33 -94 -112 -243q128 11 227 15q2 26 4 80v81t2.5 100t9 88
t23 93.5t41.5 67.5q11 12 44.5 13t43.5 -13q25 -39 27 -95t-4 -102q-9 -211 -9 -214q-2 -57 1 -104q23 -4 35 -11t8 -16q0 -3 -4 -7q-2 -15 -37 -22q8 -199 -15 -288z" />
    <glyph glyph-name="five" unicode="5" horiz-adv-x="542" 
d="M169 66q37 -15 63.5 -9t42.5 31t25 58t11.5 71t1 70t-6.5 55q-1 5 -2.5 15t-2.5 15.5t-3 15t-5 13t-8 10.5t-11 7.5t-15.5 3.5t-20.5 -2q-8 -2 -25 -14t-24 -15q-38 -16 -78 -10q-21 2 -37 9t-26.5 21t-17 25.5t-11 34t-6 34.5t-4.5 39q-20 197 66 323q2 9 8.5 16
t18 11.5t23 8t27.5 5t25.5 2.5t24 1.5t17.5 0.5q4 0 43.5 3.5t57 3.5t45.5 -6t44 -19q3 -4 0 -7q-12 -9 -28.5 -14t-27 -5.5t-33.5 -0.5h-29q-103 0 -139 -8q-3 -24 -17.5 -96.5t-16.5 -113.5q-5 -151 23 -208q88 47 126 56q58 15 113 -5q73 -27 107 -125.5t20 -183.5
q-13 -80 -68.5 -130.5t-137.5 -58.5q-171 -12 -191 68q-3 11 50 5q7 0 9 -1z" />
    <glyph glyph-name="six" unicode="6" horiz-adv-x="579" 
d="M337 869q45 2 71 -10q21 -9 37.5 -32t12.5 -44q-5 -11 -31 -9.5t-35 7.5q-12 8 -19.5 24t-13.5 24q-24 21 -54 16t-56 -25q-2 -2 -7.5 -7t-8.5 -7q-69 -96 -52 -364q21 28 55 46q72 37 148 20t119 -85q52 -85 32 -183q-2 -63 -29.5 -115t-69.5 -82.5t-95 -43t-104 -3.5
t-98 43t-76 90q-46 89 -58.5 204.5t8.5 212.5q13 65 37.5 124t63 111t96.5 77t126 11h1zM238 245q-24 9 -39 22q10 -55 28 -101q21 -55 43 -83q30 -37 65 -35t65.5 26.5t47.5 59.5q13 26 21 56q43 166 -33 237q-40 39 -89 39.5t-83 -46.5q-45 -68 22 -170q3 -4 -13 -6
q-27 -2 -35 1z" />
    <glyph glyph-name="seven" unicode="7" horiz-adv-x="579" 
d="M605 884q-24 -84 -102 -225t-100 -195q-50 -123 -70 -244q-3 -18 -10 -93t-20 -113q-12 -31 -73.5 -29.5t-76.5 29.5q-78 147 52 464q89 216 205 346q-189 -35 -365 -22q-61 -3 -58 14q0 1 1 3q8 14 39 22.5t61.5 11t69.5 3.5t47 2q15 1 57 6t73.5 7t59.5 0q44 12 100 32
q23 8 70 5q44 -4 40 -24z" />
    <glyph glyph-name="eight" unicode="8" horiz-adv-x="513" 
d="M171 350q-105 133 -139 222q-22 60 -22 120t20.5 110t67.5 84.5t113 40.5q77 6 147.5 -23t104.5 -94q29 -54 32.5 -115.5t-15.5 -122t-46 -112.5t-64 -103q27 -36 44.5 -67t31 -67.5t11.5 -73.5t-19 -73q-20 -42 -70 -62t-103 -17t-95 20q-54 22 -75 64.5t-11 91t32.5 94
t54.5 83.5zM305 49q35 5 29 58q-1 19 -9 35t-27.5 41.5t-21.5 28.5q-32 45 -77 102q-90 -158 -25 -235q15 -22 36 -28q52 -32 95 -2zM205 802q-57 -127 47 -292q14 -23 61 -82q19 38 27 55t25.5 55.5t24.5 64t15 59.5t7 65t-8 59q-11 41 -37 65t-55.5 26.5t-59.5 -17
t-47 -58.5z" />
    <glyph glyph-name="nine" unicode="9" horiz-adv-x="612" 
d="M244 65q34 -12 62 -6t47.5 26.5t34.5 53t23 74.5t14 90t7.5 99t3 102.5t-0.5 100.5q-80 -141 -189 -206q-48 -28 -97 -28.5t-88 29t-56 83.5q-21 83 -5 164.5t69.5 151.5t128.5 102q56 28 142.5 23.5t136.5 -47.5q18 2 35 -1.5t21 -10.5q14 -29 24.5 -66t16 -62.5
t10.5 -76t6 -66t3.5 -76t2.5 -65.5q12 -220 -51 -331q-68 -120 -208 -126q-51 -3 -100.5 9.5t-55.5 51.5q-1 7 13.5 9t29.5 1t20 -2zM427 851q1 4 11 7q-59 37 -116.5 38.5t-101.5 -26t-78.5 -75t-51.5 -104.5t-16 -119t23 -114q14 -31 34.5 -41t43 0t46 27.5t46 44t38 47.5
t27.5 40q19 31 34.5 68t23 64t19 73t18.5 70z" />
    <glyph glyph-name="colon" unicode=":" horiz-adv-x="236" 
d="M171 699q2 -12 2 -18q2 -21 -23 -31.5t-50 -11.5q-30 -2 -54 5q-34 10 -39 26q-20 82 6 121q16 25 71 25q20 1 42 -5t29 -20q9 -16 13 -64zM162 356q9 -16 13 -64l3 -27q2 -12 2 -18q1 -15 -13.5 -25t-29.5 -13.5t-30 -4.5q-30 -2 -54 5q-34 10 -39 26q-20 82 6 121
q16 25 71 25q20 1 42 -5t29 -20z" />
    <glyph glyph-name="semicolon" unicode=";" horiz-adv-x="248" 
d="M61 643q-35 11 -39 26q-22 81 5 121q17 25 71 25q20 1 42 -5t29 -20q9 -16 13 -64q0 -4 2 -13t2 -14q2 -12 2 -18q1 -21 -24 -31.5t-49 -11.5q-31 -2 -54 5zM31 102q-8 4 -13 8.5t-6.5 10.5t-2.5 9.5t1.5 12.5t3.5 11t5.5 13t5.5 13q8 20 16.5 57.5t11 79t-16.5 49.5
q-14 6 11 12q14 3 21 3q44 1 79.5 -17.5t46.5 -56.5q10 -35 11.5 -72t-12 -74t-43.5 -55q-25 -15 -58.5 -16.5t-60.5 12.5z" />
    <glyph glyph-name="semicolon" unicode="&#x37e;" horiz-adv-x="248" 
d="M61 643q-35 11 -39 26q-22 81 5 121q17 25 71 25q20 1 42 -5t29 -20q9 -16 13 -64q0 -4 2 -13t2 -14q2 -12 2 -18q1 -21 -24 -31.5t-49 -11.5q-31 -2 -54 5zM31 102q-8 4 -13 8.5t-6.5 10.5t-2.5 9.5t1.5 12.5t3.5 11t5.5 13t5.5 13q8 20 16.5 57.5t11 79t-16.5 49.5
q-14 6 11 12q14 3 21 3q44 1 79.5 -17.5t46.5 -56.5q10 -35 11.5 -72t-12 -74t-43.5 -55q-25 -15 -58.5 -16.5t-60.5 12.5z" />
    <glyph glyph-name="less" unicode="&#x3c;" horiz-adv-x="595" 
d="M345 593l-25 -21q-26 -21 -35.5 -30t-29 -27.5t-30 -34t-15.5 -29.5q-13 -34 17 -62.5t75 -46t99 -42t76 -45.5q8 -4 12 -5q16 -8 16 -17.5t-16 -16.5q-42 -17 -85 0q-4 3 -13.5 7t-14.5 7q-78 11 -200 59q-3 1 -24 9t-28.5 11.5t-27 12.5t-28 15.5t-22 17.5t-19.5 21.5
t-10 25t-2 29.5q3 30 22 60.5t51 58.5t57 46.5t58 41.5q8 5 12 8q51 35 81 53.5t77.5 38.5t92.5 27q33 0 57 -10q14 -6 6 -13q-33 -30 -97.5 -80t-86.5 -69z" />
    <glyph glyph-name="equal" unicode="=" horiz-adv-x="732" 
d="M633 624q27 -4 37.5 -15t0 -22t-37.5 -15q-61 -11 -177 -14.5t-140 -5.5t-91 -9.5t-90.5 -8t-90.5 2.5q-29 3 -37 15q-6 9 13 18q26 11 53 19t66 13.5t54 7.5t68 6t56 4q9 1 43.5 3.5t47.5 3.5t43 3t48 2t43.5 -0.5t47.5 -2.5t43 -5zM330 410q205 14 315 -19
q47 -14 22 -35q-21 -18 -56 -18t-103.5 3t-103 3.5t-104.5 -3.5q-20 -2 -76 -8t-94.5 -8t-76.5 0q-23 1 -36 14q-12 12 9 20l2 1q98 36 302 50z" />
    <glyph glyph-name="greater" unicode="&#x3e;" horiz-adv-x="562" 
d="M503 378q2 -15 -2 -29.5t-10 -25t-19.5 -21.5t-22 -17.5t-28 -15.5t-27 -12.5t-28.5 -11.5t-24 -9q-122 -48 -200 -59q-5 -3 -14 -7.5t-14 -6.5q-43 -17 -85 0q-16 7 -16 17t16 17q6 1 13 5q22 22 76 46t99 41.5t75 46t17 62.5q-5 14 -16 29.5t-30 34t-29 27.5t-35 29.5
t-26 21.5q-22 19 -86.5 69t-97.5 80q-10 9 16 16t47 7q45 -7 92.5 -27t77.5 -38.5t81 -53.5q102 -70 140 -109q54 -56 60 -106z" />
    <glyph glyph-name="question" unicode="?" horiz-adv-x="608" 
d="M184 17q-3 -22 -37 -32.5t-69.5 -4t-41.5 26.5q-22 69 -10 164q3 26 41.5 36t77 0t39.5 -36q6 -108 0 -154zM475 941q-46 -86 -176 -302q-2 -3 -24 -39t-26.5 -44.5t-21.5 -40.5t-20.5 -48t-10.5 -43t-5.5 -50t7.5 -47q12 -45 -42 -65q-52 -19 -104 2q-40 15 -47 48
q-6 29 -5.5 59.5t4.5 55.5t16.5 56t22 51t29.5 52.5t30.5 47.5t33.5 48q11 16 114 157.5t148 219.5q23 40 31.5 93.5t-0.5 102.5t-34 88.5t-68.5 51.5t-105.5 -9q-53 -19 -93 -72t-48 -112.5t23 -114.5q-12 -9 -34.5 -12t-35.5 7q-96 107 -36 215q46 83 158 128
q124 49 233 16q40 -13 70 -35q189 -141 17 -465z" />
    <glyph glyph-name="at" unicode="@" horiz-adv-x="1067" 
d="M14 457q-31 119 -3.5 230.5t94 201.5t166.5 152.5t214 83.5q221 41 340 -43q86 -60 129 -170t51 -233q6 -48 4 -114t-8.5 -127.5t-31.5 -119.5t-67 -90q-39 -30 -92 -38.5t-101 8.5q-58 10 -97 54t-51 111q-8 48 -10 80q-49 -112 -102 -135q-60 -28 -109.5 2t-68.5 94
q-17 48 -12 110t22.5 118.5t56.5 103.5t90 65q34 14 76.5 11t69.5 -23q10 -2 17 -6q15 33 26 50q8 15 47 13.5t45 -17.5q12 -34 17 -78.5t4.5 -76.5t-3.5 -86t-3 -77q-2 -130 18 -206q3 -10 16 -35t18 -36q27 -1 51 37t39 91.5t23.5 95.5t10.5 61q16 144 -11 270
q-38 174 -128 260q-51 48 -129 52.5t-148 -19t-131 -63.5q-124 -79 -189 -215.5t-46 -282.5q12 -87 52.5 -167.5t101.5 -140t144.5 -87t173.5 -9.5q19 4 59 -6q42 -11 11 -25q-1 0 -3 -1q-104 -43 -208 -28t-192 69.5t-153 142t-90 188.5zM556 652q6 36 15 74q-7 6 -22 24
t-25 23q-20 12 -61 -7q-34 -29 -61.5 -85t-37.5 -100q-8 -37 -11.5 -75.5t3.5 -85t30 -67.5q10 -37 46 0q12 14 32 44q28 44 50 111q16 48 42 144z" />
    <glyph glyph-name="A" unicode="A" horiz-adv-x="992" 
d="M280 342q-52 -14 -93.5 -18.5t-77.5 1.5t-60 28.5t-33 62.5q-3 11 35 14q47 4 52 -14q19 -68 185 -18q1 7 3.5 22.5t4.5 22.5q28 172 103 364q77 198 183 372q65 107 98 142q34 38 45 41q9 3 34 5.5t35 -2.5q8 3 21 2t16 -5q24 -41 25 -99t-12 -138.5t-15 -106.5
q-11 -198 -7 -371q1 -15 1.5 -44t0.5 -44q109 8 150 -48q6 -9 -22 -13q-42 -6 -55 3q-26 18 -71 16q5 -160 26 -268q12 -69 62 -215t61 -188q4 -16 -48 -12q-29 3 -36 8q-109 97 -166.5 273t-68.5 362q-47 -16 -140.5 -52t-130.5 -50q-16 -91 -23 -177q-2 -19 -2.5 -60
t-3.5 -72t-12 -58q-2 -5 -21.5 -5t-21.5 5q-51 110 -21 334zM502 797q-69 -178 -106 -364q185 68 258 90q-2 34 -4 106q-4 273 14 407q10 78 20 126q-21 -33 -25 -40q-94 -164 -157 -325z" />
    <glyph glyph-name="B" unicode="B" horiz-adv-x="872" 
d="M353 -45q-47 0 -99.5 13.5t-102 39t-86 63.5t-51.5 86.5t1 106.5q3 11 35 11t35 -11q23 -77 73 -136.5t121 -82t152 29.5q116 75 195 242q43 87 46 176t-44 176q-52 86 -124 105q-82 22 -198 -60q-4 -3 -18 -3q-36 -141 -31 -263q0 -14 2.5 -63.5t3 -72.5t-2 -61
t-8.5 -69q-4 -12 -35.5 -11.5t-39.5 8.5q-19 22 -32.5 49t-22.5 67.5t-12.5 59.5t-9 72.5t-6.5 58.5q-15 129 -4 336q9 178 48 351q1 3 6.5 29t7 32t7 29.5t8.5 32t9 29.5t10 31.5t11 28.5t13.5 29.5t15 25.5t17.5 26q10 13 51.5 13t44.5 -18q5 -62 -22.5 -184t-30.5 -140
q-16 -111 -26 -250q22 67 58 153q5 11 22.5 52.5t24.5 57.5t23 51t28 55.5t29 48t35 49.5l6 6q9 14 31 34q3 3 13.5 12.5t15 13.5t13.5 11t17 11t16 7q30 10 59 4.5t41 -27.5q21 -21 25 -62q12 -85 -27 -197q-82 -229 -218 -344q94 3 161 -37q82 -47 127.5 -127t48 -167.5
t-28.5 -178.5q-57 -147 -171.5 -252t-255.5 -106zM314 805q155 132 249 283q67 110 87 164q40 101 19 147q-4 10 -10 15t-12.5 4.5t-13.5 -3.5t-14.5 -10t-13.5 -14t-13.5 -16.5t-12 -16t-10 -15t-7.5 -10.5q-6 -8 -60 -95q-71 -116 -137 -283q-29 -75 -51 -150z" />
    <glyph glyph-name="C" unicode="C" horiz-adv-x="806" 
d="M338 37q-97 8 -166.5 57t-105.5 126.5t-51 161t-14 178.5q1 98 13.5 190t40 186t78.5 177.5t120 142.5q64 55 177 102.5t182 20.5q42 -5 72 -26q39 -27 57 -88.5t7.5 -123.5t-44.5 -94q-4 -3 -22.5 -3t-19.5 5q-12 23 -2.5 94.5t6.5 97.5q-5 38 -23 67.5t-46 41.5
q-41 3 -91 -29.5t-93 -82t-75 -94t-49 -76.5q-96 -179 -112 -451q-19 -323 97 -469q39 -49 80 -68.5t83 -2t73 35t73.5 70t58 74t51.5 75.5q12 17 17 25q2 4 19 4t17 -4q-5 -76 -69 -148.5t-147 -128.5q-76 -51 -192 -43z" />
    <glyph glyph-name="D" unicode="D" horiz-adv-x="926" 
d="M204 1q-76 22 -140 93t-81 149q-4 18 2 27q7 13 35 15q41 4 59 -9q14 -10 25 -35q28 -55 71 -109q68 -83 162 -31q63 35 123 118q115 158 189 425q52 189 64 430q0 5 2.5 40t3.5 63t2 70.5t-2 75.5t-9 65.5t-18.5 52t-29.5 23.5q-6 1 -14 -1.5t-17.5 -8.5t-17.5 -12.5
t-18 -16.5t-16 -16.5t-14.5 -15.5t-10.5 -11q-46 -51 -88 -122q-58 -100 -118 -268q-57 -154 -87 -362q1 -44 5 -137q1 -16 4.5 -58.5t4.5 -65t0.5 -57.5t-6 -64t-16.5 -56q-4 -9 -30 -9.5t-32 6.5q-33 42 -53.5 102.5t-27.5 104.5t-13 116q-15 174 -8 342q5 103 11 171.5
t20 163.5t41 176.5t66 149.5q7 14 52 14t46 -18q2 -53 -4 -111t-18 -134t-16 -109q-9 -77 -15 -153q70 202 193 356q138 170 238 146q113 -29 133 -322q19 -256 -54 -558q-46 -196 -112 -314q-215 -384 -466 -311z" />
    <glyph glyph-name="E" unicode="E" horiz-adv-x="728" 
d="M44 516q-49 1 -58 16q-2 3 1 7q23 28 59 61q8 105 30 238q4 26 17 118t26.5 159.5t33.5 124.5q-15 1 -23.5 4t-5.5 10q17 28 56 51q12 26 32 54q11 17 56 16.5t51 -20.5q71 15 167 24q288 29 385 -51q8 -7 -8.5 -13t-23.5 -6q-58 -8 -175 2.5t-174 3.5q-49 -6 -161 -40
q0 -43 -6.5 -91t-20 -113.5t-16.5 -85.5q-32 -204 -40 -273q155 51 268 -5q17 -9 -8 -18q-6 -2 -9 -2q-14 -2 -95.5 -7t-125.5 -21q-26 -10 -38 -16v-4q-21 -195 7 -343q22 -130 67 -175q63 -63 236 19q9 5 41 2q12 -2 12 -5q-14 -43 -51 -72t-81 -39t-93.5 -12.5t-88.5 6.5
q-100 19 -150.5 90.5t-73.5 185.5q-21 107 -19 220z" />
    <glyph glyph-name="F" unicode="F" horiz-adv-x="624" 
d="M19 615q34 24 70 40q1 13 6.5 78t8 88.5t9 81.5t13 91t16.5 80.5t23 86.5t29 75q-20 -2 -60 -4q-19 0 -29 7q-3 2 -1 4h-1q45 34 120 50q6 12 10 17q10 17 56 18.5t58 -17.5q32 2 47 3q50 8 75 10q205 23 323 -35q37 -19 -4 -33t-77 -6q-4 1 -7 2q-21 10 -63 22h-23
q-100 18 -269 -12q-2 -51 -20 -144t-22 -126q-31 -247 -35 -290q35 4 50 5q38 1 73.5 1t73 -12.5t62.5 -38.5q10 -10 -15 -16q-41 -10 -78 -3q-5 1 -8 3q-60 37 -163 12q-16 -197 -10 -333q1 -76 12 -150q2 -14 8.5 -47.5t7.5 -47t-2 -47.5q-6 -22 -50 -23.5t-59 12.5
q-13 10 -23 22t-18 28.5t-14 29t-11 34t-8 32.5t-5.5 36.5t-3.5 33.5t-3.5 35.5t-2.5 31.5q-12 135 -1 292q-57 -2 -70 11q-3 6 5 12z" />
    <glyph glyph-name="G" unicode="G" horiz-adv-x="938" 
d="M213 92q-67 24 -113.5 72.5t-67.5 113t-29.5 133t-2 147t16 139t24.5 125.5q23 101 60 193t92 180.5t135 154t176 95.5q47 12 93 15t88.5 -19.5t61.5 -68.5q24 -55 22 -119.5t-20 -123t-49 -110.5q-1 -2 -7.5 -3.5t-14 -1l-15 1t-12 2t-4.5 3.5q42 137 37 252
q-1 25 -2.5 37.5t-5.5 35.5t-11.5 33t-20 20.5t-33 9.5t-47.5 -12q-7 -3 -14 -7t-15 -10.5t-13.5 -10.5t-14.5 -13.5t-12 -12.5t-12.5 -13.5t-10.5 -11.5q-158 -169 -234 -458q-21 -78 -33 -141.5t-19 -138.5t1.5 -147t33.5 -137q37 -94 68 -119q80 -65 191 62
q11 13 21.5 26.5t21 31t16.5 28.5t18 32.5t16 29.5q2 24 4 36q2 49 6 95q11 124 32 171q-59 -19 -171 -71q-19 -8 -64 -1q-32 4 -25 15q1 2 4 4q102 75 243 110.5t270 21.5q23 -2 32 -11t0 -18t-32 -11q-20 -2 -59.5 -5t-59.5 -5q1 -67 -12.5 -193t-14.5 -182
q-1 -34 0.5 -71t3.5 -64.5t6.5 -71.5t7 -64t9.5 -71t9 -67q1 -12 -12 -20.5t-33 -11.5t-41 -2t-37.5 7.5t-19.5 17.5q-36 119 -47 261q-35 -39 -65 -58q-62 -41 -142.5 -51t-151.5 15z" />
    <glyph glyph-name="H" unicode="H" horiz-adv-x="819" 
d="M-10 489q-16 -8 -58 0q-19 4 -19 9q0 3 4 5q66 40 145 75q4 54 12 158q10 141 50 523q13 108 52 119q11 3 24 -1q22 -7 38.5 -40t24.5 -64q8 -32 9 -65t-3.5 -86.5t-4.5 -65.5q-2 -38 -6 -112q-2 -118 -4 -178q0 -18 -0.5 -38.5t-1.5 -45.5t-1 -39q136 34 268 28
q8 137 21 271q1 12 7 80.5t9.5 94.5t12 75t19.5 88q1 3 5.5 20.5t7 24.5t8.5 22t12 22.5t15 15t20 9.5q27 5 52.5 -11.5t26.5 -43.5q1 -43 -2.5 -94t-8.5 -85.5t-13.5 -94.5t-12.5 -88q-34 -326 -26 -328q64 -16 119 -40q32 -14 -7 -24q-42 -10 -67 -3q-32 12 -48 17v-6v-10
q0 -31 -3 -128t-2.5 -144.5t7.5 -122.5t24 -135q1 -3 14 -40.5t19.5 -67.5t2.5 -48q-9 -33 -56 -11q-24 11 -51.5 40.5t-46.5 59.5q-11 18 -21 41q-18 42 -28.5 86t-14 101t-4.5 86t1 102t2 90q1 47 5 134q-127 10 -266 -30q-7 -387 -16 -504q-1 -12 -15 -21
q-21 -13 -51 -19t-59.5 2t-40.5 34q-7 14 -9 45q-13 211 -2 390q-34 -16 -68 -34z" />
    <glyph glyph-name="I" unicode="I" horiz-adv-x="447" 
d="M68 -14q-15 -5 -60 2q-32 6 -24 15q53 50 136 74q-14 -4 -19 175t-2 228q18 238 52 432q23 122 35 175q1 3 4 20.5t6.5 35.5t8 38t10.5 33t11 14q-44 -12 -66 -19q-3 -6 -31.5 -7.5t-30.5 0.5q-2 0 -6 0.5t-6 0.5q-12 2 -19 7.5t2 15.5q81 60 199 90.5t211 10.5
q16 -4 22 -11t0 -14.5t-22 -11.5q-19 -5 -116 -15q3 -7 -2 -36q-93 -445 -89 -865q0 -22 5.5 -122.5t1.5 -153.5q59 0 109 -12q38 -9 26 -29q-10 -18 -41 -20q-13 -1 -79 -1q-35 -4 -99.5 -16.5t-82.5 -15.5q-8 -3 -22.5 -9t-21.5 -9z" />
    <glyph glyph-name="J" unicode="J" horiz-adv-x="690" 
d="M158 8q-101 37 -143 149t-19 224q3 18 48 19.5t51 -14.5q6 -14 12 -44.5t11 -61t13.5 -67t18.5 -63.5t26.5 -48.5t37 -23t50.5 12.5q19 11 35 30.5t26.5 39t18 50.5t12 52t7.5 57.5t4 53t2 52.5t1 43q4 111 15 353t15 370q0 7 0.5 19t1 22.5t1.5 19.5q-26 -10 -49 -14
q-40 -11 -68 0q-5 2 -9 4.5t-9 6.5t-4.5 8.5t8.5 8.5q59 30 126.5 49t143.5 23.5t133 -21.5q21 -10 14.5 -22.5t-27.5 -15.5q-34 -7 -119 -7q-4 0 -5.5 -60.5t-1 -151.5t1 -179t1.5 -164.5t1 -86.5q0 -34 2 -109t1.5 -112.5t-4 -94.5t-14 -103.5t-28.5 -91.5
q-24 -60 -82 -95t-124 -36.5t-133 19.5z" />
    <glyph glyph-name="K" unicode="K" horiz-adv-x="757" 
d="M169 13q-7 -27 -63.5 -30t-68.5 23q-13 29 -21.5 62t-11 74.5t-3.5 67.5t0 76.5t1 66.5q0 169 15 339q14 165 51 356q2 8 9.5 46.5t10 51.5t10.5 45.5t14.5 50.5t17 43t22.5 45q8 15 54.5 15t47.5 -19q4 -49 -2.5 -104t-20.5 -125.5t-19 -104.5q-21 -156 -33 -319v-6
q56 17 89 35q96 54 171 144q47 55 84.5 130.5t73.5 156.5t73 134q4 7 32.5 7t28.5 -9q2 -119 -78.5 -260.5t-182.5 -233.5q-79 -73 -169 -114q111 -28 210 -138q40 -44 77.5 -103t69 -132t37 -139.5t-19.5 -126.5q-7 -14 -45.5 -14t-45.5 14q-10 21 -15.5 42.5t-10 56
t-6.5 45.5q-16 85 -55 172q-20 45 -48 90.5t-68 97t-89 78.5t-96 16q-2 -1 -20 -1q-9 -161 -6 -281q0 -31 6 -100t5.5 -123t-12.5 -98z" />
    <glyph glyph-name="L" unicode="L" horiz-adv-x="645" 
d="M121 5q-38 16 -62.5 50t-35 82.5t-13.5 84t-3 87.5q-2 125 7 256t31.5 271.5t67 271.5t105.5 224q4 6 24 8t38 -1t17 -11q-10 -68 -53.5 -235t-57.5 -268q-24 -171 -28 -438q-2 -148 13 -219q7 -30 11 -43t16 -26.5t34 -23.5q16 -7 35.5 -8t31.5 1t37.5 8t32.5 7
q4 1 25.5 5.5t29.5 6t29 4t31.5 2.5t28 -1.5t28.5 -6.5t23 -13.5t21 -20.5q4 -7 0 -13q-1 -2 -3.5 -6.5t-3.5 -7.5q-12 -13 -40.5 -12.5t-43.5 8.5q-14 8 -59 -0.5t-98 -22.5t-69 -15q-94 -8 -147 15z" />
    <glyph glyph-name="M" unicode="M" horiz-adv-x="1265" 
d="M60 89q-22 32 -32 107q-62 490 45 979q25 116 68 173q23 31 48 31q15 0 27 -11t18 -27q6 -19 2 -62q-6 -59 -18 -179t-18 -179q6 65 89 220t155 201q68 38 124.5 3t74.5 -108q10 -22 8 -110.5t0 -112.5l51 135q17 41 33.5 73.5t42.5 74.5t56 68t66.5 45t82 15.5
t95.5 -29.5q71 -37 89.5 -71.5t21.5 -112.5q3 -74 -3 -149.5t-22.5 -193.5t-20.5 -148q-24 -199 -32 -351.5t-3.5 -219t10.5 -122t6 -71.5q0 -9 4.5 -62t-1.5 -60q-1 -7 -21 -7q-192 -8 -189 353q0 51 11 203q30 388 105 786q1 5 5 23t6 28t4 29t1.5 30t-3.5 26t-9.5 24
t-18.5 16t-29 8q-43 5 -90 -58q-55 -74 -99.5 -174.5t-66 -171.5t-55.5 -196q-27 -98 -41 -155t-26.5 -143.5t-11.5 -159.5q0 -71 -15 -96q-12 -23 -38.5 -30t-44.5 10q-16 16 -14 58q2 140 28.5 394.5t31.5 323.5q1 12 8 70t9 95.5t-5.5 82.5t-29.5 64q-12 11 -25 12
t-25 -7.5t-24.5 -21.5t-23.5 -32t-21 -38t-19 -39.5t-16 -37t-13 -31t-9 -19.5q-65 -127 -107 -275q-79 -291 -44 -575q16 -128 -45 -152q-25 -10 -53 1.5t-44 35.5z" />
    <glyph glyph-name="N" unicode="N" horiz-adv-x="881" 
d="M54 68q-22 32 -32 107q-62 490 45 979q25 116 68 173q23 31 48 31q15 0 27 -11t18 -27q6 -19 2 -62l-36 -358q14 140 165 341q69 89 142 129q52 30 107 26t101.5 -28t77 -71.5t33.5 -105.5q2 -57 -2 -126t-10 -117t-17.5 -129t-16.5 -119q-24 -199 -32 -351.5t-3.5 -219
t10.5 -122t6 -71.5q0 -12 3 -40t3.5 -44t-3.5 -38q-1 -7 -20 -7q-53 -2 -91.5 21t-57.5 76.5t-30.5 95t-10.5 122t2 109.5t7 102q1 21 2 30q20 288 78 632q2 11 10.5 42.5l17 63t15 69.5t7 67.5t-9.5 52t-33 27.5q-27 6 -54.5 -1t-55.5 -28.5t-44 -36.5t-41 -42
q-18 -19 -33.5 -42.5t-24 -40.5t-22.5 -47t-22 -46q-65 -127 -107 -275q-79 -291 -44 -575q16 -128 -45 -152q-25 -10 -53 1.5t-44 35.5z" />
    <glyph glyph-name="O" unicode="O" 
d="M210 535q-8 -49 -4 -119t14.5 -136t40 -127.5t71.5 -95.5q41 -32 95 2q130 78 230 358q68 190 89 426q17 177 -10 268q-31 102 -116 159.5t-179 10.5q-129 -67 -222 -229q4 3 10 9t10 9q7 6 32 9.5t48 -1.5t22 -19q-2 -38 -12.5 -77t-30 -92.5t-26.5 -74.5
q-48 -155 -62 -280zM85 146q-69 116 -69 285q-1 124 29.5 263t89.5 246q-19 2 -19 6q17 168 130.5 286t277.5 123q149 6 233 -122q51 -78 66 -156.5t12 -191.5q-3 -178 -75 -431q-58 -211 -163 -333q-115 -135 -267 -119q-75 8 -141.5 45.5t-103.5 98.5z" />
    <glyph glyph-name="P" unicode="P" 
d="M225 43q2 -22 -31.5 -30.5t-70 1t-42.5 29.5q-84 297 -67 696q17 394 131 658q4 10 30.5 14t51 -1.5t23.5 -17.5q-6 -92 -26.5 -282.5t-26.5 -288.5q53 183 142 353q21 39 30.5 56.5t31.5 53t39 54.5t42 43t52.5 38.5t58.5 21.5q142 32 207 -69q32 -51 43.5 -136
t9 -147.5t-11.5 -145.5q-26 -255 -167 -377q-56 -48 -127 -68t-138 -2q-68 16 -104 66q-19 26 -24.5 57.5t5.5 61.5q10 22 31 35.5t41 5.5q13 -5 21 -16.5t16 -34.5t10 -28q13 -29 40.5 -47t58.5 -19q41 -1 81.5 30t66.5 72q34 50 52 135q5 26 10.5 56.5t14 84.5t12 103.5
t5.5 106t-6.5 101t-23.5 79t-44.5 48t-70.5 2.5q-22 -6 -44.5 -25.5t-44 -53t-34.5 -56.5t-33 -63.5t-23 -46.5q-72 -139 -120 -290q-40 -124 -69 -293q-3 -21 -13 -93t-18 -111q3 -50 23 -320z" />
    <glyph glyph-name="Q" unicode="Q" horiz-adv-x="905" 
d="M74 153q-69 114 -69 285q-1 124 29.5 263t89.5 246q-4 0 -7.5 1t-6.5 1.5t-4 1.5t-1 2q17 168 130 286t277 123q149 6 233 -122q51 -78 66.5 -157t12.5 -191q-4 -176 -75 -431q-37 -135 -92 -229q12 -19 23 -36q86 -131 140 -175q42 -35 75 -32q11 3 36 -2q15 -5 12 -12
q-22 -27 -59 -29t-75.5 15t-70 37.5t-52.5 40.5q-49 47 -90 102q-1 -2 -5 -6.5t-5 -6.5q-116 -134 -267 -119q-76 8 -142 45t-103 99zM199 542q-8 -49 -4.5 -119t14.5 -136t40 -127.5t71 -95.5q41 -33 96 2q71 42 133 145q-109 174 -88 296q2 13 40.5 13t40.5 -13
q18 -87 65 -183q22 56 38 100q66 182 90 426q17 177 -11 268q-31 102 -115.5 159.5t-178.5 10.5q-128 -66 -222 -229q3 3 9.5 9t9.5 9q7 6 32.5 9.5t48.5 -1.5t22 -19q-2 -38 -13 -78t-30 -91t-26 -75q-47 -147 -62 -280z" />
    <glyph glyph-name="R" unicode="R" horiz-adv-x="959" 
d="M229 35q1 -13 -12.5 -22t-33.5 -10.5t-41 0.5t-37.5 11t-20.5 21q-83 298 -66 696q17 394 131 658q7 16 56.5 15t48.5 -20q-6 -92 -26.5 -282.5t-26.5 -288.5q54 189 142 353q29 55 47 85.5t51 74.5t71.5 70t84.5 37q142 33 206 -69q25 -39 38 -93t14 -119t-1.5 -109.5
t-8.5 -107.5q-28 -257 -168 -377q-56 -48 -126.5 -68t-137.5 -2q-49 13 -82 42q66 -210 145 -349q2 -3 13.5 -23.5t15 -26.5t14.5 -24.5t16.5 -26.5t16 -24t18.5 -25.5t18 -21.5t20.5 -21.5t20.5 -17.5q36 -28 66.5 -34t51 1.5t41 33.5t31.5 47t27 58q14 43 31 98
q5 16 13.5 44.5t15.5 52t13 44.5q3 10 7 31t9 36.5t13 27.5q6 10 42.5 10t35.5 -13q-1 -34 -9 -75.5t-15.5 -66.5t-24.5 -77t-22 -67q-3 -8 -11 -34t-12 -37.5t-13 -28.5t-19 -29q-49 -103 -129 -127q-125 -38 -252 93q-217 224 -285 582q-2 -14 -11.5 -81.5t-17.5 -103.5
q3 -47 7 -101t9 -118t8 -101zM306 852q-20 -62 -38 -138q10 -2 11 -7q1 -6 5 -18t5 -18q1 0 1 2q10 22 31 35.5t41 5.5q13 -5 21 -16.5t16 -34.5t10 -28q13 -29 40.5 -47t58.5 -19q41 -1 80.5 29.5t67.5 72.5q33 51 51 135q5 26 10.5 56.5t14 84.5t12 103.5t5.5 106
t-6.5 101t-23 79t-44 48t-70.5 2.5q-19 -5 -39 -22t-35 -36t-33.5 -49.5t-28 -49t-25 -50t-18.5 -38.5q-72 -139 -120 -290z" />
    <glyph glyph-name="S" unicode="S" horiz-adv-x="790" 
d="M473 7q-145 -34 -270.5 12t-189.5 178q-28 68 -11 139t64 126q30 34 79 59t89 18q22 -4 44.5 -18.5t17.5 -34.5q-3 -12 -21 -16.5t-42.5 -5t-29.5 -1.5q-28 -6 -48.5 -29.5t-30.5 -53.5q-38 -123 41.5 -215t191 -81.5t152.5 137.5q35 112 -52 261q-44 74 -149 214.5
t-150 217.5q-151 260 19 370q50 32 112 40t118 -12q67 -13 103 -60q14 -18 17 -48.5t-5 -59.5t-24 -54t-39 -31.5t-51 8.5q-14 6 -11 22.5t12.5 31t19 35t8.5 35.5q-2 42 -29.5 66.5t-69.5 31.5q-39 -22 -57.5 -70.5t-16 -100t20.5 -91.5q18 -38 47 -85.5t46 -71t58 -79.5
q21 -29 99.5 -124t119.5 -164.5t57 -147.5q27 -133 -44.5 -226t-194.5 -122z" />
    <glyph glyph-name="T" unicode="T" horiz-adv-x="715" 
d="M961 1319q18 -2 28.5 -7.5t12 -11.5t-1.5 -12q3 -7 -5 -13.5t-24.5 -10.5t-36.5 -3q-193 11 -374 -5q1 0 -4 -48t-13.5 -119.5t-13.5 -115t-9 -72.5q-27 -206 -27 -394q-1 -85 12.5 -246.5t13.5 -236.5q0 -23 -35 -34t-73 -3.5t-45 27.5q-27 85 -38.5 188.5t-9.5 194.5
t4 193q10 327 72 598l9 51q-2 -1 -5.5 -1.5t-5.5 -0.5q-114 -17 -182 -33q-36 -9 -110 -29q-46 -15 -75 -18q-2 -1 -7 -2t-8 -2q-24 -3 -55 4q-18 4 -7 10q158 93 474 139q2 5 5 15t5 15q1 0 3 -1t3 -1q11 12 37.5 20t52 2.5t28.5 -27.5v-6q220 21 405 -4z" />
    <glyph glyph-name="U" unicode="U" horiz-adv-x="864" 
d="M768 157q15 -120 38 -183q5 -14 23 -50.5t27 -65.5t5 -54q-2 -12 -49 -5q-47 10 -85 35.5t-63.5 58.5t-45 80t-30 91t-17 101t-9 100t-3.5 98q-36 -100 -77 -175q-26 -47 -64.5 -90t-89.5 -75.5t-104.5 -36t-109.5 27.5q-11 7 -21 17.5t-17.5 19.5t-15 25t-12 25.5
t-9.5 29.5l-7 28t-6 31t-4.5 28t-4 28.5t-3.5 24.5q-20 142 -8 411q14 260 32 388q1 11 5.5 47t7 54.5t10.5 50.5t18.5 50t29.5 35t43 24q1 1 7 1t7 -1q8 -30 8 -66t-4.5 -63.5t-11.5 -67.5t-9 -64q-12 -104 -22 -312q0 -7 -2.5 -62.5t-3 -67.5t-2 -61t-1 -68t1 -61.5
t3 -67.5t5.5 -61t8.5 -67t12.5 -62l4.5 -22.5l6 -30t7.5 -28t12 -26t15 -15.5q15 -9 30.5 -8.5t28 5t27 16.5t22.5 20t20 21q25 28 48 66.5t36.5 67.5t32.5 75q17 41 35 91.5t29.5 85.5t30.5 96.5t28 88.5q11 162 35 306q15 94 50 226q12 44 20 66q9 26 23 53q12 15 28 16
q-1 2 3 3.5t10 2t10 1t6 0.5q34 1 51.5 -13t19 -41.5t-2 -52t-12 -60t-10.5 -50.5q-38 -275 -45 -495q-8 -270 20 -488z" />
    <glyph glyph-name="V" unicode="V" horiz-adv-x="819" 
d="M563 1320q-7 19 25 26q41 8 74 -6q9 -4 12 -8q35 -47 56.5 -103.5t26 -122t3.5 -121t-15 -131.5t-24 -122t-28 -121q-8 -30 -11 -45q-44 -185 -128 -385q-5 -11 -17 -42t-18.5 -45t-20.5 -38t-27 -36t-34 -22.5t-46 -13.5q-58 -6 -107.5 24.5t-79.5 70.5t-59.5 115.5
t-40 114.5t-28.5 113q-5 19 -7 28q-139 558 -28 849q2 5 21 5t20 -5q9 -52 12.5 -110t3.5 -132.5t2 -110.5q8 -172 37 -332q30 -164 83 -325l10 -29q10 -28 17 -48t20.5 -50.5t26.5 -53.5q2 -1 17 -11q17 0 20 -1q30 -3 57 36.5t47.5 106t35 127.5t26.5 125.5t15 75.5
q61 233 75 317q44 256 -24 436z" />
    <glyph glyph-name="W" unicode="W" horiz-adv-x="1191" 
d="M1051 1367q14 -17 24 -38t15 -37.5t8.5 -44t4.5 -40t2.5 -45t1.5 -40.5q9 -191 5 -303q-17 -334 -127 -600q-21 -50 -47.5 -94.5t-65 -83t-80 -55.5t-93.5 -3.5t-104 63.5q-74 71 -103 199q-23 -77 -44 -127q-18 -45 -47 -67q-23 -37 -49.5 -58t-66.5 -24
q-124 -11 -195 118q-25 45 -40 110t-18.5 101.5t-9.5 116.5q-15 200 1 393q18 217 52 392q1 6 6.5 41t12 56.5t17.5 35.5q9 11 48 25q7 3 20.5 3t19.5 -4q36 -25 39.5 -31.5t3.5 -47.5q1 -43 -8 -156q-2 -25 -9.5 -123t-9.5 -151q-15 -353 17 -568q19 -125 50 -184
q27 -5 33 -11q3 -3 19 37t31 82l15 41q24 80 49 180q12 48 34.5 177.5t43.5 197.5q5 17 25 17t38.5 -8.5t30.5 -17.5q36 -29 41 -85q3 -41 6 -140t7 -161t24.5 -142t56.5 -136q2 -2 8 -12t12 -18.5t13 -18t14 -15.5t12 -6q82 1 158 278q34 126 49 342q10 136 8 335
q0 112 -4 168q-1 21 -8 62.5t-8.5 62.5t3.5 60q1 9 26.5 9t31.5 -7z" />
    <glyph glyph-name="X" unicode="X" horiz-adv-x="790" 
d="M787 30q13 -14 46.5 -44.5t56.5 -57t34 -52.5q8 -19 -28 -24q-32 -4 -54 1q-48 11 -93 36.5t-86 64.5t-69 71t-65 80q-98 125 -228 377l-18 36q-20 -46 -87.5 -211t-109.5 -253q-1 -4 -13 -5t-23.5 0.5t-11.5 4.5q16 242 193 571q-77 163 -130 304q-26 67 -41.5 116
t-28 109.5t-10.5 119t18 116.5q4 14 44 14.5t43 -14.5q53 -264 206 -590q204 335 467 566q11 10 48 0q9 -2 9 -4q-293 -324 -454 -604q-12 -20 -27 -49q18 -39 75 -153q118 -229 208 -360q65 -97 129 -166z" />
    <glyph glyph-name="Y" unicode="Y" horiz-adv-x="885" 
d="M773 931q16 -211 17 -237h2v-1q-3 -8 -1 -17q2 -91 -1 -136q-4 -76 -26 -151.5t-61 -145t-103 -123.5t-145 -77q-51 -15 -95.5 -11.5t-81 19t-62 43.5t-38.5 61t-10 73t23 78q34 65 88.5 112t134.5 93q14 8 81 45t104 56q1 98 -6 391q-1 20 -8 26.5t-17 1.5
q-18 -73 -54 -155q-13 -43 -28 -82t-36 -79.5t-44.5 -73t-54 -58.5t-63.5 -39t-73.5 -11t-83.5 22q-87 40 -117 194q-50 275 54 542q11 28 22 37q23 19 41 3q1 -50 -3.5 -106t-11.5 -124t-10 -106q-15 -206 35 -333q27 -69 72 -70q22 -1 51 20q16 11 31 25.5t26.5 26.5
t25 33t21 32t19.5 37t16.5 35t16.5 39t14 36t14 39t13 35q12 32 22.5 76t15 69.5t13.5 85t11 69.5q11 82 47 106q26 17 64 22.5t66 -7.5q23 -11 35 -39.5t13.5 -61t2.5 -66.5t1 -55q3 -31 10.5 -104.5t10.5 -113.5zM555 305q38 110 43 262q-6 -3 -32.5 -15t-34.5 -16
t-31.5 -15t-33.5 -17t-30 -17t-32 -19.5t-28.5 -20t-29.5 -23.5t-26 -25q-46 -46 -63.5 -103t0.5 -120q15 -44 48.5 -61t70.5 -10t72 29t55 52q25 38 52 119z" />
    <glyph glyph-name="Z" unicode="Z" horiz-adv-x="868" 
d="M906 148l3 -45q3 -105 -92 -186t-203 -82q-156 -2 -246 79q-17 15 -47 45t-55.5 53t-50.5 40q-28 19 -49 20q-18 1 -50.5 -24.5t-50.5 -29.5q-17 -2 -35 -2t-32.5 10.5t-16.5 29.5q-1 15 4 38q42 215 117 406q71 180 154 342q94 184 189 323q58 86 69 101
q-150 -52 -265 -47q-51 1 -120 27q-104 38 -62 86q7 9 19 17q7 4 24.5 4.5t22.5 -5.5q10 -17 16 -36t7.5 -27.5t9.5 -19.5t21.5 -12t44.5 -4.5t79 1.5q70 3 179 50q70 32 105 46q31 19 61 29q6 1 22 1.5t34.5 -0.5t31 -7.5t9.5 -16.5q-13 -41 -43.5 -88.5t-70.5 -101
t-58 -83.5q-99 -163 -165 -296q-77 -156 -137 -309q-11 -29 -48.5 -150t-68.5 -179q8 15 63.5 -11t80.5 -44q20 -14 45.5 -36.5t47 -42.5t48 -41.5t52 -36t53.5 -24.5t59 -9t63 14q60 23 97.5 84t36.5 127q0 5 -0.5 14t-1 17.5t-0.5 19.5t1 19.5t3 18t6 15t10 10.5t14.5 4
t19.5 -4q24 -8 36 -38q6 -17 10 -53z" />
    <glyph glyph-name="bracketleft" unicode="[" horiz-adv-x="442" 
d="M296 1366q-55 -10 -78 -37t-23 -81q1 -87 0 -174q-2 -58 -7.5 -174t-7.5 -174q-5 -200 2 -370q0 -10 0.5 -47.5t2 -55.5t5.5 -51t13.5 -51t24.5 -38.5t39.5 -29.5t56.5 -9q27 0 52 -15q23 -13 -6 -25q-44 -17 -91.5 -23t-95 0.5t-87 36.5t-59.5 80q-9 22 -15 46t-9 53.5
t-4.5 46.5t-2.5 54.5t-2 47.5q-7 139 0 311q1 29 3 119.5t4.5 137t8.5 120t18 133.5t30 114q15 43 55.5 65t86.5 20.5t92 -13.5q13 -6 9.5 -10t-15.5 -7z" />
    <glyph glyph-name="backslash" unicode="\" horiz-adv-x="682" 
d="M202 707q-57 152 -117 323q-6 19 -28 76.5t-32.5 90.5t-19.5 81.5t-6 85.5q2 14 38.5 13.5t44.5 -10.5q26 -32 49.5 -78.5t36.5 -81t33.5 -94.5t29.5 -84q70 -183 127 -320q106 -257 139 -336q7 -15 39 -85t48 -114.5t23 -90.5q4 -22 -42 -24q-49 -3 -75 13q-3 2 -5 4
q-26 33 -51 79t-39 77t-38.5 92t-33.5 81q-75 179 -121 302z" />
    <glyph glyph-name="bracketright" unicode="]" horiz-adv-x="405" 
d="M313 413q5 -138 3 -230q-1 -14 -0.5 -28t-0.5 -29.5t-3 -29.5t-7 -27.5t-14 -23.5q-19 -22 -50 -29.5t-52 -5.5t-64.5 10t-54.5 10q-28 4 -41 16q-8 7 5 14q12 7 38.5 13.5t45 15.5t25.5 26q7 31 6 52t-6 64t-6 55q-3 64 -6.5 181.5t-4.5 154.5q-1 33 -4.5 143.5
t-4.5 161t-2 138.5t1.5 160.5t7.5 142.5q-54 0 -109 3q-20 1 -22 8q-1 5 13 7q26 4 79 11t80 12q19 3 45.5 -1t29.5 -20q19 -92 31.5 -188.5t19.5 -207t10 -184.5t6.5 -207t5.5 -188z" />
    <glyph glyph-name="asciicircum" unicode="^" horiz-adv-x="595" 
d="M380 1166q-2 3 -22 26.5t-29.5 34.5t-27.5 29.5t-33.5 29.5t-29.5 16q-34 13 -63 -17t-46.5 -75t-42 -99t-45.5 -76q-1 -2 -2.5 -6t-2.5 -6q-7 -16 -16.5 -16t-16.5 16q-18 45 0 84q5 14 14 29q12 84 58 199q1 3 8 21.5t10 25t10.5 24t13 25.5t14.5 21.5t17.5 20.5
t19.5 14t23.5 9t26.5 1q13 -2 26.5 -7t25 -11t25.5 -18t23 -19.5t23.5 -24.5t20.5 -24t20.5 -26.5t18 -24t17 -24.5t14.5 -21q35 -51 53.5 -81t38.5 -77.5t27 -92.5q3 -14 -6 -48q-7 -26 -16 -15q-30 33 -79.5 96.5t-69.5 86.5z" />
    <glyph glyph-name="underscore" unicode="_" horiz-adv-x="1000" 
d="M12 162q-26 3 -35.5 12.5t0.5 19.5t35 14q41 7 92.5 10.5t79.5 4.5t98.5 2t84.5 1q18 0 61.5 2t68 2t60 -2t65.5 -10.5t57 -22.5q11 -9 6 -17t-16 -13q-32 -15 -74.5 -21t-71.5 -5.5t-83 3.5t-73 4q-32 1 -110.5 2t-135 4t-109.5 10z" />
    <glyph glyph-name="grave" unicode="`" horiz-adv-x="215" 
d="M32 1493q21 -9 45 -35t53.5 -67.5t32.5 -45.5q16 -20 7 -44.5t-29 -31t-40 11.5l-13 15q-14 16 -19 21.5t-18.5 22t-20 26t-16.5 25.5t-14.5 27.5t-7.5 25t-2 24.5q2 17 15.5 23.5t26.5 1.5z" />
    <glyph glyph-name="a" unicode="a" horiz-adv-x="532" 
d="M193 207q-60 -27 -109.5 2.5t-68.5 93.5q-17 49 -12 111t22.5 118.5t56.5 103.5t90 65q34 13 76.5 10.5t69.5 -22.5q12 -4 17 -6q9 24 25 50q9 14 47.5 12.5t44.5 -16.5q13 -34 18 -79t4.5 -76.5t-3.5 -86.5t-3 -77q-2 -133 18 -205q2 -6 22.5 -47t15.5 -56q-1 -6 -14 -6
q-80 -9 -135 37.5t-70 129.5q-5 24 -11 80q-47 -111 -101 -136zM108 480q-8 -35 -12 -75t3 -86t30 -66q12 -38 47 0q14 15 32 44q24 38 50 111q7 21 14 45t15 53.5t13 45.5q6 39 15 74q-8 6 -22.5 23.5t-24.5 23.5q-20 11 -61 -7q-35 -30 -62 -85.5t-37 -100.5z" />
    <glyph glyph-name="b" unicode="b" horiz-adv-x="599" 
d="M114 1197q5 2 10 3.5t10.5 1t9.5 -1t10 -2.5t9.5 -3.5t9 -5t8.5 -5t9 -5.5t8 -5q10 -8 11 -19q-2 -35 -19 -246t-17 -297q-1 -27 5 -93q56 102 139 127q84 26 147.5 -8.5t76.5 -120.5q20 -130 -15.5 -254t-130.5 -199q-32 -25 -87 -47.5t-114 -20.5t-76 48q-5 14 62 10
q4 -1 6 -1q35 -10 71 5t64.5 46.5t49.5 63.5t36 65q48 108 43 253q-2 50 -9 73q-10 33 -36.5 50t-60.5 6q-42 -14 -94 -115q-26 -52 -63 -157q-2 -86 -32 -137q-8 -11 -38.5 -10.5t-38.5 10.5q-27 32 -43.5 76.5t-21 105t-5 100t3 111.5t3.5 90q3 123 25 352q1 11 3 36t3 33
t5.5 25t11.5 25t20 18.5t31 18.5z" />
    <glyph glyph-name="c" unicode="c" horiz-adv-x="475" 
d="M365 655q-93 90 -153 -40q-38 -82 -45 -192q-1 -7 -1 -14q-3 -31 0 -89.5t20 -85.5q48 -75 205 117q3 4 16 4.5t24.5 -1.5t10.5 -4q-32 -76 -124 -140t-166 -58q-92 7 -124.5 71.5t-27.5 167.5q3 49 13 96t29.5 94t53.5 83t79 53q39 15 82 16.5t82 -17.5t51 -61
q0 -1 -6 -1.5t-12 0t-7 1.5z" />
    <glyph glyph-name="d" unicode="d" horiz-adv-x="579" 
d="M183 157q-82 -41 -130.5 8t-51.5 138q-2 71 14.5 153t59.5 162t104 110q31 16 80.5 15.5t85.5 -18.5q14 115 49.5 239t85.5 176q9 9 41 9.5t35 -12.5q7 -40 -0.5 -114.5t-20.5 -159t-15 -115.5q-7 -99 -15 -301q-9 -271 71 -500q3 -9 -39 -4q-12 1 -15 3
q-54 31 -91.5 75.5t-58 98.5t-30 108t-11.5 119q-75 -152 -148 -190zM143 549q-57 -152 -50 -263q3 -70 19 -86q6 -36 27 -6q18 12 28 27q40 43 77 111q38 68 89 226q2 64 4 94q-14 19 -22.5 28t-22 18.5t-28 7.5t-31.5 -14q-50 -36 -90 -143z" />
    <glyph glyph-name="e" unicode="e" horiz-adv-x="455" 
d="M154 152q-165 12 -152 239q3 49 13 96t29.5 94t53.5 83t79 53q28 10 59 13.5t62 -0.5t56 -21.5t35 -46.5q22 -38 -6.5 -90.5t-70.5 -92.5q-69 -64 -145 -85q-3 -123 21 -160q11 -18 27.5 -21t38.5 10.5t38.5 25.5t41 39.5t32.5 37t27 32.5q3 4 16 4.5t24.5 -1.5t10.5 -4
q-33 -77 -124.5 -144t-165.5 -61zM319 687q-34 12 -63 -12t-46 -69.5t-27.5 -90t-13.5 -84.5q46 25 83 60q54 53 69 101q4 15 4.5 28.5t-3 38t-3.5 28.5z" />
    <glyph glyph-name="f" unicode="f" horiz-adv-x="372" 
d="M197 405q26 32 61 90q24 39 50.5 57t69.5 17q39 -4 37 -13q0 -4 -10 -7q-24 -9 -41.5 -27.5t-35.5 -49.5t-27 -42q-54 -72 -93 -90q-21 -9 -40 -12q153 -350 74 -496q-18 -35 -55 -49q-15 -11 -55 -10t-52 6q-12 6 -21.5 15t-17 17.5t-13.5 22t-10 23t-7 27t-5 26
t-3.5 28l-2 26t-1.5 27t-1 24.5q-6 125 4 376q9 240 26 404q5 53 8 76t11.5 72.5t18.5 79t28.5 66t42.5 62.5q7 8 37 8t32 -11q10 -30 7.5 -84.5t-7.5 -90.5t-14.5 -91.5t-12.5 -86.5q-18 -204 -25 -346q-1 -14 -2 -41t-2 -41q1 0 1 -1q3 -6 4 -7q13 7 42 46zM195 78
q-16 80 -49 159q-3 -78 -3 -156q0 -47 -1 -92t8.5 -96.5t30.5 -86.5q20 24 24 89.5t-1 114t-9 68.5z" />
    <glyph glyph-name="g" unicode="g" horiz-adv-x="752" 
d="M207 635q-44 -68 -71 -145q-79 -226 -3 -272q13 -8 33 1t42.5 32t43.5 48t43.5 56.5t34 49t22.5 34.5q43 66 76 162q2 91 26 155q6 16 44 17t47 -13q17 -27 30.5 -61.5t20.5 -58t13.5 -72.5t8 -63t5.5 -73t4 -63q1 -9 2 -26t2 -25q95 53 183 64q9 0 9 -1
q-4 -16 -27.5 -31t-58 -29.5t-43.5 -19.5q-28 -17 -59 -38q10 -137 -15 -258q-14 -68 -55.5 -122.5t-102.5 -82.5q-39 -18 -85.5 -27t-96.5 0t-73 44q-12 19 -12.5 42.5t7.5 45.5t22 46.5t27 42t28 33.5q53 61 177 167q0 10 -1.5 30.5t-1.5 28.5q-1 43 -17 192
q-73 -150 -175 -231q-41 -33 -95 -44.5t-101.5 10.5t-60.5 80q-24 111 39 265.5t158 216.5q26 17 61 25t69 6t59.5 -23t30.5 -59q0 -1 -5.5 -2t-11 -0.5t-6.5 2.5q-16 37 -43.5 43.5t-56 -10.5t-52.5 -40.5t-39 -48.5zM458 112q-10 -11 -43 -45t-49 -51.5t-38 -47t-36 -56.5
q-13 -27 -12.5 -50.5t14.5 -34.5q19 -16 57 -3q43 15 68 62q21 37 32 107q2 14 0.5 37.5t0 49.5t6.5 32z" />
    <glyph glyph-name="h" unicode="h" horiz-adv-x="521" 
d="M158 196q-8 -18 -54.5 -17t-55.5 18q-11 19 -18 41t-11 43t-6 44t-2.5 44.5t-0.5 45v45.5q-3 131 5 277q1 14 3.5 69.5t4.5 83t9.5 78.5t19 82t33 65t50.5 54q11 8 41.5 9.5t36.5 -12.5q6 -46 3 -72.5t-12.5 -78t-11.5 -74.5q-11 -113 -16 -245q-2 -78 -2 -118l15 36
q15 32 26 52t29.5 44t42.5 36t54 13q55 1 84 -39.5t34 -103t6 -140.5t0.5 -149.5t18 -132.5t57.5 -87q19 -14 -21 -21q-44 -8 -60 -1q-41 17 -67.5 54t-36.5 79t-12.5 99t0.5 102t7.5 100t4.5 82q0 4 1.5 25t1 37.5t-4.5 25.5t-7.5 15t-8 8t-7 3.5t-7.5 -1.5t-7 -4t-9.5 -7
t-9.5 -8q-10 -8 -19.5 -21.5t-16 -26t-14.5 -33t-11.5 -31.5t-11 -33t-8.5 -27q-16 -50 -40 -179q4 -91 -19 -148z" />
    <glyph glyph-name="i" unicode="i" horiz-adv-x="243" 
d="M122 187q-108 37 -114 230q-9 249 58 356q9 15 52 15.5t50 -16.5q17 -44 18 -97.5t-7 -121t-8 -100.5q0 -87 17 -163q1 -6 4.5 -18.5t4.5 -18.5t2 -15.5t-0.5 -16.5t-5 -15.5t-10.5 -17.5q-11 -8 -29.5 -7t-31.5 6zM113 1147q21 9 49.5 1.5t34.5 -29.5q2 -7 -1 -63
l-3 -60q-2 -15 -18.5 -25t-39 -12t-44.5 1t-37 13t-14 24q2 27 19 89q8 25 19.5 39t34.5 22z" />
    <glyph glyph-name="j" unicode="j" horiz-adv-x="571" 
d="M306 994q-2 -15 -18.5 -25t-39 -12t-44.5 1t-37 13t-14 24q1 23 19 89q13 47 53 62q21 9 49.5 1t34.5 -30q3 -9 0 -63zM246 272q4 25 19 127q17 132 7 210q-2 18 -5 31.5t-9 30.5t-15 27.5t-21.5 18.5t-31.5 7.5t-42 -10.5q-15 -6 -29.5 -22t-30 -39t-21.5 -30
q-4 -5 -25 -4.5t-22 6.5q-15 48 19.5 86.5t83.5 56t93 19.5q62 2 113.5 -24t82.5 -80q67 -115 38 -322q50 18 103 25h5q5 1 12.5 1.5t13.5 0.5q33 0 15 -24q-12 -16 -27 -22q-11 -5 -34.5 -9.5t-29.5 -6.5q-2 0 -11.5 -3t-17.5 -5.5t-17.5 -6t-15 -8t-6.5 -9.5l-6 -27
q-23 -119 -52 -201.5t-87 -147.5q-57 -64 -135.5 -99.5t-156.5 -24.5q-61 9 -101.5 50.5t-25.5 102.5q9 38 37.5 76.5t74 76t75 58.5t75.5 51q40 26 108 63zM134 -44q62 92 93 227q-32 -22 -47 -34q-122 -90 -161 -156q-7 -12 -12 -31t-6.5 -40t10 -35t36.5 -12q29 1 87 81z
" />
    <glyph glyph-name="k" unicode="k" horiz-adv-x="521" 
d="M222 1145q8 -42 4.5 -116.5t-8.5 -120t-14 -120t-13 -116.5q-4 -45 -12 -139q29 63 70 125q77 118 165 91q29 -9 35.5 -39.5t-5.5 -67.5t-27 -68.5t-30 -52.5q-64 -91 -172 -121q64 -101 104 -148q21 -23 43.5 -26t41 9t37 34.5t30.5 42.5t22 42q8 15 48 9q24 -5 22 -12
q-96 -188 -222 -163q-59 12 -101.5 64t-63.5 120q-1 -1 -2.5 -4l-2.5 -5q0 -82 13 -156q4 -19 -29 -29q-46 -14 -91 0q-22 8 -27 20q-15 42 -23 87.5t-7 103t3 90t9.5 104.5t9.5 90q11 116 17.5 169t28 148t53.5 160q7 14 49.5 13t44.5 -18zM258 543q-30 -62 -44 -93
q51 31 83 69q25 30 56 97t19 101q-15 -11 -29.5 -27t-27.5 -38t-21 -37t-20.5 -40.5t-15.5 -31.5z" />
    <glyph glyph-name="l" unicode="l" horiz-adv-x="484" 
d="M18 320q-11 123 -5 284t40 280q72 261 241 270q11 2 34 -6q6 -2 5 -4q29 -7 42.5 -27.5t14 -45.5t-0.5 -55q-20 -319 -230 -636q-2 -87 12.5 -147t59.5 -84q17 -9 29 -12t26.5 6.5t18 12.5t24.5 25q20 20 39 47q36 49 75 165q1 2 14 2t14 -2q13 -67 -12 -137t-81 -119
t-125 -56q-108 -11 -168.5 58t-66.5 181zM179 807q-12 -93 -14 -259q56 120 82 190q40 109 63 207q5 22 8.5 48t4 58.5t-12 50t-37.5 10.5q-11 -11 -21 -25t-18 -32.5t-14 -34t-11.5 -39.5t-9 -37t-7.5 -39.5t-5 -35t-4.5 -35t-3.5 -27.5z" />
    <glyph glyph-name="m" unicode="m" horiz-adv-x="922" 
d="M101 758q13 15 57 16t49 -21q9 -54 -14.5 -167t-24.5 -123v-3q32 77 88 188q4 7 17.5 36t20 41t20.5 37t26 37.5t29 28t36.5 23t41.5 8.5q21 1 36.5 -3.5t24.5 -17t14.5 -22.5t7.5 -32t2.5 -32.5t0 -37t-0.5 -33.5q0 -83 -7 -200q78 200 197 273q11 7 33.5 7t33.5 -7
q22 -14 36 -39t19 -61.5t6.5 -63.5t1 -69.5t-0.5 -54.5q0 -11 -1.5 -65.5t0 -100t7 -99t24 -87t47.5 -39.5q42 -8 14 -22q-30 -15 -64 -13q-3 1 -5 1q-28 5 -49.5 16t-35 29t-22.5 37t-14.5 45t-8 47.5t-5.5 50.5q-1 8 -1 12q-9 82 -13 246q0 7 6 69t5 95q-6 0 -8 1
q-6 -8 -8 -10v-1q-1 0 -2 -1q-44 -55 -118 -204q-17 -34 -92 -217q-1 -16 -4 -49t-5 -49q-1 -13 -27.5 -17.5t-51.5 1t-25 17.5q9 166 26 374q2 26 9 88.5t9 95.5v18.5t-1 31.5t-3.5 34t-5.5 11q-16 -9 -31.5 -27t-23.5 -31.5t-22.5 -40.5t-18.5 -34q-28 -53 -80 -163
q-23 -51 -67 -153q-3 -10 -7 -30q-3 -16 -7 -46t-8.5 -55t-11.5 -45q-1 -3 -6 -6l-1 -1q0 -2 -1 -2q-7 -17 -50.5 -16.5t-52.5 16.5q-1 1 -3 4q-3 3 -7 9q-7 19 -12 41q-4 16 -6.5 32t-3 37t-1 32.5t1.5 38t2.5 32t4.5 36.5l3 31q8 71 12.5 105t22.5 91t47 91z" />
    <glyph glyph-name="n" unicode="n" horiz-adv-x="591" 
d="M487 86q-21 41 -36.5 82.5t-22.5 92.5t-12 84t-3 96t2.5 86t6 97t6.5 89v5.5v12t-0.5 16t-1 17.5t-1 17.5t-1.5 14t-2.5 10t-3.5 2.5q-13 -7 -25 -18.5t-22.5 -27.5t-17 -27.5t-17 -32.5t-14.5 -28q-38 -69 -80 -162q-11 -25 -34 -76t-34 -77l-6 -30q-3 -14 -10.5 -67
t-16.5 -80q-1 -2 -6 -5l-2 -4q-7 -17 -51 -15.5t-53 16.5q0 2 -2 4q-6 6 -7 9q-5 13 -13 41q-9 35 -9.5 84.5t1.5 71.5t9 83q6 52 9 77t12.5 70.5t24.5 79t37 60.5q13 15 57 15.5t49 -21.5q8 -53 -15 -166t-24 -124v-2q31 72 87 188q3 7 17 36t20.5 41t20.5 36.5t26 37
t29 28t36.5 23t41.5 8.5q18 1 32.5 -3t23.5 -10.5t15 -20t9.5 -23.5t5 -29.5t1.5 -30t-0.5 -32t-0.5 -29.5q0 -34 -2 -104q2 -38 -0.5 -111t-1.5 -105q2 -69 4 -99t15 -87t37 -90q6 -8 -22 -9l-34 1q-16 4 -31 14z" />
    <glyph glyph-name="o" unicode="o" horiz-adv-x="608" 
d="M178 134q-55 -1 -98 48.5t-62.5 114t-16.5 119.5q4 75 29.5 150.5t70.5 129.5q37 44 81 62q11 4 50.5 8.5t66.5 -0.5q31 3 59 -2q64 -11 104 -57t52 -108.5t7 -130t-26 -129.5q48 -3 76 19q17 14 64 6q28 -4 27 -13l-4 -5q-68 -49 -176 -41q-13 -29 -32 -58
q-35 -48 -90 -78.5t-116 -37.5q-26 -3 -66 3zM258 638q-12 -61 5 -121q23 -83 99 -131q25 -16 55 -28q1 4 3.5 11.5t3.5 11.5q36 146 -21 268q-9 31 -30 53q-15 0 -46 2t-46 2q-12 -7 -23 -68zM179 502q-10 -58 -13 -114t10 -122.5t47 -101.5q6 0 10 -1q35 7 71 30.5
t56 49.5q25 32 43 76q-63 17 -115.5 50t-81.5 76q-19 32 -27 57z" />
    <glyph glyph-name="p" unicode="p" horiz-adv-x="546" 
d="M154 725q11 -49 12.5 -112.5t-3 -115t-10 -120.5t-6.5 -112q69 231 86 281q1 4 8 24.5t11.5 32t13 33.5t16.5 35t19 31t22.5 27.5t24.5 17t29 7t32 -8.5t28 -25.5t18 -34t10 -46t5 -43.5t1.5 -45t0.5 -34q8 -184 -49 -285q-51 -90 -139 -100q-31 -4 -60.5 2t-44.5 25
q-5 -24 -16 -72.5t-16 -72.5q2 -148 1 -223q0 -18 -31 -28t-63 -4t-36 24q-47 233 -27 507q0 6 3 47t4 51.5t4 47.5t6 52t7.5 47.5t10 51.5t13 45.5t17 48t20.5 42.5q6 10 40.5 12.5t37.5 -10.5zM219 330q-20 -82 -29 -123q35 4 40 -4q55 -73 105 58q32 84 39 167q1 5 1 8
q4 20 3 126.5t-18 148.5q-23 -26 -42.5 -62.5t-35 -84.5t-25 -80.5t-22.5 -86.5t-16 -67z" />
    <glyph glyph-name="q" unicode="q" horiz-adv-x="620" 
d="M454 248q-10 -92 -14 -165q67 138 187 281q9 11 44 2q10 -3 10 -5q-115 -137 -182 -285q-21 -46 -60 -172q2 -76 -6 -120q-5 -28 -60.5 -30t-68.5 23q-28 54 -40 120t-8 147t9.5 129.5t18.5 132.5q9 52 16 86q-3 -6 -15 -29t-17 -32.5t-16 -29.5t-18.5 -31t-18 -26.5
t-21 -26.5t-21.5 -20q-49 -42 -107.5 -20t-68.5 87q-15 102 33 240t125 201q42 33 96 30q41 -3 56 -19.5t30 -58.5q1 -3 1.5 -5.5t1.5 -4.5q-13 -2 -14 0q-14 17 -26 27.5t-20.5 17t-18.5 4t-15 -3t-14.5 -11.5t-12 -14.5t-13 -20t-12.5 -20.5q-43 -69 -68 -144
q-51 -159 -33 -219q6 -22 12.5 -31t16 -2t13.5 12.5t16 24.5q2 3 3 4t2 3.5t2.5 4t2.5 3.5q12 18 58 90q76 122 133 231q9 37 16.5 56.5t26.5 41t50 33.5q5 4 15.5 0.5t15.5 -6t14 -8.5l12 -8q8 -5 9 -13q-6 -89 -29.5 -254.5t-27.5 -196.5z" />
    <glyph glyph-name="r" unicode="r" horiz-adv-x="459" 
d="M411 555q-7 -16 -53 -12q-41 5 -40 19l1 2q6 10 18 51.5t18 85t-17 47.5q-5 0 -11 -7t-13 -19.5t-14 -26.5t-14.5 -31.5t-12.5 -29.5t-10 -25.5t-6 -15.5q-25 -60 -35.5 -88t-24 -78.5t-15.5 -93.5q-1 -23 3 -75.5t1 -80.5q-2 -22 -25.5 -31.5t-49.5 -8.5t-43 8
q-66 25 -64 150v70t0.5 81t4 73t10 80t18.5 67.5t30 68.5q10 17 56 16t50 -22q11 -59 11 -144q1 2 3 8q1 2 13.5 36t18.5 47t19.5 38t28.5 39t32 21q52 19 81.5 0.5t40 -58t7.5 -84t-17 -77.5z" />
    <glyph glyph-name="s" unicode="s" horiz-adv-x="422" 
d="M210 607l2 3q4 10 15 25t17 28.5t4 28.5q-2 11 -8 15q-2 1 -13 1q-35 -6 -58 -31.5t-30.5 -59.5t-9.5 -71.5t5 -66.5q15 -90 101 -196q2 1 8 3q86 37 172 47q12 2 32 -4q2 -2 1 -3q-150 -49 -193 -68q4 -4 6 -7q158 -186 24 -265q-45 -24 -103.5 -17t-99.5 37
q-37 27 -47 60t3.5 64t38.5 58t59 47q-28 37 -47 70q-14 19 -19 25q-39 59 -53 116q-15 67 14.5 143.5t82.5 123.5q21 19 57 29.5t71 9t60.5 -22t25.5 -58.5q0 -31 -17.5 -52.5t-46.5 -27.5q-48 -5 -52 9q-1 1 -1.5 3.5t-0.5 3.5zM164 197q-16 -16 -25 -26t-20 -28.5
t-10.5 -34t3.5 -40.5q5 -18 19 -36.5t32 -29.5t37.5 -2t32.5 42q12 28 -15 86q-18 18 -54 69z" />
    <glyph glyph-name="t" unicode="t" horiz-adv-x="294" 
d="M301 -16l28 -2l1 -1q-17 -18 -47.5 -22.5t-57 0t-52.5 13.5q-72 26 -105.5 85.5t-47.5 149.5q-25 158 -10 494q1 9 1 29q-56 -18 -68 -22q-14 -5 -54 2q-21 4 -20 10q0 2 5 5q57 34 139 49q3 80 7.5 132t25 118.5t55.5 104.5q9 11 43.5 11t40.5 -15q10 -27 11 -64
t-3.5 -67t-11 -71t-8.5 -65q-4 -51 -5 -74q98 -2 121 -39q2 -3 -2 -4.5t-11 -2.5l-6 -1q-29 -2 -104 7q-1 -30 -2 -63.5t-2 -74t-2 -62.5q0 -10 -1.5 -44.5t-2.5 -68.5t-1 -82t3 -90t8 -87.5t16.5 -80.5t26.5 -62.5t38.5 -39t53.5 -5.5z" />
    <glyph glyph-name="u" unicode="u" horiz-adv-x="537" 
d="M207 197q11 10 19.5 23t14 22.5t11.5 27t8 24.5t8 29t7 27q13 48 20 130.5t22.5 150.5t54.5 120q6 8 45 6t44 -10q29 -49 33 -104t-5 -128.5t-8 -111.5q0 -12 -0.5 -63.5t1.5 -81.5t7.5 -73t21 -74t39.5 -49q3 -2 -1 -4t-6 -2q-155 -37 -206 157q-6 21 -16 65
q-11 -45 -43 -78t-70.5 -45t-81.5 1.5t-74 53.5q-22 28 -32.5 71.5t-12 70.5t-1.5 80q-2 134 30 265q8 30 18 41q18 22 40 11q21 -10 17 -57q-25 -230 -16 -353q8 -80 30 -121q23 -44 56 -37q10 2 26 16z" />
    <glyph glyph-name="v" unicode="v" horiz-adv-x="504" 
d="M12 749q8 18 52.5 17.5t53.5 -17.5q22 -39 34.5 -87.5t24 -117.5t16.5 -94q1 -3 8 -38t12.5 -60t14.5 -56.5t18 -48t17 -13.5q33 12 77 153q18 58 28 125q4 27 4 78.5t5 93t20 72.5q3 7 24 7t24 -7q18 -35 22 -86.5t-5.5 -106.5t-22 -101.5t-27.5 -89.5
q-14 -39 -26.5 -67t-33.5 -62t-49 -53.5t-62 -22.5q-71 -7 -117.5 42t-69.5 126q-48 163 -57 233q-15 111 15 181z" />
    <glyph glyph-name="w" unicode="w" horiz-adv-x="724" 
d="M13 361q-1 66 -3 128.5t11.5 131t42.5 118.5q9 15 51.5 16t48.5 -16q18 -51 23 -117.5t1 -121.5t-1.5 -122.5t16.5 -118.5q3 -25 17 -49l16 8q16 22 41 107q11 39 23 115.5t21 110.5q2 8 30 8t29 -8q2 -12 4 -36q10 -34 15 -99.5t9 -88.5q0 -1 3 -19t5.5 -27.5t7 -24.5
t10.5 -24t13 -13q29 -14 55 18.5t40 68.5q72 183 18 445q-2 11 34 13q39 1 45 -13q21 -60 29 -149t0 -182t-51 -164.5t-116 -84.5q-60 -11 -103 16.5t-65 81.5q-72 -143 -195 -124q-31 5 -54 20.5t-35.5 34.5t-20.5 48.5t-11 54t-4 58.5z" />
    <glyph glyph-name="x" unicode="x" horiz-adv-x="418" 
d="M501 93q5 -1 6.5 -3t0 -4t-6.5 -3q-89 -19 -187 16.5t-158 106.5q-8 9 -17 22q-24 -56 -39 -81q-4 -6 -28 -5.5t-26 7.5q-17 71 35 190q-18 50 -33 108l-9.5 38t-10 43.5t-7.5 41t-5 45t1.5 40t8.5 40.5t18 33q8 9 33.5 8.5t34.5 -8.5q52 -48 83 -165q66 109 136 153
q9 7 39 1q8 -2 8 -4q-69 -94 -153 -257q-1 -3 -3 -7q11 -48 24 -85q86 -225 255 -271z" />
    <glyph glyph-name="y" unicode="y" horiz-adv-x="769" 
d="M827 336q1 1 5 1t4 -1q-4 -16 -27.5 -31.5t-58.5 -30t-43 -19.5q-7 -4 -59 -38q10 -142 -15 -257q-14 -68 -55.5 -123t-102.5 -83q-39 -18 -85.5 -27t-96 0t-72.5 44q-48 74 71 211q53 61 177 167q0 8 -1.5 29.5t-1.5 29.5q-1 43 -17 192q-73 -151 -175 -232
q-36 -28 -84 -41t-90 -2q-28 7 -46.5 24t-27 42.5t-11.5 48t-4 52.5q-6 153 16 283q20 114 78 148q21 12 34 5q21 -9 12 -52q-2 -11 -10 -45.5t-10.5 -48t-9 -44.5t-9 -48t-6.5 -45t-5 -48.5t-1 -45.5t2 -48q10 -133 70 -132q16 0 33 11.5t26.5 22.5t25.5 32t20 26
q133 166 159 285q3 14 5 52.5t8 69.5t21 46q14 12 45.5 12.5t42.5 -14.5q13 -20 24 -44t18 -44t13.5 -51.5t9.5 -48.5t6.5 -53.5t4.5 -49t3.5 -52.5t2.5 -48t1.5 -24.5t2.5 -25.5q97 52 183 63zM464 -53q2 14 0.5 37.5t0 50t6.5 31.5q-11 -12 -43.5 -45t-48.5 -51t-38 -47.5
t-36 -56.5q-13 -26 -12.5 -49.5t14.5 -35.5q21 -14 57 -2q42 13 68 61q20 37 32 107z" />
    <glyph glyph-name="z" unicode="z" horiz-adv-x="645" 
d="M280 151q-56 30 -128 10q-10 -17 -44 -24t-66 2t-34 32q-3 29 5.5 60.5t32.5 69t38 57.5t49.5 62.5t39.5 47.5q92 114 151 175q-74 -22 -130 -25q-20 -1 -42 0.5t-49.5 6.5t-45.5 18.5t-18 34.5q0 7 26 7t30 -5q20 -23 52 -29t74 4.5t73.5 21.5t77.5 31.5t57 24.5
q18 6 59 2q37 -5 29 -21q-31 -50 -98.5 -138.5t-94.5 -128.5q-60 -91 -138 -227q29 2 41 1q48 -1 120 -30q14 -6 37.5 -21t37 -21t40.5 -2.5t60 23.5q18 11 46 44t34 39q7 6 32 6t28 -9q17 -60 -41.5 -99.5t-126.5 -47.5q-77 -8 -150 17q-16 6 -64 31z" />
    <glyph glyph-name="braceleft" unicode="{" horiz-adv-x="537" 
d="M420 13q-50 -36 -107.5 -34t-109.5 37t-72 87q-7 19 -12 39.5t-5.5 46t-0.5 41.5t4 47.5t5.5 41.5t7.5 46.5t7 40.5q22 117 23 143q0 10 -10 50.5t-19 63.5q-25 -12 -64.5 -9.5t-58.5 21.5l-10 10q-6 7 -1 14q3 13 14.5 42t14.5 46q19 101 39 190q46 204 90 357
q14 50 37.5 83.5t51 50.5t66 22.5t75.5 2t88 -13.5q11 -2 -2 -5q-4 -1 -7 -1q-11 0 -40.5 0.5t-45.5 -0.5t-38 -9.5t-36 -24.5q-7 -8 -12 -19t-8.5 -25.5t-5 -23.5t-3.5 -27t-3 -23q-5 -40 -14 -129.5t-15 -137.5q-18 -149 -41 -267q-12 -58 -20 -75q80 -32 97 -117
q7 -26 4.5 -67.5t-7.5 -69.5t-12.5 -69.5t-10.5 -67.5q-11 -109 -5 -151q3 -20 9.5 -43t18.5 -47.5t32 -37t44 -6.5q18 5 54 -3q31 -6 14 -20z" />
    <glyph glyph-name="bar" unicode="|" horiz-adv-x="273" 
d="M23 351q-8 147 -8 332q2 215 10 351q1 10 3 57t4.5 68t8.5 58t17.5 64t29.5 48q8 9 37 9t35 -9q19 -30 26 -73.5t6 -76.5t-5 -88.5t-5 -76.5q-8 -165 -6 -331q1 -165 11 -352q1 -20 9 -91.5t6 -119.5t-18 -87q-9 -20 -55.5 -18.5t-57.5 18.5q-19 30 -29.5 75t-12.5 75.5
t-3.5 91t-2.5 76.5z" />
    <glyph glyph-name="braceright" unicode="}" horiz-adv-x="451" 
d="M349 215q-4 -91 -78.5 -148t-171.5 -66q-68 -3 -81 20l-7 11q-4 7 10 12q88 31 131 70.5t48 118.5q2 26 3.5 121t9.5 147q10 68 46 113q-32 6 -59 27q-22 18 -34 43t-14 58.5t-1 54t5 58.5q2 14 20 133t16 181q-2 88 -36 153q-21 38 -57 71t-70 26q-17 -5 -55 6
q-37 11 -6 22q95 33 189.5 -6t143.5 -129q62 -113 45 -291q-2 -27 -9 -82.5t-9 -83.5q-7 -65 -3 -92q13 -85 38 -88q41 -7 39 -18q0 -1 -1 -5t-2 -5l-3 -6l1 -1q3 0 5 -4q-3 -10 -15 -25t-16 -23q-6 -13 -9.5 -31t-4.5 -27.5t-2 -35.5t-1 -29q-2 -45 -3 -129t-2 -121z" />
    <glyph glyph-name="asciitilde" unicode="~" horiz-adv-x="686" 
d="M620 562q8 -4 10 -14q-15 -66 -74 -96.5t-133 -27.5q-75 3 -139 35q-9 4 -31 20.5t-33 20.5q-13 4 -28 -3.5t-26 -17t-27.5 -26.5t-22.5 -23q-15 -14 -71 -7q-37 4 -34 14l1 2q106 136 234 120q23 -3 43 -12.5t43 -24.5t39 -22q28 -9 43 -10.5t29 9.5t21.5 22t20.5 28
t27 27q14 11 45.5 11.5t45.5 -11.5z" />
    <glyph glyph-name="exclamdown" unicode="&#xa1;" horiz-adv-x="281" 
d="M158 1104q18 -34 29.5 -79.5t17 -78t6 -97t0.5 -84.5t-4 -95.5t-4 -78.5q-16 -322 -87 -542q-4 -14 -32 -19.5t-54 0t-25 19.5q3 60 19 241.5t18 281.5q3 126 0 253q-1 19 -6 83.5t-3.5 107.5t12.5 82q6 22 54.5 24t58.5 -18zM26 1423q3 21 37 31.5t69 4t41 -26.5
q22 -68 10 -164q-3 -26 -41.5 -36t-77 0t-39.5 36q-6 109 1 155z" />
    <glyph glyph-name="cent" unicode="&#xa2;" horiz-adv-x="504" 
d="M452 352q-18 -41 -57 -82t-87 -71q9 -152 -16 -248q-1 -4 -16.5 -4t-16.5 4q-30 86 -32 211q-39 -11 -65 -8q-92 7 -124.5 71.5t-27.5 167.5q3 49 13 96t29.5 94t53.5 83t79 53q35 12 69 15q5 76 17 175q0 2 11.5 2t11.5 -2q0 -30 -0.5 -88t-0.5 -87q88 -9 107 -77
q0 -2 -12 -2t-13 1q-43 43 -82 35q0 -174 1 -261q0 -15 11 -179q46 39 96 102q3 4 16 4t24.5 -1.5t10.5 -3.5zM237 430q3 101 11 230q-33 -42 -52 -119.5t-20 -130.5q-3 -31 0 -89.5t20 -84.5q12 -19 31 -21q1 38 5 110.5t5 104.5z" />
    <glyph glyph-name="sterling" unicode="&#xa3;" horiz-adv-x="955" 
d="M768 229q8 21 59 20.5t60 -20.5q12 -35 9 -63.5t-26 -53t-50.5 -43t-64 -33.5t-65.5 -23.5t-57 -14.5q-124 -24 -255 -5q-19 3 -60.5 16.5t-75 25t-73.5 17t-56 -7.5q-23 -15 -81 -1q-50 12 -48 31q1 6 11 13q23 15 39 47.5t21.5 54t13.5 73.5t9 57q18 107 30 214
q10 76 14 114q-46 -3 -86 9q-20 5 -13 18q18 38 110 53q21 149 47 247q118 458 369 350q5 -2 5 -6q-3 -20 12 -31q-1 0 -3 -0.5t-7 -1.5t-9 -1t-8 0.5t-5 1.5q-27 17 -49 16t-45 -40.5t-38.5 -75t-31 -87.5t-22 -78t-10.5 -47q-20 -100 -35 -227q54 1 109 -3q18 -1 36 -10
t15 -25q-5 -24 -70 -28q-66 -4 -99 -8l-6 -51q-33 -272 -54 -373q-19 -90 -44 -132q43 -4 111 -16t116 -20.5t107 -9.5t101 11.5t81 49t62 97.5z" />
    <glyph glyph-name="currency" unicode="&#xa4;" horiz-adv-x="393" 
d="M311 309q2 -2 4 -3.5t4.5 -3t3.5 -2.5q11 -14 3 -21.5t-25 -11.5q-47 -13 -82 8q-20 11 -32 33q-13 -4 -31 -4h-20l-1 -1q-8 -16 -16 -21q-24 -14 -62 -12q-39 2 -51 18q-15 18 14 39q10 8 28 13q-41 40 -27 102q7 30 22 54q-1 1 -4 1q-26 6 -34 19q-6 10 5 23q8 9 40 9
q33 0 39 -9l2 -2q22 6 37 6q1 4 15 7q25 5 51 0q0 2 2 2q14 11 33 16q21 6 46 4q30 -4 33 -11q5 -10 4 -17q-2 -9 -14 -21q-10 -8 -27 -10q22 -25 23 -58q3 -47 -39 -103q17 -4 26 -12q10 -8 14 -13q1 -1 3.5 -5t4.5 -6q1 0 3 -2l2 -2zM169 350q62 62 56 110q-6 44 -43 63
q-3 -6 -32 -6q-20 -11 -32 -48.5t-11 -61.5q2 -32 21 -54q13 -14 20.5 -15t20.5 12z" />
    <glyph glyph-name="yen" unicode="&#xa5;" horiz-adv-x="955" 
d="M855 1345q12 9 53 6q25 -4 23 -12q-55 -96 -176 -281.5t-176 -280.5q44 -6 80 -16q26 -7 29 -18t-12 -19q10 -8 14 -12q6 -6 -21 -8q-5 -1 -7 -1q-38 0 -114 12q-13 -34 -19 -56q56 -5 92 -15q27 -9 27 -23q3 -2 8 -5t9 -5.5t7 -4.5q5 -4 -6.5 -7.5t-16.5 -3.5
q-33 -2 -58 1q-35 -4 -78 -4q-19 -97 -19 -284t-8 -258q-3 -25 -41 -35t-75 0t-39 35q-6 32 -4.5 107t3.5 109t7 109t7 108q4 62 12 118q-4 0 -22 1t-24 1.5t-22 1.5t-24 2.5t-22.5 3t-23.5 4t-21 5t-22.5 6.5t-20.5 8q-17 9 -12.5 17t22.5 11h1q7 11 40 11q99 0 165 -6
q1 4 3.5 11.5t3.5 11.5q-28 12 -60 34q-22 0 -33 -1q-26 -1 -73 -5q-4 0 -18 2h-9q-31 0 -49 15q-19 15 20 26q54 14 96 19q-61 62 -118 148q-21 32 -41 66t-44 84t-37 93.5t-13.5 87.5t18.5 73q1 0 3.5 -0.5t4.5 -0.5q14 8 38 10t38 -9q21 -22 34 -56t23.5 -78t18.5 -66
q34 -87 82 -161q57 -92 136 -166q5 -5 15 -13q2 0 6 -0.5t7 -0.5q1 3 3.5 7.5t3.5 6.5q125 212 186 295q113 155 240 245z" />
    <glyph glyph-name="brokenbar" unicode="&#xa6;" horiz-adv-x="273" 
d="M181 480q1 -73 6 -149q1 -21 7 -76q6 -49 8 -115q1 -58 -18 -107q-7 -13 -31 -16q-21 -4 -48 1q-25 4 -34 15q-30 50 -38 120q-8 72 -8 133q0 11 -0.5 32.5t-1.5 32.5q-4 84 -5 126q51 4 115 4q32 0 48 -1zM16 557q-1 42 -1 126q0 184 10 351q1 7 1.5 21.5t0.5 21.5
q1 60 13 135q10 68 48 117q7 7 22 8q20 2 30 1q16 -2 20 -9q31 -52 32 -116q2 -66 -6 -131q-2 -22 -4 -68q-7 -165 -6 -331l2 -121q-25 0 -37 -1h-27q-32 0 -98 -4z" />
    <glyph glyph-name="dieresis" unicode="&#xa8;" horiz-adv-x="393" 
d="M44 1351q-29 7 -32 22q-18 69 4 102q12 19 60 21q48 0 60 -21q6 -13 11 -54q2 -16 3 -23q0 -2 1 -7t1 -8q1 -30 -62 -37q-22 -1 -46 5zM243 1351q-29 7 -32 22q-20 67 4 102q12 19 60 21q48 0 60 -21q6 -13 11 -54q2 -16 3 -23q1 -5 1 -15q2 -30 -61 -37q-22 -1 -46 5z
" />
    <glyph glyph-name="logicalnot" unicode="&#xac;" horiz-adv-x="781" 
d="M712 275q0 -16 -17 -27t-40.5 -13.5t-47.5 0t-40.5 13.5t-16.5 27q2 83 0 165q-40 0 -120 -1t-120 -1q-17 0 -67.5 -1.5t-76 -1.5t-64.5 4.5t-71 15.5q-10 3 -13 9t0.5 11.5t12.5 8.5q29 11 65 16.5t60.5 7t70 1.5t63.5 1l339 9q25 0 52 -9t28 -30q4 -102 3 -205z" />
    <glyph glyph-name="macron" unicode="&#xaf;" horiz-adv-x="1000" 
d="M12 1431q-26 3 -35.5 12.5t0.5 19.5t35 14q41 7 92.5 10.5t79.5 4.5t98.5 2t84.5 1q18 0 61.5 2t68 2t60 -2t65.5 -10.5t57 -22.5q11 -9 6 -17t-16 -13q-32 -15 -74.5 -21t-71.5 -5.5t-83 3.5t-73 4q-32 1 -110.5 2t-135 4t-109.5 10z" />
    <glyph glyph-name="degree" unicode="&#xb0;" horiz-adv-x="1000" 
d="M107 1487q54 9 101.5 -16t50.5 -79q1 -54 -47 -111q-31 -38 -92 -40q-65 -2 -107.5 36.5t-27.5 101.5q17 75 67 94q18 7 40 8q2 5 15 6zM146 1461q-3 -7 -32 -7q-20 -11 -32 -48.5t-11 -60.5q3 -34 21 -54q13 -15 20.5 -15.5t20.5 11.5q63 65 56 111q-7 44 -43 63z" />
    <glyph glyph-name="plusminus" unicode="&#xb1;" horiz-adv-x="728" 
d="M643 708q-19 -3 -41 -5t-37.5 -2.5t-42 0t-37 1t-42.5 3t-39 2.5q-6 1 -19 1.5t-20 0.5v-22q0 -117 6 -236q1 -12 4 -49t3.5 -54t-3.5 -45t-14 -51q-6 -14 -43.5 -13t-45.5 13q-25 38 -37 100.5t-13 105.5t2 127t3 102v26q-129 -4 -195 -50q-17 -12 -64 -4q-32 5 -29 16
q1 3 5 6q35 26 91 42t90.5 19.5t102.5 7.5q2 101 8 172q1 10 2.5 53.5t6.5 72.5t18 49q12 19 48.5 19t53.5 -8q15 -10 17 -11h3q0 -1 -1 -2l2 -1q1 -5 -4 -8q-15 -68 -18 -163.5t1 -167.5q131 0 266 -14q28 -3 34 -17q4 -9 -13 -14q-4 -1 -9 -2zM589 107q-36 -9 -74.5 -10.5
t-91 1.5t-75.5 3q-36 0 -139.5 -5.5t-160.5 -2.5q-24 1 -41 17q-18 17 12 28q104 37 310 43q7 0 44 0.5t49.5 0.5t44 -1.5t49.5 -4.5t42.5 -9.5t43.5 -16.5q22 -13 16 -24.5t-29 -18.5z" />
    <glyph glyph-name="acute" unicode="&#xb4;" horiz-adv-x="215" 
d="M132 1493q13 5 26 -1.5t15 -23.5q1 -11 -2 -24.5t-7.5 -25t-14.5 -27.5t-16.5 -25.5t-20 -26t-18.5 -22t-18 -21.5l-14 -15q-17 -20 -40 -11.5t-29.5 31t7.5 44.5q2 3 32.5 45t54.5 68t45 35z" />
    <glyph glyph-name="periodcentered" unicode="&#xb7;" horiz-adv-x="236" 
d="M48 451q-10 2 -23.5 9.5t-15.5 16.5q-22 80 6 121q15 23 70 25q58 0 71 -25q7 -13 14 -64q2 -18 3 -28q2 -10 2 -18q1 -20 -23 -30.5t-50 -12.5q-27 -1 -54 6z" />
    <glyph glyph-name="periodcentered" unicode="&#x2219;" horiz-adv-x="236" 
d="M48 451q-10 2 -23.5 9.5t-15.5 16.5q-22 80 6 121q15 23 70 25q58 0 71 -25q7 -13 14 -64q2 -18 3 -28q2 -10 2 -18q1 -20 -23 -30.5t-50 -12.5q-27 -1 -54 6z" />
    <glyph glyph-name="questiondown" unicode="&#xbf;" horiz-adv-x="608" 
d="M347 1416q3 21 37 31.5t69 4t41 -26.5q22 -68 10 -164q-3 -26 -41.5 -36t-77 0t-39.5 36q-6 108 1 155zM55 491q52 98 176 302q4 6 21 34.5t23 38t20 36t19 40.5t13.5 38t10 42t0.5 40t-6 43q-12 45 42 65q52 19 104 -2q40 -15 47 -48q6 -29 5.5 -60t-3.5 -54.5
t-17 -56.5t-21.5 -50t-30 -53t-30 -47t-33.5 -49q-29 -42 -85 -117t-100 -138t-78 -122q-23 -40 -31.5 -93.5t0.5 -102.5t34 -88.5t68.5 -51.5t105.5 9q53 19 93 72t48 113t-23 114q13 9 35 12t35 -7q96 -107 36 -215q-46 -82 -158 -127q-125 -50 -234 -16q-39 12 -69 34
q-56 42 -80 100.5t-16.5 123.5t27.5 122.5t52 118.5z" />
    <glyph glyph-name="Agrave" unicode="&#xc0;" horiz-adv-x="992" 
d="M280 342q-52 -14 -93.5 -18.5t-77.5 1.5t-60 28.5t-33 62.5q-3 11 35 14q47 4 52 -14q19 -68 185 -18q1 7 3.5 22.5t4.5 22.5q28 172 103 364q77 198 183 372q65 107 98 142q34 38 45 41q9 3 34 5.5t35 -2.5q8 3 21 2t16 -5q24 -41 25 -99t-12 -138.5t-15 -106.5
q-11 -198 -7 -371q1 -15 1.5 -44t0.5 -44q109 8 150 -48q6 -9 -22 -13q-42 -6 -55 3q-26 18 -71 16q5 -160 26 -268q12 -69 62 -215t61 -188q4 -16 -48 -12q-29 3 -36 8q-109 97 -166.5 273t-68.5 362q-47 -16 -140.5 -52t-130.5 -50q-16 -91 -23 -177q-2 -19 -2.5 -60
t-3.5 -72t-12 -58q-2 -5 -21.5 -5t-21.5 5q-51 110 -21 334zM502 797q-69 -178 -106 -364q185 68 258 90q-2 34 -4 106q-4 273 14 407q10 78 20 126q-21 -33 -25 -40q-94 -164 -157 -325zM714 1629q21 -9 45 -35t53.5 -67.5t32.5 -45.5q16 -20 7 -44.5t-29 -31t-40 11.5
l-13 15q-14 16 -19 21.5t-18.5 22t-20 26t-16.5 25.5t-14.5 27.5t-7.5 25t-2 24.5q2 17 15.5 23.5t26.5 1.5z" />
    <glyph glyph-name="Aacute" unicode="&#xc1;" horiz-adv-x="992" 
d="M280 342q-52 -14 -93.5 -18.5t-77.5 1.5t-60 28.5t-33 62.5q-3 11 35 14q47 4 52 -14q19 -68 185 -18q1 7 3.5 22.5t4.5 22.5q28 172 103 364q77 198 183 372q65 107 98 142q34 38 45 41q9 3 34 5.5t35 -2.5q8 3 21 2t16 -5q24 -41 25 -99t-12 -138.5t-15 -106.5
q-11 -198 -7 -371q1 -15 1.5 -44t0.5 -44q109 8 150 -48q6 -9 -22 -13q-42 -6 -55 3q-26 18 -71 16q5 -160 26 -268q12 -69 62 -215t61 -188q4 -16 -48 -12q-29 3 -36 8q-109 97 -166.5 273t-68.5 362q-47 -16 -140.5 -52t-130.5 -50q-16 -91 -23 -177q-2 -19 -2.5 -60
t-3.5 -72t-12 -58q-2 -5 -21.5 -5t-21.5 5q-51 110 -21 334zM502 797q-69 -178 -106 -364q185 68 258 90q-2 34 -4 106q-4 273 14 407q10 78 20 126q-21 -33 -25 -40q-94 -164 -157 -325zM831 1629q13 5 26 -1.5t15 -23.5q1 -11 -2 -24.5t-7.5 -25t-14.5 -27.5t-16.5 -25.5
t-20 -26t-18.5 -22t-19 -21.5l-13 -15q-17 -20 -40 -11.5t-29.5 31t7.5 44.5q2 3 32.5 45t54.5 68t45 35z" />
    <glyph glyph-name="Acircumflex" unicode="&#xc2;" horiz-adv-x="992" 
d="M280 342q-52 -14 -93.5 -18.5t-77.5 1.5t-60 28.5t-33 62.5q-3 11 35 14q47 4 52 -14q19 -68 185 -18q1 7 3.5 22.5t4.5 22.5q28 172 103 364q77 198 183 372q65 107 98 142q34 38 45 41q9 3 34 5.5t35 -2.5q8 3 21 2t16 -5q24 -41 25 -99t-12 -138.5t-15 -106.5
q-11 -198 -7 -371q1 -15 1.5 -44t0.5 -44q109 8 150 -48q6 -9 -22 -13q-42 -6 -55 3q-26 18 -71 16q5 -160 26 -268q12 -69 62 -215t61 -188q4 -16 -48 -12q-29 3 -36 8q-109 97 -166.5 273t-68.5 362q-47 -16 -140.5 -52t-130.5 -50q-16 -91 -23 -177q-2 -19 -2.5 -60
t-3.5 -72t-12 -58q-2 -5 -21.5 -5t-21.5 5q-51 110 -21 334zM502 797q-69 -178 -106 -364q185 68 258 90q-2 34 -4 106q-4 273 14 407q10 78 20 126q-21 -33 -25 -40q-94 -164 -157 -325zM776 1492q-9 -17 -18 -28q-39 -54 -67 -83q-1 -1 -4 -4.5t-5 -5.5q-20 -20 -40 -11
q-21 8 -29 31q-9 22 7 44q18 23 25 34q16 23 52 67q27 33 55 47q12 5 24 0q12 5 25 0q29 -15 55 -47q30 -37 51 -67q7 -11 25 -34q16 -21 8 -44q-9 -23 -29 -31q-21 -9 -41 11q-1 2 -4 5.5t-5 4.5q-28 29 -67 83q-9 11 -18 28z" />
    <glyph glyph-name="Atilde" unicode="&#xc3;" horiz-adv-x="992" 
d="M280 342q-52 -14 -93.5 -18.5t-77.5 1.5t-60 28.5t-33 62.5q-3 11 35 14q47 4 52 -14q19 -68 185 -18q1 7 3.5 22.5t4.5 22.5q28 172 103 364q77 198 183 372q65 107 98 142q34 38 45 41q9 3 34 5.5t35 -2.5q8 3 21 2t16 -5q24 -41 25 -99t-12 -138.5t-15 -106.5
q-11 -198 -7 -371q1 -15 1.5 -44t0.5 -44q109 8 150 -48q6 -9 -22 -13q-42 -6 -55 3q-26 18 -71 16q5 -160 26 -268q12 -69 62 -215t61 -188q4 -16 -48 -12q-29 3 -36 8q-109 97 -166.5 273t-68.5 362q-47 -16 -140.5 -52t-130.5 -50q-16 -91 -23 -177q-2 -19 -2.5 -60
t-3.5 -72t-12 -58q-2 -5 -21.5 -5t-21.5 5q-51 110 -21 334zM502 797q-69 -178 -106 -364q185 68 258 90q-2 34 -4 106q-4 273 14 407q10 78 20 126q-21 -33 -25 -40q-94 -164 -157 -325zM995 1501q6 -3 8 -11q-12 -51 -57.5 -74.5t-103.5 -20.5q-55 1 -107 26q-6 3 -23 16
t-27 16q-12 4 -24.5 -3t-34.5 -29l-21 -22q-13 -12 -59 -5q-24 5 -22 12q84 105 181 93q18 -2 34 -9.5t33.5 -19t29.5 -17.5q22 -13 40 -7t24.5 14t19.5 25.5t25 26.5q11 8 35.5 8.5t35.5 -8.5z" />
    <glyph glyph-name="Adieresis" unicode="&#xc4;" horiz-adv-x="992" 
d="M280 342q-52 -14 -93.5 -18.5t-77.5 1.5t-60 28.5t-33 62.5q-3 11 35 14q47 4 52 -14q19 -68 185 -18q1 7 3.5 22.5t4.5 22.5q28 172 103 364q77 198 183 372q65 107 98 142q34 38 45 41q9 3 34 5.5t35 -2.5q8 3 21 2t16 -5q24 -41 25 -99t-12 -138.5t-15 -106.5
q-11 -198 -7 -371q1 -15 1.5 -44t0.5 -44q109 8 150 -48q6 -9 -22 -13q-42 -6 -55 3q-26 18 -71 16q5 -160 26 -268q12 -69 62 -215t61 -188q4 -16 -48 -12q-29 3 -36 8q-109 97 -166.5 273t-68.5 362q-47 -16 -140.5 -52t-130.5 -50q-16 -91 -23 -177q-2 -19 -2.5 -60
t-3.5 -72t-12 -58q-2 -5 -21.5 -5t-21.5 5q-51 110 -21 334zM502 797q-69 -178 -106 -364q185 68 258 90q-2 34 -4 106q-4 273 14 407q10 78 20 126q-21 -33 -25 -40q-94 -164 -157 -325zM639 1405q-29 7 -32 22q-18 69 4 102q12 19 60 21q48 0 60 -21q6 -13 11 -54
q2 -16 3 -23q1 -2 1 -7t1 -8q1 -30 -62 -37q-22 -1 -46 5zM838 1405q-29 7 -32 22q-20 67 4 102q12 19 60 21q48 0 60 -21q6 -13 11 -54q2 -16 3 -23q1 -5 1 -15q2 -30 -61 -37q-22 -1 -46 5z" />
    <glyph glyph-name="Aring" unicode="&#xc5;" horiz-adv-x="992" 
d="M280 342q-52 -14 -93.5 -18.5t-77.5 1.5t-60 28.5t-33 62.5q-3 11 35 14q47 4 52 -14q19 -68 185 -18q1 7 3.5 22.5t4.5 22.5q28 172 103 364q77 198 183 372q65 107 98 142q34 38 45 41q9 3 34 5.5t35 -2.5q8 3 21 2t16 -5q24 -41 25 -99t-12 -138.5t-15 -106.5
q-11 -198 -7 -371q1 -15 1.5 -44t0.5 -44q109 8 150 -48q6 -9 -22 -13q-42 -6 -55 3q-26 18 -71 16q5 -160 26 -268q12 -69 62 -215t61 -188q4 -16 -48 -12q-29 3 -36 8q-109 97 -166.5 273t-68.5 362q-47 -16 -140.5 -52t-130.5 -50q-16 -91 -23 -177q-2 -19 -2.5 -60
t-3.5 -72t-12 -58q-2 -5 -21.5 -5t-21.5 5q-51 110 -21 334zM502 797q-69 -178 -106 -364q185 68 258 90q-2 34 -4 106q-4 273 14 407q10 78 20 126q-21 -33 -25 -40q-94 -164 -157 -325zM892 1497q1 -34 -31 -75q-21 -25 -62 -27q-43 -1 -71.5 25t-18.5 68q13 50 45 63
q12 4 27 5q0 3 10 4q36 6 67.5 -10.5t33.5 -52.5zM808 1426q41 44 37 74q-3 29 -29 42q-1 -4 -21 -4q-13 -7 -21 -32t-7 -41q0 -20 14 -36q8 -10 13 -10.5t14 7.5z" />
    <glyph glyph-name="AE" unicode="&#xc6;" horiz-adv-x="1315" 
d="M1385 1287q-58 -8 -175 2.5t-174 3.5q-53 -7 -158 -41q2 -71 1 -97.5t-10 -98.5t-11 -93q-16 -212 -19 -273q152 51 268 -5q10 -8 2.5 -14t-17.5 -7q-16 -2 -96.5 -6.5t-122.5 -20.5q-28 -12 -36 -16v-4q-1 -21 -1 -61h6q-3 -21 -3 -43h-2q5 -134 33 -239
q34 -131 81 -175q69 -64 234 19q3 1 16.5 2t26 -0.5t11.5 -5.5q-11 -43 -45.5 -71.5t-78 -38.5t-92.5 -12.5t-89 6.5q-157 28 -226 215q-1 2 -5 6q-2 14 -4 20q-5 15 -10 35q-25 90 -35 196q-41 -15 -128.5 -49t-130.5 -49q-16 -95 -23 -178q-2 -19 -2.5 -59.5t-3.5 -72
t-12 -58.5q-2 -5 -21.5 -5t-21.5 5q-51 109 -21 334q-52 -14 -93.5 -18.5t-77.5 1.5t-60 29t-34 63q-2 11 37 13q46 3 51 -13q11 -37 61.5 -39.5t123.5 20.5q1 7 3.5 22.5t4.5 23.5q25 168 102 364q77 197 184 371q61 103 98 143q34 38 45 41q8 3 34 5.5t35 -2.5q8 3 21 2
t16 -6l6 -12q12 -5 15 -14q69 16 166 25q57 5 96 7t99.5 0t109 -17t83.5 -42q10 -7 -14 -14q-12 -4 -17 -4zM512 793q-68 -178 -106 -363q206 73 237 83v45q0 7 -4 10l9 9q-1 99 11 234q2 125 15 222q0 5 1.5 15.5t2.5 16.5q3 32 13 89q-16 -24 -23 -36q-94 -166 -156 -325z
" />
    <glyph glyph-name="Ccedilla" unicode="&#xc7;" horiz-adv-x="806" 
d="M663 1055q-12 23 -2 94.5t7 97.5q-5 37 -23.5 67t-45.5 42q-41 3 -91 -29.5t-93 -82t-75 -93.5t-49 -76q-96 -180 -112 -452q-19 -323 96 -469q29 -35 58 -53q12 22 16 27q7 10 40.5 10t37.5 -13q5 -17 5 -44q21 4 44 16t41.5 25.5t40.5 36.5t36.5 39.5t35.5 45.5
t30.5 42.5t28.5 42l23 34.5q1 2 10 3t17 0t8 -3q-5 -76 -69 -149t-146 -127q-48 -32 -105 -41q-11 -47 -44.5 -86t-74.5 -52q-29 -8 -58 -2q-3 1 -6.5 2t-10 3.5t-7 5.5t1.5 7q51 51 68 84q3 7 16 39q-89 13 -152.5 63.5t-96.5 126.5t-47.5 156.5t-13.5 172.5
q3 210 61.5 396.5t191.5 300.5q63 54 176.5 102t181.5 20q41 -5 72 -26q40 -27 57.5 -88t7.5 -123t-44 -94q-4 -4 -22 -4.5t-21 5.5z" />
    <glyph glyph-name="Egrave" unicode="&#xc8;" horiz-adv-x="728" 
d="M44 516q-49 1 -58 16q-2 3 1 7q23 28 59 61q8 105 30 238q4 26 17 118t26.5 159.5t33.5 124.5q-15 1 -23.5 4t-5.5 10q17 28 56 51q12 26 32 54q11 17 56 16.5t51 -20.5q71 15 167 24q288 29 385 -51q8 -7 -8.5 -13t-23.5 -6q-58 -8 -175 2.5t-174 3.5q-49 -6 -161 -40
q0 -43 -6.5 -91t-20 -113.5t-16.5 -85.5q-32 -204 -40 -273q155 51 268 -5q17 -9 -8 -18q-6 -2 -9 -2q-14 -2 -95.5 -7t-125.5 -21q-26 -10 -38 -16v-4q-21 -195 7 -343q22 -130 67 -175q63 -63 236 19q9 5 41 2q12 -2 12 -5q-14 -43 -51 -72t-81 -39t-93.5 -12.5t-88.5 6.5
q-100 19 -150.5 90.5t-73.5 185.5q-21 107 -19 220zM425 1646q21 -9 45 -35t53.5 -67.5t32.5 -45.5q16 -20 7 -44.5t-29 -31t-40 11.5l-14 16q-13 15 -18 20.5t-18.5 22t-20 26t-16.5 25.5t-14.5 27.5t-7.5 25t-2 24.5q2 17 15.5 23.5t26.5 1.5z" />
    <glyph glyph-name="Eacute" unicode="&#xc9;" horiz-adv-x="728" 
d="M44 516q-49 1 -58 16q-2 3 1 7q23 28 59 61q8 105 30 238q4 26 17 118t26.5 159.5t33.5 124.5q-15 1 -23.5 4t-5.5 10q17 28 56 51q12 26 32 54q11 17 56 16.5t51 -20.5q71 15 167 24q288 29 385 -51q8 -7 -8.5 -13t-23.5 -6q-58 -8 -175 2.5t-174 3.5q-49 -6 -161 -40
q0 -43 -6.5 -91t-20 -113.5t-16.5 -85.5q-32 -204 -40 -273q155 51 268 -5q17 -9 -8 -18q-6 -2 -9 -2q-14 -2 -95.5 -7t-125.5 -21q-26 -10 -38 -16v-4q-21 -195 7 -343q22 -130 67 -175q63 -63 236 19q9 5 41 2q12 -2 12 -5q-14 -43 -51 -72t-81 -39t-93.5 -12.5t-88.5 6.5
q-100 19 -150.5 90.5t-73.5 185.5q-21 107 -19 220zM566 1646q13 5 26 -1.5t15 -23.5q1 -11 -2 -24.5t-7.5 -25t-14.5 -27.5t-16.5 -25.5t-20 -26t-18.5 -22t-18 -20.5l-14 -16q-17 -20 -40 -11.5t-29.5 31t7.5 44.5q2 3 32.5 45t54.5 68t45 35z" />
    <glyph glyph-name="Ecircumflex" unicode="&#xca;" horiz-adv-x="728" 
d="M44 516q-49 1 -58 16q-2 3 1 7q23 28 59 61q8 105 30 238q4 26 17 118t26.5 159.5t33.5 124.5q-15 1 -23.5 4t-5.5 10q17 28 56 51q12 26 32 54q11 17 56 16.5t51 -20.5q71 15 167 24q288 29 385 -51q8 -7 -8.5 -13t-23.5 -6q-58 -8 -175 2.5t-174 3.5q-49 -6 -161 -40
q0 -43 -6.5 -91t-20 -113.5t-16.5 -85.5q-32 -204 -40 -273q155 51 268 -5q17 -9 -8 -18q-6 -2 -9 -2q-14 -2 -95.5 -7t-125.5 -21q-26 -10 -38 -16v-4q-21 -195 7 -343q22 -130 67 -175q63 -63 236 19q9 5 41 2q12 -2 12 -5q-14 -43 -51 -72t-81 -39t-93.5 -12.5t-88.5 6.5
q-100 19 -150.5 90.5t-73.5 185.5q-21 107 -19 220zM516 1562q-9 -17 -18 -28q-39 -54 -67 -83q-1 -1 -4 -4.5t-5 -5.5q-20 -20 -40 -11q-21 8 -29 31q-9 22 7 44q18 23 25 34q16 23 52 67q27 33 55 47q12 5 24 0q12 5 25 0q29 -15 55 -47q30 -37 51 -67q7 -11 25 -34
q16 -21 8 -44q-9 -23 -29 -31q-21 -9 -41 11q-1 2 -4 5.5t-5 4.5q-28 29 -67 83q-9 11 -18 28z" />
    <glyph glyph-name="Edieresis" unicode="&#xcb;" horiz-adv-x="728" 
d="M44 516q-49 1 -58 16q-2 3 1 7q23 28 59 61q8 105 30 238q4 26 17 118t26.5 159.5t33.5 124.5q-15 1 -23.5 4t-5.5 10q17 28 56 51q12 26 32 54q11 17 56 16.5t51 -20.5q71 15 167 24q288 29 385 -51q8 -7 -8.5 -13t-23.5 -6q-58 -8 -175 2.5t-174 3.5q-49 -6 -161 -40
q0 -43 -6.5 -91t-20 -113.5t-16.5 -85.5q-32 -204 -40 -273q155 51 268 -5q17 -9 -8 -18q-6 -2 -9 -2q-14 -2 -95.5 -7t-125.5 -21q-26 -10 -38 -16v-4q-21 -195 7 -343q22 -130 67 -175q63 -63 236 19q9 5 41 2q12 -2 12 -5q-14 -43 -51 -72t-81 -39t-93.5 -12.5t-88.5 6.5
q-100 19 -150.5 90.5t-73.5 185.5q-21 107 -19 220zM350 1422q-29 7 -32 22q-18 69 4 102q12 19 60 21q48 0 60 -21q6 -13 11 -54q2 -16 3 -23q0 -3 1 -8t1 -7q1 -30 -62 -37q-22 -1 -46 5zM549 1422q-29 7 -32 22q-20 67 4 102q12 19 60 21q48 0 60 -21q6 -13 11 -54
q2 -16 3 -23q1 -5 1 -15q2 -30 -61 -37q-22 -1 -46 5z" />
    <glyph glyph-name="Igrave" unicode="&#xcc;" horiz-adv-x="447" 
d="M68 -14q-15 -5 -60 2q-32 6 -24 15q53 50 136 74q-14 -4 -19 175t-2 228q18 238 52 432q23 122 35 175q1 3 4 20.5t6.5 35.5t8 38t10.5 33t11 14q-44 -12 -66 -19q-3 -6 -31.5 -7.5t-30.5 0.5q-2 0 -6 0.5t-6 0.5q-12 2 -19 7.5t2 15.5q81 60 199 90.5t211 10.5
q16 -4 22 -11t0 -14.5t-22 -11.5q-19 -5 -116 -15q3 -7 -2 -36q-93 -445 -89 -865q0 -22 5.5 -122.5t1.5 -153.5q59 0 109 -12q38 -9 26 -29q-10 -18 -41 -20q-13 -1 -79 -1q-35 -4 -99.5 -16.5t-82.5 -15.5q-8 -3 -22.5 -9t-21.5 -9zM243 1604q21 -9 45 -35t53.5 -67.5
t32.5 -45.5q16 -20 7 -44.5t-29 -31t-40 11.5l-14 16q-13 15 -18 20.5t-18.5 22t-20 26t-16.5 25.5t-14.5 27.5t-7.5 25t-2 24.5q2 17 15.5 23.5t26.5 1.5z" />
    <glyph glyph-name="Iacute" unicode="&#xcd;" horiz-adv-x="447" 
d="M68 -14q-15 -5 -60 2q-32 6 -24 15q53 50 136 74q-14 -4 -19 175t-2 228q18 238 52 432q23 122 35 175q1 3 4 20.5t6.5 35.5t8 38t10.5 33t11 14q-44 -12 -66 -19q-3 -6 -31.5 -7.5t-30.5 0.5q-2 0 -6 0.5t-6 0.5q-12 2 -19 7.5t2 15.5q81 60 199 90.5t211 10.5
q16 -4 22 -11t0 -14.5t-22 -11.5q-19 -5 -116 -15q3 -7 -2 -36q-93 -445 -89 -865q0 -22 5.5 -122.5t1.5 -153.5q59 0 109 -12q38 -9 26 -29q-10 -18 -41 -20q-13 -1 -79 -1q-35 -4 -99.5 -16.5t-82.5 -15.5q-8 -3 -22.5 -9t-21.5 -9zM397 1604q13 5 26 -1.5t15 -23.5
q1 -11 -2 -24.5t-7.5 -25t-14.5 -27.5t-16.5 -25.5t-20 -26t-18.5 -22t-19 -20.5l-13 -16q-17 -20 -40 -11.5t-29.5 31t7.5 44.5q2 3 32.5 45t54.5 68t45 35z" />
    <glyph glyph-name="Icircumflex" unicode="&#xce;" horiz-adv-x="447" 
d="M68 -14q-15 -5 -60 2q-32 6 -24 15q53 50 136 74q-14 -4 -19 175t-2 228q18 238 52 432q23 122 35 175q1 3 4 20.5t6.5 35.5t8 38t10.5 33t11 14q-44 -12 -66 -19q-3 -6 -31.5 -7.5t-30.5 0.5q-2 0 -6 0.5t-6 0.5q-12 2 -19 7.5t2 15.5q81 60 199 90.5t211 10.5
q16 -4 22 -11t0 -14.5t-22 -11.5q-19 -5 -116 -15q3 -7 -2 -36q-93 -445 -89 -865q0 -22 5.5 -122.5t1.5 -153.5q59 0 109 -12q38 -9 26 -29q-10 -18 -41 -20q-13 -1 -79 -1q-35 -4 -99.5 -16.5t-82.5 -15.5q-8 -3 -22.5 -9t-21.5 -9zM284 1492q-9 -17 -18 -28
q-39 -54 -67 -83q-1 -1 -4 -4.5t-5 -5.5q-20 -20 -40 -11q-21 8 -29 31q-9 22 7 44q18 23 25 34q16 23 52 67q27 33 55 47q12 5 24 0q12 5 25 0q29 -15 55 -47q30 -37 51 -67q7 -11 25 -34q16 -21 8 -44q-9 -23 -29 -31q-21 -9 -41 11q-2 2 -5 5.5t-4 4.5q-28 29 -67 83
q-9 11 -18 28z" />
    <glyph glyph-name="Idieresis" unicode="&#xcf;" horiz-adv-x="447" 
d="M68 -14q-15 -5 -60 2q-32 6 -24 15q53 50 136 74q-14 -4 -19 175t-2 228q18 238 52 432q23 122 35 175q1 3 4 20.5t6.5 35.5t8 38t10.5 33t11 14q-44 -12 -66 -19q-3 -6 -31.5 -7.5t-30.5 0.5q-2 0 -6 0.5t-6 0.5q-12 2 -19 7.5t2 15.5q81 60 199 90.5t211 10.5
q16 -4 22 -11t0 -14.5t-22 -11.5q-19 -5 -116 -15q3 -7 -2 -36q-93 -445 -89 -865q0 -22 5.5 -122.5t1.5 -153.5q59 0 109 -12q38 -9 26 -29q-10 -18 -41 -20q-13 -1 -79 -1q-35 -4 -99.5 -16.5t-82.5 -15.5q-8 -3 -22.5 -9t-21.5 -9zM143 1364q-29 7 -32 22q-18 69 4 102
q12 19 60 21q48 0 60 -21q6 -13 11 -54q2 -16 3 -23q1 -2 1 -7t1 -8q1 -30 -62 -37q-22 -1 -46 5zM342 1364q-29 7 -32 22q-20 67 4 102q12 19 60 21q48 0 60 -21q6 -13 11 -54q2 -16 3 -23q1 -5 1 -15q2 -30 -61 -37q-22 -1 -46 5z" />
    <glyph glyph-name="Eth" unicode="&#xd0;" horiz-adv-x="926" 
d="M676 307q-215 -384 -466 -310q-76 22 -140 92.5t-80 148.5q-4 19 1 27q8 13 35 15q42 4 60 -9q10 -6 25 -35q33 -63 71 -109q66 -83 162 -30q62 35 123 118q113 156 188 425q54 195 64 430q0 6 2.5 40t3.5 62.5t2 70.5t-2 75.5t-8.5 65.5t-18 51.5t-29.5 23.5
q-28 7 -108 -82q-46 -51 -88 -122q-57 -95 -119 -267q-24 -69 -42 -136q70 7 118 -12q10 -4 13.5 -10t-5.5 -13q-15 -9 -34 -16t-33.5 -10t-39 -7t-36.5 -6q-17 -75 -27 -153q2 -92 5 -136q1 -15 5 -72.5t4.5 -84t-4.5 -69.5t-18 -76q-4 -9 -30.5 -9.5t-31.5 7.5
q-33 42 -53.5 102t-27.5 104t-13 116q-8 91 -10 194q-9 -6 -8 -9q13 -18 -25 -25q-46 -9 -82 1q-5 2 -8 4q-35 26 8.5 58t114.5 60q0 10 0.5 29.5t1.5 29.5q5 100 11 171.5t20 165t40.5 175.5t65.5 150q8 14 53 13.5t46 -18.5q2 -52 -4 -110t-18 -134t-16 -110
q-12 -104 -16 -152q69 200 194 355q25 31 46.5 53.5t54.5 50.5t68.5 39t68.5 3q32 -8 56 -37t37 -60.5t22.5 -81.5t12 -75t5.5 -67q19 -256 -54 -559q-46 -194 -113 -314z" />
    <glyph glyph-name="Ntilde" unicode="&#xd1;" horiz-adv-x="881" 
d="M504 1269q52 28 107 24t101.5 -26t77 -66.5t33.5 -97.5q2 -53 -2 -117t-10 -109t-17.5 -120t-16.5 -110q-24 -184 -32 -325t-3.5 -203t10.5 -113.5t6 -66.5q0 -11 3 -37t3.5 -41t-3.5 -36q-1 -6 -20 -6q-53 -2 -91.5 19.5t-57.5 71t-30.5 88t-10.5 113.5t2 101.5t7 94.5
q0 6 0.5 10t1 9t0.5 9q20 267 78 586q2 11 13.5 49.5t20.5 75t14.5 75.5t-4.5 66t-37 33t-54.5 -1t-55.5 -27t-44 -33.5t-41 -38.5q-23 -23 -38.5 -46.5t-36.5 -65.5t-27 -52q-65 -119 -107 -255q-79 -270 -44 -534q16 -117 -45 -140q-25 -9 -52.5 1.5t-44.5 32.5
q-22 30 -32 99q-62 455 45 908q25 109 68 161q23 29 48 29q31 0 45 -35q6 -19 2 -58l-36 -332q14 129 165 316q70 83 142 120zM255 1343q-13 -12 -58 -5q-24 3 -23 10q0 1 1 2q82 105 181 93q23 -4 56 -23.5t41 -22.5q22 -13 39.5 -7t24.5 14t19.5 25.5t24.5 26.5
q11 8 35.5 8.5t35.5 -8.5l13 -11q6 -3 8 -11q-12 -51 -57.5 -74.5t-103.5 -20.5q-55 1 -107 26q-7 3 -24 16t-26 16q-12 4 -24.5 -3t-34.5 -29z" />
    <glyph glyph-name="Ograve" unicode="&#xd2;" 
d="M210 535q-8 -49 -4 -119t14.5 -136t40 -127.5t71.5 -95.5q41 -32 95 2q130 78 230 358q68 190 89 426q17 177 -10 268q-31 102 -116 159.5t-179 10.5q-129 -67 -222 -229q4 3 10 9t10 9q7 6 32 9.5t48 -1.5t22 -19q-2 -38 -12.5 -77t-30 -92.5t-26.5 -74.5
q-48 -155 -62 -280zM85 146q-69 116 -69 285q-1 124 29.5 263t89.5 246q-19 2 -19 6q17 168 130.5 286t277.5 123q149 6 233 -122q51 -78 66 -156.5t12 -191.5q-3 -178 -75 -431q-58 -211 -163 -333q-115 -135 -267 -119q-75 8 -141.5 45.5t-103.5 98.5zM454 1629
q21 -9 45 -35t53.5 -67.5t32.5 -45.5q16 -20 7 -44.5t-29 -31t-40 11.5l-13 15q-14 16 -19 21.5t-18.5 22t-20 26t-16.5 25.5t-14.5 27.5t-7.5 25t-2 24.5q2 17 15.5 23.5t26.5 1.5z" />
    <glyph glyph-name="Oacute" unicode="&#xd3;" 
d="M210 535q-8 -49 -4 -119t14.5 -136t40 -127.5t71.5 -95.5q41 -32 95 2q130 78 230 358q68 190 89 426q17 177 -10 268q-31 102 -116 159.5t-179 10.5q-129 -67 -222 -229q4 3 10 9t10 9q7 6 32 9.5t48 -1.5t22 -19q-2 -38 -12.5 -77t-30 -92.5t-26.5 -74.5
q-48 -155 -62 -280zM85 146q-69 116 -69 285q-1 124 29.5 263t89.5 246q-19 2 -19 6q17 168 130.5 286t277.5 123q149 6 233 -122q51 -78 66 -156.5t12 -191.5q-3 -178 -75 -431q-58 -211 -163 -333q-115 -135 -267 -119q-75 8 -141.5 45.5t-103.5 98.5zM587 1629
q13 5 26 -1.5t15 -23.5q1 -11 -2 -24.5t-7.5 -25t-14.5 -27.5t-16.5 -25.5t-20 -26t-18.5 -22t-19 -21.5l-13 -15q-17 -20 -40 -11.5t-29.5 31t7.5 44.5q2 3 32.5 45t54.5 68t45 35z" />
    <glyph glyph-name="Ocircumflex" unicode="&#xd4;" 
d="M210 535q-8 -49 -4 -119t14.5 -136t40 -127.5t71.5 -95.5q41 -32 95 2q130 78 230 358q68 190 89 426q17 177 -10 268q-31 102 -116 159.5t-179 10.5q-129 -67 -222 -229q4 3 10 9t10 9q7 6 32 9.5t48 -1.5t22 -19q-2 -38 -12.5 -77t-30 -92.5t-26.5 -74.5
q-48 -155 -62 -280zM85 146q-69 116 -69 285q-1 124 29.5 263t89.5 246q-19 2 -19 6q17 168 130.5 286t277.5 123q149 6 233 -122q51 -78 66 -156.5t12 -191.5q-3 -178 -75 -431q-58 -211 -163 -333q-115 -135 -267 -119q-75 8 -141.5 45.5t-103.5 98.5zM544 1517
q-9 -17 -18 -28q-39 -54 -67 -83q-2 -2 -5 -5.5t-4 -4.5q-20 -20 -40 -11q-21 8 -29 31q-9 22 7 44q18 23 25 34q16 23 52 67q27 33 55 47q12 4 24 0q12 5 25 0q29 -15 55 -47q30 -37 51 -67q7 -11 25 -34q16 -21 8 -44q-9 -23 -29 -31q-21 -9 -41 11q-2 1 -5 4.5t-4 5.5
q-28 29 -67 83q-9 11 -18 28z" />
    <glyph glyph-name="Otilde" unicode="&#xd5;" 
d="M210 535q-8 -49 -4 -119t14.5 -136t40 -127.5t71.5 -95.5q41 -32 95 2q130 78 230 358q68 190 89 426q17 177 -10 268q-31 102 -116 159.5t-179 10.5q-129 -67 -222 -229q4 3 10 9t10 9q7 6 32 9.5t48 -1.5t22 -19q-2 -38 -12.5 -77t-30 -92.5t-26.5 -74.5
q-48 -155 -62 -280zM85 146q-69 116 -69 285q-1 124 29.5 263t89.5 246q-19 2 -19 6q17 168 130.5 286t277.5 123q149 6 233 -122q51 -78 66 -156.5t12 -191.5q-3 -178 -75 -431q-58 -211 -163 -333q-115 -135 -267 -119q-75 8 -141.5 45.5t-103.5 98.5zM788 1501
q6 -3 8 -11q-12 -51 -57.5 -74.5t-103.5 -20.5q-55 1 -107 26q-6 3 -23 16t-27 16q-12 4 -24.5 -3t-33.5 -29l-22 -22q-13 -12 -59 -5q-24 5 -22 12q84 105 181 93q18 -2 34 -9.5t33.5 -19t29.5 -17.5q22 -13 40 -7t24.5 14t19.5 25.5t25 26.5q11 8 35.5 8.5t35.5 -8.5z" />
    <glyph glyph-name="Odieresis" unicode="&#xd6;" 
d="M210 535q-8 -49 -4 -119t14.5 -136t40 -127.5t71.5 -95.5q41 -32 95 2q130 78 230 358q68 190 89 426q17 177 -10 268q-31 102 -116 159.5t-179 10.5q-129 -67 -222 -229q4 3 10 9t10 9q7 6 32 9.5t48 -1.5t22 -19q-2 -38 -12.5 -77t-30 -92.5t-26.5 -74.5
q-48 -155 -62 -280zM85 146q-69 116 -69 285q-1 124 29.5 263t89.5 246q-19 2 -19 6q17 168 130.5 286t277.5 123q149 6 233 -122q51 -78 66 -156.5t12 -191.5q-3 -178 -75 -431q-58 -211 -163 -333q-115 -135 -267 -119q-75 8 -141.5 45.5t-103.5 98.5zM412 1405
q-29 7 -32 22q-18 69 4 102q12 19 60 21q48 0 60 -21q6 -13 11 -54q2 -16 3 -23q0 -2 1 -7t1 -8q1 -30 -62 -37q-22 -1 -46 5zM611 1405q-29 7 -32 22q-20 67 4 102q12 19 60 21q48 0 60 -21q6 -13 11 -54q2 -16 3 -23q1 -5 1 -15q2 -30 -61 -37q-22 -1 -46 5z" />
    <glyph glyph-name="multiply" unicode="&#xd7;" horiz-adv-x="496" 
d="M148 151q-4 -9 -20.5 -15.5t-37 -8t-40 1t-32 10.5t-10.5 21q14 115 121 293q-14 23 -40.5 67t-46 74.5t-37.5 51.5q-8 9 16 16q41 13 75 3q11 -3 15 -8q45 -53 81 -106q67 93 170 105q29 4 60 -13q32 -16 -4 -28q-5 -2 -10 -3q-22 -6 -42.5 -23.5t-39 -48.5t-28 -50
t-25.5 -54q82 -115 167 -169q7 -5 8 -12l-3 -11q-1 -5 -17 -8q-108 -17 -206 90q-7 -17 -32.5 -79t-41.5 -96z" />
    <glyph glyph-name="Oslash" unicode="&#xd8;" 
d="M98 134q-11 13 -16 23q-68 112 -70 285q0 124 30.5 263t89.5 246q-4 0 -7.5 1t-6.5 1.5t-4 2t-1 2.5q17 168 130 285.5t277 123.5q106 3 178 -60q32 52 62 86q3 4 20.5 6.5t33 0t14.5 -8.5q-9 -74 -59 -172q40 -71 52.5 -144.5t10.5 -178.5q-4 -176 -75 -431
q-61 -213 -163 -333q-116 -134 -267 -119q-102 11 -175 67q-7 -13 -20.5 -40.5t-20.5 -40.5q-6 -14 -52 -6q-22 4 -20 8q19 45 59 133zM725 1141q-14 -24 -40 -67t-28 -46q-179 -303 -194 -330q-74 -133 -234 -458q34 -119 99 -172q41 -33 96 2q128 77 229 358
q67 187 90 426q16 183 -11 268q-4 12 -7 19zM207 547q-10 -82 -1 -177q81 168 142 286q69 134 202 364q23 41 62.5 122t49.5 100q-46 49 -101.5 64t-122.5 -14q-131 -67 -222 -229q12 12 19 18q11 11 57.5 10.5t45.5 -21.5q-2 -38 -13 -77.5t-30.5 -91.5t-26.5 -75
q-46 -150 -61 -279z" />
    <glyph glyph-name="Ugrave" unicode="&#xd9;" horiz-adv-x="864" 
d="M768 157q15 -120 38 -183q5 -14 23 -50.5t27 -65.5t5 -54q-2 -12 -49 -5q-47 10 -85 35.5t-63.5 58.5t-45 80t-30 91t-17 101t-9 100t-3.5 98q-36 -100 -77 -175q-26 -47 -64.5 -90t-89.5 -75.5t-104.5 -36t-109.5 27.5q-11 7 -21 17.5t-17.5 19.5t-15 25t-12 25.5
t-9.5 29.5l-7 28t-6 31t-4.5 28t-4 28.5t-3.5 24.5q-20 142 -8 411q14 260 32 388q1 11 5.5 47t7 54.5t10.5 50.5t18.5 50t29.5 35t43 24q1 1 7 1t7 -1q8 -30 8 -66t-4.5 -63.5t-11.5 -67.5t-9 -64q-12 -104 -22 -312q0 -7 -2.5 -62.5t-3 -67.5t-2 -61t-1 -68t1 -61.5
t3 -67.5t5.5 -61t8.5 -67t12.5 -62l4.5 -22.5l6 -30t7.5 -28t12 -26t15 -15.5q15 -9 30.5 -8.5t28 5t27 16.5t22.5 20t20 21q25 28 48 66.5t36.5 67.5t32.5 75q17 41 35 91.5t29.5 85.5t30.5 96.5t28 88.5q11 162 35 306q15 94 50 226q12 44 20 66q9 26 23 53q12 15 28 16
q-1 2 3 3.5t10 2t10 1t6 0.5q34 1 51.5 -13t19 -41.5t-2 -52t-12 -60t-10.5 -50.5q-38 -275 -45 -495q-8 -270 20 -488zM322 1592q21 -9 45 -35t53.5 -67.5t32.5 -45.5q16 -20 7 -44.5t-29 -31t-40 11.5l-13 16q-14 15 -19 20.5t-18.5 22t-20 26t-16.5 25.5t-14.5 27.5
t-7.5 25t-2 24.5q2 17 15.5 23.5t26.5 1.5z" />
    <glyph glyph-name="Uacute" unicode="&#xda;" horiz-adv-x="864" 
d="M768 157q15 -120 38 -183q5 -14 23 -50.5t27 -65.5t5 -54q-2 -12 -49 -5q-47 10 -85 35.5t-63.5 58.5t-45 80t-30 91t-17 101t-9 100t-3.5 98q-36 -100 -77 -175q-26 -47 -64.5 -90t-89.5 -75.5t-104.5 -36t-109.5 27.5q-11 7 -21 17.5t-17.5 19.5t-15 25t-12 25.5
t-9.5 29.5l-7 28t-6 31t-4.5 28t-4 28.5t-3.5 24.5q-20 142 -8 411q14 260 32 388q1 11 5.5 47t7 54.5t10.5 50.5t18.5 50t29.5 35t43 24q1 1 7 1t7 -1q8 -30 8 -66t-4.5 -63.5t-11.5 -67.5t-9 -64q-12 -104 -22 -312q0 -7 -2.5 -62.5t-3 -67.5t-2 -61t-1 -68t1 -61.5
t3 -67.5t5.5 -61t8.5 -67t12.5 -62l4.5 -22.5l6 -30t7.5 -28t12 -26t15 -15.5q15 -9 30.5 -8.5t28 5t27 16.5t22.5 20t20 21q25 28 48 66.5t36.5 67.5t32.5 75q17 41 35 91.5t29.5 85.5t30.5 96.5t28 88.5q11 162 35 306q15 94 50 226q12 44 20 66q9 26 23 53q12 15 28 16
q-1 2 3 3.5t10 2t10 1t6 0.5q34 1 51.5 -13t19 -41.5t-2 -52t-12 -60t-10.5 -50.5q-38 -275 -45 -495q-8 -270 20 -488zM501 1592q13 5 26 -1.5t15 -23.5q1 -11 -2 -24.5t-7.5 -25t-14.5 -27.5t-16.5 -25.5t-20 -26t-18.5 -22t-19 -20.5l-13 -16q-17 -20 -40 -11.5t-29.5 31
t7.5 44.5q2 3 32.5 45t54.5 68t45 35z" />
    <glyph glyph-name="Ucircumflex" unicode="&#xdb;" horiz-adv-x="864" 
d="M768 157q15 -120 38 -183q5 -14 23 -50.5t27 -65.5t5 -54q-2 -12 -49 -5q-47 10 -85 35.5t-63.5 58.5t-45 80t-30 91t-17 101t-9 100t-3.5 98q-36 -100 -77 -175q-26 -47 -64.5 -90t-89.5 -75.5t-104.5 -36t-109.5 27.5q-11 7 -21 17.5t-17.5 19.5t-15 25t-12 25.5
t-9.5 29.5l-7 28t-6 31t-4.5 28t-4 28.5t-3.5 24.5q-20 142 -8 411q14 260 32 388q1 11 5.5 47t7 54.5t10.5 50.5t18.5 50t29.5 35t43 24q1 1 7 1t7 -1q8 -30 8 -66t-4.5 -63.5t-11.5 -67.5t-9 -64q-12 -104 -22 -312q0 -7 -2.5 -62.5t-3 -67.5t-2 -61t-1 -68t1 -61.5
t3 -67.5t5.5 -61t8.5 -67t12.5 -62l4.5 -22.5l6 -30t7.5 -28t12 -26t15 -15.5q15 -9 30.5 -8.5t28 5t27 16.5t22.5 20t20 21q25 28 48 66.5t36.5 67.5t32.5 75q17 41 35 91.5t29.5 85.5t30.5 96.5t28 88.5q11 162 35 306q15 94 50 226q12 44 20 66q9 26 23 53q12 15 28 16
q-1 2 3 3.5t10 2t10 1t6 0.5q34 1 51.5 -13t19 -41.5t-2 -52t-12 -60t-10.5 -50.5q-38 -275 -45 -495q-8 -270 20 -488zM441 1492q-9 -17 -18 -28q-39 -54 -67 -83q-1 -1 -4 -4.5t-5 -5.5q-20 -20 -40 -11q-21 8 -29 31q-9 22 7 44q18 23 25 34q16 23 52 67q27 33 55 47
q12 5 24 0q13 5 25 0q29 -15 55 -47q30 -37 51 -67q7 -11 25 -34q16 -21 8 -44q-9 -23 -29 -31q-21 -9 -41 11q-1 2 -4 5.5t-5 4.5q-28 29 -67 83q-9 11 -18 28z" />
    <glyph glyph-name="Udieresis" unicode="&#xdc;" horiz-adv-x="864" 
d="M768 157q15 -120 38 -183q5 -14 23 -50.5t27 -65.5t5 -54q-2 -12 -49 -5q-47 10 -85 35.5t-63.5 58.5t-45 80t-30 91t-17 101t-9 100t-3.5 98q-36 -100 -77 -175q-26 -47 -64.5 -90t-89.5 -75.5t-104.5 -36t-109.5 27.5q-11 7 -21 17.5t-17.5 19.5t-15 25t-12 25.5
t-9.5 29.5l-7 28t-6 31t-4.5 28t-4 28.5t-3.5 24.5q-20 142 -8 411q14 260 32 388q1 11 5.5 47t7 54.5t10.5 50.5t18.5 50t29.5 35t43 24q1 1 7 1t7 -1q8 -30 8 -66t-4.5 -63.5t-11.5 -67.5t-9 -64q-12 -104 -22 -312q0 -7 -2.5 -62.5t-3 -67.5t-2 -61t-1 -68t1 -61.5
t3 -67.5t5.5 -61t8.5 -67t12.5 -62l4.5 -22.5l6 -30t7.5 -28t12 -26t15 -15.5q15 -9 30.5 -8.5t28 5t27 16.5t22.5 20t20 21q25 28 48 66.5t36.5 67.5t32.5 75q17 41 35 91.5t29.5 85.5t30.5 96.5t28 88.5q11 162 35 306q15 94 50 226q12 44 20 66q9 26 23 53q12 15 28 16
q-1 2 3 3.5t10 2t10 1t6 0.5q34 1 51.5 -13t19 -41.5t-2 -52t-12 -60t-10.5 -50.5q-38 -275 -45 -495q-8 -270 20 -488zM292 1405q-29 7 -32 22q-18 69 4 102q12 19 60 21q48 0 60 -21q6 -13 11 -54q2 -16 3 -23q0 -2 1 -7t1 -8q1 -30 -62 -37q-22 -1 -46 5zM491 1405
q-29 7 -32 22q-20 67 4 102q12 19 60 21q48 0 60 -21q6 -13 11 -54q2 -16 3 -23q1 -5 1 -15q2 -30 -61 -37q-22 -1 -46 5z" />
    <glyph glyph-name="Yacute" unicode="&#xdd;" horiz-adv-x="885" 
d="M773 931q16 -211 17 -237h2v-1q-3 -8 -1 -17q2 -91 -1 -136q-4 -76 -26 -151.5t-61 -145t-103 -123.5t-145 -77q-51 -15 -95.5 -11.5t-81 19t-62 43.5t-38.5 61t-10 73t23 78q34 65 88.5 112t134.5 93q14 8 81 45t104 56q1 98 -6 391q-1 20 -8 26.5t-17 1.5
q-18 -73 -54 -155q-13 -43 -28 -82t-36 -79.5t-44.5 -73t-54 -58.5t-63.5 -39t-73.5 -11t-83.5 22q-87 40 -117 194q-50 275 54 542q11 28 22 37q23 19 41 3q1 -50 -3.5 -106t-11.5 -124t-10 -106q-15 -206 35 -333q27 -69 72 -70q22 -1 51 20q16 11 31 25.5t26.5 26.5
t25 33t21 32t19.5 37t16.5 35t16.5 39t14 36t14 39t13 35q12 32 22.5 76t15 69.5t13.5 85t11 69.5q11 82 47 106q26 17 64 22.5t66 -7.5q23 -11 35 -39.5t13.5 -61t2.5 -66.5t1 -55q3 -31 10.5 -104.5t10.5 -113.5zM555 305q38 110 43 262q-6 -3 -32.5 -15t-34.5 -16
t-31.5 -15t-33.5 -17t-30 -17t-32 -19.5t-28.5 -20t-29.5 -23.5t-26 -25q-46 -46 -63.5 -103t0.5 -120q15 -44 48.5 -61t70.5 -10t72 29t55 52q25 38 52 119zM401 1629q13 5 26 -1.5t15 -23.5q1 -11 -2 -24.5t-7.5 -25t-14.5 -27.5t-16.5 -25.5t-20 -26t-18.5 -22t-19 -21.5
l-13 -15q-17 -20 -40 -11.5t-29.5 31t7.5 44.5q2 3 32.5 45t54.5 68t45 35z" />
    <glyph glyph-name="Thorn" unicode="&#xde;" horiz-adv-x="703" 
d="M632 722q15 -102 -6 -190.5t-89 -150.5t-176 -65q-92 -4 -175 64q0 -1 0.5 -3.5t0.5 -3.5q1 -31 5.5 -87t7 -94t1.5 -87t-9 -89q-6 -29 -65.5 -32t-69.5 24q-15 40 -24.5 92.5t-12 83.5t-5.5 101.5t-4 87.5q-8 159 -8 357q0 220 10 378q1 11 4.5 81t6 97t12.5 77t25 87
q7 17 51.5 15t49.5 -20q14 -53 17 -114t-1.5 -146.5t-4.5 -116.5v-67q36 60 70 90t90 32q54 2 101.5 -25t79.5 -69.5t57.5 -99t39 -107t21.5 -100.5zM411 384q154 72 105 373q-3 19 -8.5 43.5t-14.5 57.5t-21.5 64.5t-27 62t-33.5 52t-39 33t-45 6.5t-51 -29
q-57 -52 -103 -150q0 -111 1 -167q2 -96 6 -190q110 -212 231 -156z" />
    <glyph glyph-name="germandbls" unicode="&#xdf;" horiz-adv-x="872" 
d="M353 -45q-47 0 -99.5 13.5t-102 39t-86 63.5t-51.5 86.5t1 106.5q3 11 35 11t35 -11q23 -77 73 -136.5t121 -82t152 29.5q116 75 195 242q43 87 46 176t-44 176q-52 86 -124 105q-82 22 -198 -60q-4 -3 -18 -3q-36 -141 -31 -263q0 -14 2.5 -63.5t3 -72.5t-2 -61
t-8.5 -69q-4 -12 -35.5 -11.5t-39.5 8.5q-8 85 -8 169t5.5 149.5t19.5 138.5t25.5 119t33 109.5t32.5 92t33 83.5q5 11 22.5 52.5t24.5 57.5t23 51t28 55.5t29 48t35 49.5l6 6q9 14 31 34q3 3 13.5 12.5t15 13.5t13.5 11t17 11t16 7q30 10 59 4.5t41 -27.5q21 -21 25 -62
q12 -85 -27 -197q-82 -229 -218 -344q94 3 161 -37q82 -47 127.5 -127t48 -167.5t-28.5 -178.5q-57 -147 -171.5 -252t-255.5 -106zM314 805q155 132 249 283q67 110 87 164q40 101 19 147q-4 10 -10 15t-12.5 4.5t-13.5 -3.5t-14.5 -10t-13.5 -14t-13.5 -16.5t-12 -16
t-10 -15t-7.5 -10.5q-6 -8 -60 -95q-71 -116 -137 -283q-29 -75 -51 -150z" />
    <glyph glyph-name="agrave" unicode="&#xe0;" horiz-adv-x="532" 
d="M193 207q-60 -27 -109.5 2.5t-68.5 93.5q-17 49 -12 111t22.5 118.5t56.5 103.5t90 65q34 13 76.5 10.5t69.5 -22.5q12 -4 17 -6q9 24 25 50q9 14 47.5 12.5t44.5 -16.5q13 -34 18 -79t4.5 -76.5t-3.5 -86.5t-3 -77q-2 -133 18 -205q2 -6 22.5 -47t15.5 -56q-1 -6 -14 -6
q-80 -9 -135 37.5t-70 129.5q-5 24 -11 80q-47 -111 -101 -136zM108 480q-8 -35 -12 -75t3 -86t30 -66q12 -38 47 0q14 15 32 44q24 38 50 111q7 21 14 45t15 53.5t13 45.5q6 39 15 74q-8 6 -22.5 23.5t-24.5 23.5q-20 11 -61 -7q-35 -30 -62 -85.5t-37 -100.5zM185 980
q21 -9 45 -35t53.5 -67.5t32.5 -45.5q16 -20 7 -44.5t-29 -31t-40 11.5l-14 16q-13 15 -18 20.5t-18.5 22t-20 26t-16.5 25.5t-14.5 27.5t-7.5 25t-2 24.5q2 17 15.5 23.5t26.5 1.5z" />
    <glyph glyph-name="aacute" unicode="&#xe1;" horiz-adv-x="532" 
d="M193 207q-60 -27 -109.5 2.5t-68.5 93.5q-17 49 -12 111t22.5 118.5t56.5 103.5t90 65q34 13 76.5 10.5t69.5 -22.5q12 -4 17 -6q9 24 25 50q9 14 47.5 12.5t44.5 -16.5q13 -34 18 -79t4.5 -76.5t-3.5 -86.5t-3 -77q-2 -133 18 -205q2 -6 22.5 -47t15.5 -56q-1 -6 -14 -6
q-80 -9 -135 37.5t-70 129.5q-5 24 -11 80q-47 -111 -101 -136zM108 480q-8 -35 -12 -75t3 -86t30 -66q12 -38 47 0q14 15 32 44q24 38 50 111q7 21 14 45t15 53.5t13 45.5q6 39 15 74q-8 6 -22.5 23.5t-24.5 23.5q-20 11 -61 -7q-35 -30 -62 -85.5t-37 -100.5zM347 980
q13 5 26 -1.5t15 -23.5q1 -11 -2 -24.5t-7.5 -25t-14.5 -27.5t-16.5 -25.5t-20 -26t-18.5 -22t-19 -20.5l-13 -16q-17 -20 -40 -11.5t-29.5 31t7.5 44.5q2 3 32.5 45t54.5 68t45 35z" />
    <glyph glyph-name="acircumflex" unicode="&#xe2;" horiz-adv-x="532" 
d="M193 207q-60 -27 -109.5 2.5t-68.5 93.5q-17 49 -12 111t22.5 118.5t56.5 103.5t90 65q34 13 76.5 10.5t69.5 -22.5q12 -4 17 -6q9 24 25 50q9 14 47.5 12.5t44.5 -16.5q13 -34 18 -79t4.5 -76.5t-3.5 -86.5t-3 -77q-2 -133 18 -205q2 -6 22.5 -47t15.5 -56q-1 -6 -14 -6
q-80 -9 -135 37.5t-70 129.5q-5 24 -11 80q-47 -111 -101 -136zM108 480q-8 -35 -12 -75t3 -86t30 -66q12 -38 47 0q14 15 32 44q24 38 50 111q7 21 14 45t15 53.5t13 45.5q6 39 15 74q-8 6 -22.5 23.5t-24.5 23.5q-20 11 -61 -7q-35 -30 -62 -85.5t-37 -100.5zM272 917
q-9 -17 -18 -28q-39 -54 -67 -83q-1 -2 -4 -5.5t-5 -4.5q-20 -20 -40 -11q-21 8 -29 31q-9 22 7 44q18 23 25 34q16 23 52 67q27 33 55 47q12 4 24 0q12 5 25 0q29 -15 55 -47q30 -37 51 -67q7 -11 25 -34q16 -21 8 -44q-9 -23 -29 -31q-21 -9 -41 11q-2 1 -5 4.5t-4 5.5
q-28 29 -67 83q-9 11 -18 28z" />
    <glyph glyph-name="atilde" unicode="&#xe3;" horiz-adv-x="532" 
d="M193 207q-60 -27 -109.5 2.5t-68.5 93.5q-17 49 -12 111t22.5 118.5t56.5 103.5t90 65q34 13 76.5 10.5t69.5 -22.5q12 -4 17 -6q9 24 25 50q9 14 47.5 12.5t44.5 -16.5q13 -34 18 -79t4.5 -76.5t-3.5 -86.5t-3 -77q-2 -133 18 -205q2 -6 22.5 -47t15.5 -56q-1 -6 -14 -6
q-80 -9 -135 37.5t-70 129.5q-5 24 -11 80q-47 -111 -101 -136zM108 480q-8 -35 -12 -75t3 -86t30 -66q12 -38 47 0q14 15 32 44q24 38 50 111q7 21 14 45t15 53.5t13 45.5q6 39 15 74q-8 6 -22.5 23.5t-24.5 23.5q-20 11 -61 -7q-35 -30 -62 -85.5t-37 -100.5zM511 897
q6 -3 8 -11q-12 -51 -57.5 -74.5t-103.5 -20.5q-55 1 -107 26q-6 3 -23 16t-27 16q-12 4 -24.5 -3t-34.5 -29l-21 -22q-13 -12 -59 -5q-24 5 -22 12q84 105 181 93q18 -2 34 -9.5t33.5 -19t29.5 -17.5q22 -13 40 -7t24.5 14t19.5 25.5t25 26.5q11 8 35.5 8.5t35.5 -8.5z" />
    <glyph glyph-name="adieresis" unicode="&#xe4;" horiz-adv-x="532" 
d="M193 207q-60 -27 -109.5 2.5t-68.5 93.5q-17 49 -12 111t22.5 118.5t56.5 103.5t90 65q34 13 76.5 10.5t69.5 -22.5q12 -4 17 -6q9 24 25 50q9 14 47.5 12.5t44.5 -16.5q13 -34 18 -79t4.5 -76.5t-3.5 -86.5t-3 -77q-2 -133 18 -205q2 -6 22.5 -47t15.5 -56q-1 -6 -14 -6
q-80 -9 -135 37.5t-70 129.5q-5 24 -11 80q-47 -111 -101 -136zM108 480q-8 -35 -12 -75t3 -86t30 -66q12 -38 47 0q14 15 32 44q24 38 50 111q7 21 14 45t15 53.5t13 45.5q6 39 15 74q-8 6 -22.5 23.5t-24.5 23.5q-20 11 -61 -7q-35 -30 -62 -85.5t-37 -100.5zM143 772
q-29 7 -32 22q-18 69 4 102q12 19 60 21q48 0 60 -21q6 -13 11 -54q2 -16 3 -23q1 -3 1 -8t1 -7q1 -30 -62 -37q-22 -1 -46 5zM342 772q-29 7 -32 22q-20 67 4 102q12 19 60 21q48 0 60 -21q6 -13 11 -54q2 -16 3 -23q1 -5 1 -15q2 -30 -61 -37q-22 -1 -46 5z" />
    <glyph glyph-name="aring" unicode="&#xe5;" horiz-adv-x="532" 
d="M193 207q-60 -27 -109.5 2.5t-68.5 93.5q-17 49 -12 111t22.5 118.5t56.5 103.5t90 65q34 13 76.5 10.5t69.5 -22.5q12 -4 17 -6q9 24 25 50q9 14 47.5 12.5t44.5 -16.5q13 -34 18 -79t4.5 -76.5t-3.5 -86.5t-3 -77q-2 -133 18 -205q2 -6 22.5 -47t15.5 -56q-1 -6 -14 -6
q-80 -9 -135 37.5t-70 129.5q-5 24 -11 80q-47 -111 -101 -136zM108 480q-8 -35 -12 -75t3 -86t30 -66q12 -38 47 0q14 15 32 44q24 38 50 111q7 21 14 45t15 53.5t13 45.5q6 39 15 74q-8 6 -22.5 23.5t-24.5 23.5q-20 11 -61 -7q-35 -30 -62 -85.5t-37 -100.5zM367 873
q1 -34 -31 -75q-21 -25 -62 -27q-43 -1 -71.5 25t-18.5 68q12 50 45 63q12 4 27 5q0 3 10 4q36 6 67.5 -10.5t33.5 -52.5zM283 802q41 44 37 74q-3 29 -29 42q-1 -4 -21 -4q-13 -7 -21 -32t-7 -41q0 -20 14 -36q8 -10 13 -10.5t14 7.5z" />
    <glyph glyph-name="ae" unicode="&#xe6;" horiz-adv-x="724" 
d="M461 150q-64 4 -102 42q-23 12 -44 28q-5 14 -11 40q-5 27 -11 81q-47 -112 -101 -136q-60 -27 -109.5 2.5t-68.5 93.5q-17 49 -12 111t22.5 118.5t56 103t89.5 64.5q35 14 77.5 11.5t69.5 -22.5q12 -4 17 -6q10 23 25 49q9 15 47.5 13.5t44.5 -17.5q2 -4 4.5 -12
t3.5 -11q13 8 25 12q38 14 80 16t80.5 -16t51.5 -56q22 -38 -6.5 -90.5t-70.5 -91.5q-69 -64 -145 -85q-3 -123 21 -160q11 -18 27.5 -21t38.5 10.5t38.5 25.5t41 39.5t32.5 37t27 32.5q3 3 16 3.5t24.5 -1.5t10.5 -4q-27 -64 -100 -124t-143 -76l1 -1q-2 0 -4 1
q-21 -6 -44 -4zM626 685q-34 12 -63 -12t-46 -69.5t-27.5 -90t-13.5 -85.5q46 26 83 60q56 56 69 102q4 15 4.5 28.5t-3 38t-3.5 27.5v1zM299 550q6 40 15 73q-7 6 -22 24t-25 24q-22 11 -61 -7q-35 -30 -62 -85.5t-37 -100.5q-8 -35 -12 -75t3 -86t30 -66q12 -38 47 -1
q14 17 32 45q24 38 50 111q7 21 14 45t15 53.5t13 45.5z" />
    <glyph glyph-name="ccedilla" unicode="&#xe7;" horiz-adv-x="475" 
d="M388 351q3 4 16 4t24.5 -1.5t10.5 -3.5q-23 -54 -80.5 -105.5t-121.5 -76.5q11 -45 -12 -82.5t-69 -44.5q-13 -3 -43 2q-25 4 -19 12q4 4 14 10.5t13 9.5q10 8 26 26q21 23 30 52q-19 -2 -28 -1q-165 12 -152 239q3 49 13 96t29.5 94t53.5 83t79 53q39 15 82 16.5
t82 -17.5t51 -61q0 -2 -11.5 -2t-13.5 1q-93 90 -153 -39q-38 -83 -45 -193q-1 -7 -1 -14q-6 -134 20 -174q48 -75 205 117z" />
    <glyph glyph-name="egrave" unicode="&#xe8;" horiz-adv-x="455" 
d="M154 152q-165 12 -152 239q3 49 13 96t29.5 94t53.5 83t79 53q28 10 59 13.5t62 -0.5t56 -21.5t35 -46.5q22 -38 -6.5 -90.5t-70.5 -92.5q-69 -64 -145 -85q-3 -123 21 -160q11 -18 27.5 -21t38.5 10.5t38.5 25.5t41 39.5t32.5 37t27 32.5q3 4 16 4.5t24.5 -1.5t10.5 -4
q-33 -77 -124.5 -144t-165.5 -61zM319 687q-34 12 -63 -12t-46 -69.5t-27.5 -90t-13.5 -84.5q46 25 83 60q54 53 69 101q4 15 4.5 28.5t-3 38t-3.5 28.5zM168 988q21 -9 45 -35t53.5 -67.5t32.5 -45.5q16 -20 7 -44.5t-29 -31t-40 11.5l-13 16q-14 15 -19 20.5t-18.5 22
t-20 26t-16.5 25.5t-14.5 27.5t-7.5 25t-2 24.5q2 17 15.5 23.5t26.5 1.5z" />
    <glyph glyph-name="eacute" unicode="&#xe9;" horiz-adv-x="455" 
d="M154 152q-165 12 -152 239q3 49 13 96t29.5 94t53.5 83t79 53q28 10 59 13.5t62 -0.5t56 -21.5t35 -46.5q22 -38 -6.5 -90.5t-70.5 -92.5q-69 -64 -145 -85q-3 -123 21 -160q11 -18 27.5 -21t38.5 10.5t38.5 25.5t41 39.5t32.5 37t27 32.5q3 4 16 4.5t24.5 -1.5t10.5 -4
q-33 -77 -124.5 -144t-165.5 -61zM319 687q-34 12 -63 -12t-46 -69.5t-27.5 -90t-13.5 -84.5q46 25 83 60q54 53 69 101q4 15 4.5 28.5t-3 38t-3.5 28.5zM297 988q13 5 26 -1.5t15 -23.5q1 -11 -2 -24.5t-7.5 -25t-14.5 -27.5t-16.5 -25.5t-20 -26t-18.5 -22t-19 -20.5
l-13 -16q-17 -20 -40 -11.5t-29.5 31t7.5 44.5q2 3 32.5 45t54.5 68t45 35z" />
    <glyph glyph-name="ecircumflex" unicode="&#xea;" horiz-adv-x="455" 
d="M154 152q-165 12 -152 239q3 49 13 96t29.5 94t53.5 83t79 53q28 10 59 13.5t62 -0.5t56 -21.5t35 -46.5q22 -38 -6.5 -90.5t-70.5 -92.5q-69 -64 -145 -85q-3 -123 21 -160q11 -18 27.5 -21t38.5 10.5t38.5 25.5t41 39.5t32.5 37t27 32.5q3 4 16 4.5t24.5 -1.5t10.5 -4
q-33 -77 -124.5 -144t-165.5 -61zM319 687q-34 12 -63 -12t-46 -69.5t-27.5 -90t-13.5 -84.5q46 25 83 60q54 53 69 101q4 15 4.5 28.5t-3 38t-3.5 28.5zM239 884q-9 -17 -18 -28q-39 -54 -67 -83q-1 -1 -4 -4.5t-5 -5.5q-20 -20 -40 -11q-21 8 -29 31q-9 22 7 44
q18 23 25 34q16 23 52 67q27 33 55 47q12 5 24 0q13 5 25 0q29 -15 55 -47q30 -37 51 -67q7 -11 25 -34q16 -21 8 -44q-9 -23 -29 -31q-21 -9 -41 11q-2 2 -5 5.5t-4 4.5q-28 29 -67 83q-9 11 -18 28z" />
    <glyph glyph-name="edieresis" unicode="&#xeb;" horiz-adv-x="455" 
d="M154 152q-165 12 -152 239q3 49 13 96t29.5 94t53.5 83t79 53q28 10 59 13.5t62 -0.5t56 -21.5t35 -46.5q22 -38 -6.5 -90.5t-70.5 -92.5q-69 -64 -145 -85q-3 -123 21 -160q11 -18 27.5 -21t38.5 10.5t38.5 25.5t41 39.5t32.5 37t27 32.5q3 4 16 4.5t24.5 -1.5t10.5 -4
q-33 -77 -124.5 -144t-165.5 -61zM319 687q-34 12 -63 -12t-46 -69.5t-27.5 -90t-13.5 -84.5q46 25 83 60q54 53 69 101q4 15 4.5 28.5t-3 38t-3.5 28.5zM114 772q-29 7 -32 22q-18 69 4 102q12 19 60 21q48 0 60 -21q6 -13 11 -54q2 -16 3 -23q0 -3 1 -8t1 -7
q1 -30 -62 -37q-22 -1 -46 5zM313 772q-29 7 -32 22q-20 67 4 102q12 19 60 21q48 0 60 -21q6 -13 11 -54q2 -16 3 -23q1 -5 1 -15q2 -30 -61 -37q-22 -1 -46 5z" />
    <glyph glyph-name="igrave" unicode="&#xec;" horiz-adv-x="243" 
d="M122 187q-108 37 -114 230q-9 249 58 356q9 15 52 15.5t50 -16.5q17 -44 18 -97.5t-7 -121t-8 -100.5q0 -87 17 -163q1 -6 4.5 -18.5t4.5 -18.5t2 -15.5t-0.5 -16.5t-5 -15.5t-10.5 -17.5q-11 -8 -29.5 -7t-31.5 6zM69 1075q21 -9 45 -35t53.5 -67.5t32.5 -45.5
q16 -20 7 -44.5t-29 -31t-40 11.5l-14 15q-13 16 -18 21.5t-18.5 22t-20 26t-16.5 25.5t-14.5 27.5t-7.5 25t-2 24.5q2 17 15.5 23.5t26.5 1.5z" />
    <glyph glyph-name="iacute" unicode="&#xed;" horiz-adv-x="243" 
d="M122 187q-108 37 -114 230q-9 249 58 356q9 15 52 15.5t50 -16.5q17 -44 18 -97.5t-7 -121t-8 -100.5q0 -87 17 -163q1 -6 4.5 -18.5t4.5 -18.5t2 -15.5t-0.5 -16.5t-5 -15.5t-10.5 -17.5q-11 -8 -29.5 -7t-31.5 6zM186 1075q13 5 26 -1.5t15 -23.5q1 -11 -2 -24.5
t-7.5 -25t-14.5 -27.5t-16.5 -25.5t-20 -26t-18.5 -22t-18 -21.5l-14 -15q-17 -20 -40 -11.5t-29.5 31t7.5 44.5q2 3 32.5 45t54.5 68t45 35z" />
    <glyph glyph-name="icircumflex" unicode="&#xee;" horiz-adv-x="243" 
d="M122 187q-108 37 -114 230q-9 249 58 356q9 15 52 15.5t50 -16.5q17 -44 18 -97.5t-7 -121t-8 -100.5q0 -87 17 -163q1 -6 4.5 -18.5t4.5 -18.5t2 -15.5t-0.5 -16.5t-5 -15.5t-10.5 -17.5q-11 -8 -29.5 -7t-31.5 6zM111 929q-9 -17 -18 -28q-39 -54 -67 -83
q-1 -1 -4 -4.5t-5 -5.5q-20 -20 -40 -11q-21 8 -29 31q-9 22 7 44q18 23 25 34q16 23 52 67q27 33 55 47q12 4 24 0q13 5 25 0q29 -15 55 -47q30 -37 51 -67q7 -11 25 -34q16 -21 8 -44q-9 -23 -29 -31q-21 -9 -41 11q-1 2 -4 5.5t-5 4.5q-28 29 -67 83q-9 11 -18 28z" />
    <glyph glyph-name="idieresis" unicode="&#xef;" horiz-adv-x="243" 
d="M122 187q-108 37 -114 230q-9 249 58 356q9 15 52 15.5t50 -16.5q17 -44 18 -97.5t-7 -121t-8 -100.5q0 -87 17 -163q1 -6 4.5 -18.5t4.5 -18.5t2 -15.5t-0.5 -16.5t-5 -15.5t-10.5 -17.5q-11 -8 -29.5 -7t-31.5 6zM-6 842q-29 7 -32 22q-18 69 4 102q12 19 60 21
q48 0 60 -21q6 -13 11 -54q2 -16 3 -23q0 -3 1 -8t1 -7q1 -30 -62 -37q-22 -1 -46 5zM193 842q-29 7 -32 22q-20 67 4 102q12 19 60 21q48 0 60 -21q6 -13 11 -54q2 -16 3 -23q1 -5 1 -15q2 -30 -61 -37q-22 -1 -46 5z" />
    <glyph glyph-name="eth" unicode="&#xf0;" horiz-adv-x="579" 
d="M551 990q65 14 121 17q27 0 34 -6q1 -1 0 -2q-39 -27 -162 -64q-24 -171 -25 -184q-5 -67 -14 -301q-11 -271 70 -500q3 -9 -41 -4q-10 1 -12 2q-71 41 -114.5 108.5t-58.5 136.5t-18 157q-76 -154 -149 -190q-82 -41 -130.5 7.5t-51.5 138.5q-2 71 15 153t60 161.5
t104 110.5q31 16 80.5 15.5t84.5 -18.5q11 77 27 149q-64 -22 -109 -40q-17 -6 -59 4q-18 5 -17 10q0 2 4 4q147 63 196 82q41 150 93 206q9 9 41 9t35 -12q9 -44 -4 -150zM332 561q2 62 5 94q-14 19 -22.5 28t-22 18.5t-28.5 7.5t-32 -14q-51 -37 -90 -143
q-57 -152 -49 -263q3 -70 19 -87q4 -36 26 -5q17 11 29 27q36 39 77 111q37 66 88 226z" />
    <glyph glyph-name="ntilde" unicode="&#xf1;" horiz-adv-x="591" 
d="M132 173q-8 -17 -51.5 -16t-52.5 16q0 1 -1 2l-2 2q-3 3 -7 9q-7 19 -12 41q-5 18 -7.5 40t-3.5 37.5t0.5 43.5t2 38t4 43t3.5 37q8 72 12.5 105.5t22.5 90.5t47 92q13 15 57 15.5t49 -21.5q7 -40 0 -89.5t-20.5 -109t-17.5 -91.5v-2q31 72 87 188q4 7 17.5 36t20 41.5
t20.5 37t26 37t28.5 28t36 23t41.5 8.5q21 1 36.5 -3t24.5 -16.5t15 -22t8 -32.5t2.5 -32.5t0 -37.5t-0.5 -33q0 -70 -2 -105q3 -33 0.5 -109t-1.5 -107q0 -5 1 -26t1.5 -28.5t2 -28.5t2.5 -30.5t3.5 -28.5t5.5 -30.5t7 -28t9 -28t11.5 -24t14.5 -23.5q6 -7 -22 -9l-34 1
q-16 4 -31 14q-22 41 -37 82.5t-23 92.5t-12.5 84t-3 96t2 86t5.5 97t6 89v5.5v12t-0.5 16t-1 17.5t-1 17.5t-1.5 14t-2.5 10t-3.5 2.5q-16 -9 -32 -27t-24 -31t-22.5 -42t-17.5 -34q-35 -67 -79 -163q-23 -51 -67 -153q-1 -3 -2.5 -9.5t-2.5 -11.5t-1 -9q-3 -14 -10.5 -67
t-16.5 -80q-2 -4 -6 -5q-1 -1 -1 -4zM141 927q-13 -12 -58 -5q-24 5 -22 12q82 105 181 93q18 -2 33.5 -9.5t33 -19t30.5 -17.5q22 -7 33.5 -8t22 7.5t16 17t16 21.5t20.5 21q12 8 36 8.5t35 -8.5l13 -11q6 -3 8 -11q-12 -51 -57.5 -74.5t-102.5 -20.5q-56 1 -108 26
q-7 3 -23.5 16t-25.5 16q-13 4 -26 -3.5t-32.5 -27.5t-22.5 -23z" />
    <glyph glyph-name="ograve" unicode="&#xf2;" horiz-adv-x="608" 
d="M178 134q-55 -1 -98 48.5t-62.5 114t-16.5 119.5q4 75 29.5 150.5t70.5 129.5q37 44 81 62q11 4 50.5 8.5t66.5 -0.5q31 3 59 -2q64 -11 104 -57t52 -108.5t7 -130t-26 -129.5q48 -3 76 19q17 14 64 6q28 -4 27 -13l-4 -5q-68 -49 -176 -41q-13 -29 -32 -58
q-35 -48 -90 -78.5t-116 -37.5q-26 -3 -66 3zM258 638q-12 -61 5 -121q23 -83 99 -131q25 -16 55 -28q1 4 3.5 11.5t3.5 11.5q36 146 -21 268q-9 31 -30 53q-15 0 -46 2t-46 2q-12 -7 -23 -68zM179 502q-10 -58 -13 -114t10 -122.5t47 -101.5q6 0 10 -1q35 7 71 30.5
t56 49.5q25 32 43 76q-63 17 -115.5 50t-81.5 76q-19 32 -27 57zM206 1042q21 -9 45 -35t53.5 -67.5t32.5 -45.5q16 -20 7 -44.5t-29 -31t-40 11.5l-13 16q-14 15 -19 20.5t-18.5 22t-20 26t-16.5 25.5t-14.5 27.5t-7.5 25t-2 24.5q2 17 15.5 23.5t26.5 1.5z" />
    <glyph glyph-name="oacute" unicode="&#xf3;" horiz-adv-x="608" 
d="M178 134q-55 -1 -98 48.5t-62.5 114t-16.5 119.5q4 75 29.5 150.5t70.5 129.5q37 44 81 62q11 4 50.5 8.5t66.5 -0.5q31 3 59 -2q64 -11 104 -57t52 -108.5t7 -130t-26 -129.5q48 -3 76 19q17 14 64 6q28 -4 27 -13l-4 -5q-68 -49 -176 -41q-13 -29 -32 -58
q-35 -48 -90 -78.5t-116 -37.5q-26 -3 -66 3zM258 638q-12 -61 5 -121q23 -83 99 -131q25 -16 55 -28q1 4 3.5 11.5t3.5 11.5q36 146 -21 268q-9 31 -30 53q-15 0 -46 2t-46 2q-12 -7 -23 -68zM179 502q-10 -58 -13 -114t10 -122.5t47 -101.5q6 0 10 -1q35 7 71 30.5
t56 49.5q25 32 43 76q-63 17 -115.5 50t-81.5 76q-19 32 -27 57zM364 1042q13 5 26 -1.5t15 -23.5q1 -11 -2 -24.5t-7.5 -25t-14.5 -27.5t-16.5 -25.5t-20 -26t-18.5 -22t-18 -20.5l-14 -16q-17 -20 -40 -11.5t-29.5 31t7.5 44.5q2 3 32.5 45t54.5 68t45 35z" />
    <glyph glyph-name="ocircumflex" unicode="&#xf4;" horiz-adv-x="608" 
d="M178 134q-55 -1 -98 48.5t-62.5 114t-16.5 119.5q4 75 29.5 150.5t70.5 129.5q37 44 81 62q11 4 50.5 8.5t66.5 -0.5q31 3 59 -2q64 -11 104 -57t52 -108.5t7 -130t-26 -129.5q48 -3 76 19q17 14 64 6q28 -4 27 -13l-4 -5q-68 -49 -176 -41q-13 -29 -32 -58
q-35 -48 -90 -78.5t-116 -37.5q-26 -3 -66 3zM258 638q-12 -61 5 -121q23 -83 99 -131q25 -16 55 -28q1 4 3.5 11.5t3.5 11.5q36 146 -21 268q-9 31 -30 53q-15 0 -46 2t-46 2q-12 -7 -23 -68zM179 502q-10 -58 -13 -114t10 -122.5t47 -101.5q6 0 10 -1q35 7 71 30.5
t56 49.5q25 32 43 76q-63 17 -115.5 50t-81.5 76q-19 32 -27 57zM289 917q-9 -17 -18 -28q-39 -54 -67 -83q-1 -2 -4 -5.5t-5 -4.5q-20 -20 -40 -11q-21 8 -29 31q-9 22 7 44q18 23 25 34q16 23 52 67q27 33 55 47q12 4 24 0q13 5 25 0q29 -15 55 -47q30 -37 51 -67
q7 -11 25 -34q16 -21 8 -44q-9 -23 -29 -31q-21 -9 -41 11q-1 1 -4 4.5t-5 5.5q-28 29 -67 83q-9 11 -18 28z" />
    <glyph glyph-name="otilde" unicode="&#xf5;" horiz-adv-x="608" 
d="M178 134q-55 -1 -98 48.5t-62.5 114t-16.5 119.5q4 75 29.5 150.5t70.5 129.5q37 44 81 62q11 4 50.5 8.5t66.5 -0.5q31 3 59 -2q64 -11 104 -57t52 -108.5t7 -130t-26 -129.5q48 -3 76 19q17 14 64 6q28 -4 27 -13l-4 -5q-68 -49 -176 -41q-13 -29 -32 -58
q-35 -48 -90 -78.5t-116 -37.5q-26 -3 -66 3zM258 638q-12 -61 5 -121q23 -83 99 -131q25 -16 55 -28q1 4 3.5 11.5t3.5 11.5q36 146 -21 268q-9 31 -30 53q-15 0 -46 2t-46 2q-12 -7 -23 -68zM179 502q-10 -58 -13 -114t10 -122.5t47 -101.5q6 0 10 -1q35 7 71 30.5
t56 49.5q25 32 43 76q-63 17 -115.5 50t-81.5 76q-19 32 -27 57zM532 922q6 -3 8 -11q-12 -51 -57.5 -74.5t-103.5 -20.5q-55 1 -107 26q-6 3 -23 16t-27 16q-12 4 -24.5 -3t-33.5 -29l-22 -22q-13 -12 -59 -5q-24 5 -22 12q84 105 181 93q18 -2 34 -9.5t33.5 -19
t29.5 -17.5q22 -13 40 -7t24.5 14t19.5 25.5t25 26.5q11 8 35.5 8.5t35.5 -8.5z" />
    <glyph glyph-name="odieresis" unicode="&#xf6;" horiz-adv-x="608" 
d="M178 134q-55 -1 -98 48.5t-62.5 114t-16.5 119.5q4 75 29.5 150.5t70.5 129.5q37 44 81 62q11 4 50.5 8.5t66.5 -0.5q31 3 59 -2q64 -11 104 -57t52 -108.5t7 -130t-26 -129.5q48 -3 76 19q17 14 64 6q28 -4 27 -13l-4 -5q-68 -49 -176 -41q-13 -29 -32 -58
q-35 -48 -90 -78.5t-116 -37.5q-26 -3 -66 3zM258 638q-12 -61 5 -121q23 -83 99 -131q25 -16 55 -28q1 4 3.5 11.5t3.5 11.5q36 146 -21 268q-9 31 -30 53q-15 0 -46 2t-46 2q-12 -7 -23 -68zM179 502q-10 -58 -13 -114t10 -122.5t47 -101.5q6 0 10 -1q35 7 71 30.5
t56 49.5q25 32 43 76q-63 17 -115.5 50t-81.5 76q-19 32 -27 57zM151 817q-29 7 -32 22q-18 69 4 102q12 19 60 21q48 0 60 -21q6 -13 11 -54q2 -16 3 -23q1 -2 1 -7t1 -8q1 -30 -62 -37q-22 -1 -46 5zM350 817q-29 7 -32 22q-20 67 4 102q12 19 60 21q48 0 60 -21
q6 -13 11 -54q2 -16 3 -23q1 -5 1 -15q2 -30 -61 -37q-22 -1 -46 5z" />
    <glyph glyph-name="divide" unicode="&#xf7;" horiz-adv-x="666" 
d="M573 476q-36 -9 -74.5 -10.5t-91 1.5t-75.5 3q-36 0 -139.5 -5.5t-160.5 -2.5q-24 1 -41 17q-18 17 12 28q104 37 310 43q7 0 44 0.5t49.5 0.5t44 -1.5t49.5 -4.5t42.5 -9.5t43.5 -16.5q22 -13 16 -24.5t-29 -18.5zM279 889q54 2 75 -27q12 -17 14 -57q4 -36 3 -54
q-1 -27 -30 -38.5t-62 -12.5q-30 -1 -60 11.5t-32 39.5l3 54q2 40 15 57q19 27 74 27zM293 311q20 1 41 -5t29 -19q8 -14 10 -50q3 -45 3 -47q-1 -23 -28 -32.5t-55 -9.5q-27 -1 -54.5 9t-28.5 33q-1 9 2 47q2 36 10 50q15 24 71 24z" />
    <glyph glyph-name="oslash" unicode="&#xf8;" horiz-adv-x="587" 
d="M567 861q6 5 31 -1q-45 -82 -101 -179q32 -63 32.5 -152.5t-24.5 -162.5v-1l-3 -9h1q-1 -2 -2 -5.5t-1 -4.5q-4 -10 -5 -15q-1 -2 -1 -9h-5q-14 -32 -32 -58q-34 -48 -89.5 -79t-115.5 -37q-26 -3 -60 1q-7 -13 -20.5 -38.5t-20.5 -38.5q-7 -14 -50 -10q-35 6 -33 18
q21 46 44 94q-50 38 -78.5 115t-25.5 142q3 75 28.5 151t70.5 130q35 44 81 62q11 4 50 8.5t67 -0.5q28 3 58 -1q57 -10 95 -47q53 66 109 127zM178 304q-1 6 6.5 19.5t18 28.5t12.5 19q33 60 65 115q8 15 26.5 40t24.5 34q9 15 37 54q1 1 12.5 15t20 25.5t7.5 14.5
q-17 43 -35 51q-25 11 -55 6.5t-51 -22.5q-27 -21 -44 -74q-30 -100 -43 -175t-2 -151zM433 412q10 48 10 88q0 29 -1 43q0 2 -2.5 11.5t-3 14.5t0.5 9q-155 -264 -220 -382q3 -3 7.5 -8.5t6.5 -7.5q6 0 10 -1q35 7 71 31t56 50q41 54 62 138q0 2 1 7t2 7z" />
    <glyph glyph-name="ugrave" unicode="&#xf9;" horiz-adv-x="537" 
d="M207 197q11 10 19.5 23t14 22.5t11.5 27t8 24.5t8 29t7 27q13 48 20 130.5t22.5 150.5t54.5 120q6 8 45 6t44 -10q29 -49 33 -104t-5 -128.5t-8 -111.5q0 -12 -0.5 -63.5t1.5 -81.5t7.5 -73t21 -74t39.5 -49q3 -2 -1 -4t-6 -2q-155 -37 -206 157q-6 21 -16 65
q-11 -45 -43 -78t-70.5 -45t-81.5 1.5t-74 53.5q-22 28 -32.5 71.5t-12 70.5t-1.5 80q-2 134 30 265q8 30 18 41q18 22 40 11q21 -10 17 -57q-25 -230 -16 -353q8 -80 30 -121q23 -44 56 -37q10 2 26 16zM156 980q21 -9 45 -35t53.5 -67.5t32.5 -45.5q16 -20 7 -44.5
t-29 -31t-40 11.5l-13 16q-14 15 -19 20.5t-18.5 22t-20 26t-16.5 25.5t-14.5 27.5t-7.5 25t-2 24.5q2 17 15.5 23.5t26.5 1.5z" />
    <glyph glyph-name="uacute" unicode="&#xfa;" horiz-adv-x="537" 
d="M207 197q11 10 19.5 23t14 22.5t11.5 27t8 24.5t8 29t7 27q13 48 20 130.5t22.5 150.5t54.5 120q6 8 45 6t44 -10q29 -49 33 -104t-5 -128.5t-8 -111.5q0 -12 -0.5 -63.5t1.5 -81.5t7.5 -73t21 -74t39.5 -49q3 -2 -1 -4t-6 -2q-155 -37 -206 157q-6 21 -16 65
q-11 -45 -43 -78t-70.5 -45t-81.5 1.5t-74 53.5q-22 28 -32.5 71.5t-12 70.5t-1.5 80q-2 134 30 265q8 30 18 41q18 22 40 11q21 -10 17 -57q-25 -230 -16 -353q8 -80 30 -121q23 -44 56 -37q10 2 26 16zM326 980q13 5 26 -1.5t15 -23.5q1 -11 -2 -24.5t-7.5 -25
t-14.5 -27.5t-16.5 -25.5t-20 -26t-18.5 -22t-18 -20.5l-14 -16q-17 -20 -40 -11.5t-29.5 31t7.5 44.5q2 3 32.5 45t54.5 68t45 35z" />
    <glyph glyph-name="ucircumflex" unicode="&#xfb;" horiz-adv-x="537" 
d="M207 197q11 10 19.5 23t14 22.5t11.5 27t8 24.5t8 29t7 27q13 48 20 130.5t22.5 150.5t54.5 120q6 8 45 6t44 -10q29 -49 33 -104t-5 -128.5t-8 -111.5q0 -12 -0.5 -63.5t1.5 -81.5t7.5 -73t21 -74t39.5 -49q3 -2 -1 -4t-6 -2q-155 -37 -206 157q-6 21 -16 65
q-11 -45 -43 -78t-70.5 -45t-81.5 1.5t-74 53.5q-22 28 -32.5 71.5t-12 70.5t-1.5 80q-2 134 30 265q8 30 18 41q18 22 40 11q21 -10 17 -57q-25 -230 -16 -353q8 -80 30 -121q23 -44 56 -37q10 2 26 16zM235 917q-9 -17 -18 -28q-39 -54 -67 -83q-2 -2 -5 -5.5t-4 -4.5
q-20 -20 -40 -11q-21 8 -29 31q-9 22 7 44q18 23 25 34q16 23 52 67q27 33 55 47q12 4 24 0q13 5 25 0q29 -15 55 -47q30 -37 51 -67q7 -11 25 -34q16 -21 8 -44q-9 -23 -29 -31q-21 -9 -41 11q-1 1 -4 4.5t-5 5.5q-28 29 -67 83q-9 11 -18 28z" />
    <glyph glyph-name="udieresis" unicode="&#xfc;" horiz-adv-x="537" 
d="M207 197q11 10 19.5 23t14 22.5t11.5 27t8 24.5t8 29t7 27q13 48 20 130.5t22.5 150.5t54.5 120q6 8 45 6t44 -10q29 -49 33 -104t-5 -128.5t-8 -111.5q0 -12 -0.5 -63.5t1.5 -81.5t7.5 -73t21 -74t39.5 -49q3 -2 -1 -4t-6 -2q-155 -37 -206 157q-6 21 -16 65
q-11 -45 -43 -78t-70.5 -45t-81.5 1.5t-74 53.5q-22 28 -32.5 71.5t-12 70.5t-1.5 80q-2 134 30 265q8 30 18 41q18 22 40 11q21 -10 17 -57q-25 -230 -16 -353q8 -80 30 -121q23 -44 56 -37q10 2 26 16zM126 809q-29 7 -32 22q-18 69 4 102q12 19 60 21q48 0 60 -21
q6 -13 11 -54q2 -16 3 -23q0 -2 1 -7t1 -8q1 -30 -62 -37q-22 -1 -46 5zM325 809q-29 7 -32 22q-20 67 4 102q12 19 60 21q48 0 60 -21q6 -13 11 -54q2 -16 3 -23q1 -5 1 -15q2 -30 -61 -37q-22 -1 -46 5z" />
    <glyph glyph-name="yacute" unicode="&#xfd;" horiz-adv-x="769" 
d="M827 336q1 1 5 1t4 -1q-4 -16 -27.5 -31.5t-58.5 -30t-43 -19.5q-7 -4 -59 -38q10 -142 -15 -257q-14 -68 -55.5 -123t-102.5 -83q-39 -18 -85.5 -27t-96 0t-72.5 44q-48 74 71 211q53 61 177 167q0 8 -1.5 29.5t-1.5 29.5q-1 43 -17 192q-73 -151 -175 -232
q-36 -28 -84 -41t-90 -2q-28 7 -46.5 24t-27 42.5t-11.5 48t-4 52.5q-6 153 16 283q20 114 78 148q21 12 34 5q21 -9 12 -52q-2 -11 -10 -45.5t-10.5 -48t-9 -44.5t-9 -48t-6.5 -45t-5 -48.5t-1 -45.5t2 -48q10 -133 70 -132q16 0 33 11.5t26.5 22.5t25.5 32t20 26
q133 166 159 285q3 14 5 52.5t8 69.5t21 46q14 12 45.5 12.5t42.5 -14.5q13 -20 24 -44t18 -44t13.5 -51.5t9.5 -48.5t6.5 -53.5t4.5 -49t3.5 -52.5t2.5 -48t1.5 -24.5t2.5 -25.5q97 52 183 63zM464 -53q2 14 0.5 37.5t0 50t6.5 31.5q-11 -12 -43.5 -45t-48.5 -51t-38 -47.5
t-36 -56.5q-13 -26 -12.5 -49.5t14.5 -35.5q21 -14 57 -2q42 13 68 61q20 37 32 107zM405 980q13 5 26 -1.5t15 -23.5q1 -11 -2 -24.5t-7.5 -25t-14.5 -27.5t-16.5 -25.5t-20 -26t-18.5 -22t-19 -20.5l-13 -16q-17 -20 -40 -11.5t-29.5 31t7.5 44.5q2 3 32.5 45t54.5 68
t45 35z" />
    <glyph glyph-name="thorn" unicode="&#xfe;" horiz-adv-x="641" 
d="M344 772q50 19 88 11.5t66 -39t44 -70.5t23 -83q8 -51 10.5 -98.5t-3.5 -103.5t-23 -100t-52.5 -80.5t-87.5 -52.5q-71 -22 -134 1.5t-110 82.5q-2 -16 -2 -23q-1 -8 -4.5 -103.5t-20.5 -136.5q-8 -14 -42 -13.5t-45 9.5q-14 10 -24 23t-16.5 22.5t-9.5 28.5t-5 26.5
t-0.5 31.5t2 29t4 32.5t3.5 30.5q20 186 27 310q13 198 15 330q1 16 -2.5 86.5t4 113.5t32.5 75q9 12 41 11.5t41 -11.5q21 -25 31 -63t11 -64.5t-1 -79.5t-2 -68q-2 -149 -8 -254q3 6 15 28t18 32.5t18 30.5t22 31.5t22.5 26t26.5 24.5t28 16zM427 255q22 30 34 65.5
t14 83.5t1.5 71.5t-5.5 81.5q0 5 -0.5 8.5t-0.5 7.5q0 3 -1.5 23t-2.5 32t-4.5 32.5t-7.5 33.5t-11.5 25t-17.5 17q-10 3 -18.5 4.5t-18 -4t-17 -10.5t-16.5 -15.5t-15.5 -18.5t-14 -20t-12 -20t-10 -17.5t-7.5 -13.5q-59 -98 -116 -237q-6 -54 -8 -80q30 -2 36 -5
q29 -12 73 -53q5 -5 16 -16.5t16.5 -16t16.5 -8t25 -2.5q35 4 72 52z" />
    <glyph glyph-name="ydieresis" unicode="&#xff;" horiz-adv-x="769" 
d="M827 336q1 1 5 1t4 -1q-4 -16 -27.5 -31.5t-58.5 -30t-43 -19.5q-7 -4 -59 -38q10 -142 -15 -257q-14 -68 -55.5 -123t-102.5 -83q-39 -18 -85.5 -27t-96 0t-72.5 44q-48 74 71 211q53 61 177 167q0 8 -1.5 29.5t-1.5 29.5q-1 43 -17 192q-73 -151 -175 -232
q-36 -28 -84 -41t-90 -2q-28 7 -46.5 24t-27 42.5t-11.5 48t-4 52.5q-6 153 16 283q20 114 78 148q21 12 34 5q21 -9 12 -52q-2 -11 -10 -45.5t-10.5 -48t-9 -44.5t-9 -48t-6.5 -45t-5 -48.5t-1 -45.5t2 -48q10 -133 70 -132q16 0 33 11.5t26.5 22.5t25.5 32t20 26
q133 166 159 285q3 14 5 52.5t8 69.5t21 46q14 12 45.5 12.5t42.5 -14.5q13 -20 24 -44t18 -44t13.5 -51.5t9.5 -48.5t6.5 -53.5t4.5 -49t3.5 -52.5t2.5 -48t1.5 -24.5t2.5 -25.5q97 52 183 63zM464 -53q2 14 0.5 37.5t0 50t6.5 31.5q-11 -12 -43.5 -45t-48.5 -51t-38 -47.5
t-36 -56.5q-13 -26 -12.5 -49.5t14.5 -35.5q21 -14 57 -2q42 13 68 61q20 37 32 107zM176 776q-29 7 -32 22q-18 69 4 102q12 19 60 21q48 0 60 -21q6 -13 11 -54q2 -16 3 -23q0 -2 1 -7t1 -8q1 -30 -62 -37q-22 -1 -46 5zM375 776q-29 7 -32 22q-20 67 4 102q12 19 60 21
q48 0 60 -21q6 -13 11 -54q2 -16 3 -23q1 -5 1 -15q2 -30 -61 -37q-22 -1 -46 5z" />
    <glyph glyph-name="Ydieresis" unicode="&#x178;" horiz-adv-x="885" 
d="M773 931q16 -211 17 -237h2v-1q-3 -8 -1 -17q2 -91 -1 -136q-4 -76 -26 -151.5t-61 -145t-103 -123.5t-145 -77q-51 -15 -95.5 -11.5t-81 19t-62 43.5t-38.5 61t-10 73t23 78q34 65 88.5 112t134.5 93q14 8 81 45t104 56q1 98 -6 391q-1 20 -8 26.5t-17 1.5
q-18 -73 -54 -155q-13 -43 -28 -82t-36 -79.5t-44.5 -73t-54 -58.5t-63.5 -39t-73.5 -11t-83.5 22q-87 40 -117 194q-50 275 54 542q11 28 22 37q23 19 41 3q1 -50 -3.5 -106t-11.5 -124t-10 -106q-15 -206 35 -333q27 -69 72 -70q22 -1 51 20q16 11 31 25.5t26.5 26.5
t25 33t21 32t19.5 37t16.5 35t16.5 39t14 36t14 39t13 35q12 32 22.5 76t15 69.5t13.5 85t11 69.5q11 82 47 106q26 17 64 22.5t66 -7.5q23 -11 35 -39.5t13.5 -61t2.5 -66.5t1 -55q3 -31 10.5 -104.5t10.5 -113.5zM555 305q38 110 43 262q-6 -3 -32.5 -15t-34.5 -16
t-31.5 -15t-33.5 -17t-30 -17t-32 -19.5t-28.5 -20t-29.5 -23.5t-26 -25q-46 -46 -63.5 -103t0.5 -120q15 -44 48.5 -61t70.5 -10t72 29t55 52q25 38 52 119zM242 1405q-29 7 -32 22q-18 69 4 102q12 19 60 21q48 0 60 -21q6 -13 11 -54q2 -16 3 -23q0 -2 1 -7t1 -8
q1 -30 -62 -37q-22 -1 -46 5zM441 1405q-29 7 -32 22q-20 67 4 102q12 19 60 21q48 0 60 -21q6 -13 11 -54q2 -16 3 -23q1 -5 1 -15q2 -30 -61 -37q-22 -1 -46 5z" />
    <glyph glyph-name="circumflex" unicode="&#x2c6;" horiz-adv-x="397" 
d="M177 1402q-9 -17 -18 -28q-39 -54 -67 -83q-1 -1 -4 -5t-5 -5q-20 -20 -40 -11q-21 8 -29 31q-9 22 7 44q18 23 25 34q16 23 52 67q27 33 55 47q12 5 24 0q13 5 25 0q29 -15 55 -47q30 -37 51 -67q7 -11 25 -34q16 -21 8 -44q-9 -23 -29 -31q-21 -9 -41 11q-1 1 -4 5
t-5 5q-28 29 -67 83q-9 11 -18 28z" />
    <glyph glyph-name="caron" unicode="&#x2c7;" horiz-adv-x="397" 
d="M177 1360q6 12 18 29q36 50 67 82q3 4 9 10q19 21 40 12t30 -31q8 -23 -8 -45q-12 -14 -25 -34q-21 -30 -51 -67q-29 -33 -56 -47q-12 -5 -24 0q-13 -5 -25 0q-25 13 -54 47q-36 44 -52 67q-13 20 -25 34q-16 22 -7 45q7 22 29 31q20 9 40 -12q6 -6 9 -10q31 -32 67 -82
q12 -17 18 -29z" />
    <glyph glyph-name="uni02C9" unicode="&#x2c9;" horiz-adv-x="294" 
d="M-12 1431q-16 5 -15.5 22t15.5 24q16 7 36 10.5t30.5 4.5t38 2t32.5 1q7 0 23.5 2t26 2t23.5 -2t25.5 -10.5t21.5 -22.5q4 -8 2.5 -16.5t-6.5 -13.5q-12 -15 -28.5 -21t-27.5 -5.5t-32 3.5l-28 4q-12 1 -42.5 2t-52.5 4t-42 10z" />
    <glyph glyph-name="dotaccent" unicode="&#x2d9;" horiz-adv-x="207" 
d="M44 1351q-29 7 -32 22q-18 69 4 102q12 19 60 21q48 0 60 -21q6 -13 11 -54q2 -16 3 -23q0 -2 1 -7t1 -8q1 -30 -62 -37q-22 -1 -46 5z" />
    <glyph glyph-name="ring" unicode="&#x2da;" horiz-adv-x="227" 
d="M185 1435q1 -34 -31 -75q-21 -25 -62 -27q-43 -1 -71.5 25t-18.5 68q12 50 45 63q12 4 27 5q0 3 10 4q36 6 67.5 -10.5t33.5 -52.5zM101 1364q41 44 37 74q-3 29 -29 42q-1 -4 -21 -4q-13 -7 -21 -32t-7 -41q0 -20 14 -36q8 -10 13 -10.5t14 7.5z" />
    <glyph glyph-name="tilde" unicode="&#x2dc;" horiz-adv-x="517" 
d="M474 1480q6 -3 8 -11q-12 -51 -57.5 -74.5t-103.5 -20.5q-55 1 -107 26q-6 3 -23 16t-27 16q-12 4 -24.5 -3t-33.5 -29l-22 -22q-13 -12 -59 -5q-24 5 -22 12q84 105 181 93q18 -2 34 -9.5t33.5 -19t29.5 -17.5q22 -13 40 -7t24.5 14t19.5 25.5t25 26.5q11 8 35.5 8.5
t35.5 -8.5z" />
    <glyph glyph-name="endash" unicode="&#x2013;" horiz-adv-x="1000" 
d="M21 402q-32 3 -43.5 12.5t0.5 19.5t43 14q51 7 115 10.5t99 4.5t122.5 2t104.5 1q12 0 93 2.5t111 1.5t86.5 -9t97.5 -26q14 -9 8 -17t-20 -13q-40 -15 -93 -21t-88.5 -5.5t-103 3.5t-91.5 4q-39 1 -136.5 2t-168 4t-136.5 10z" />
    <glyph glyph-name="emdash" unicode="&#x2014;" horiz-adv-x="1050" 
d="M28 410q-56 5 -55.5 22t55.5 24q57 7 129.5 10.5t112 4.5t138 2t118.5 1q26 0 86.5 2t95 2t84.5 -2t92 -10.5t80 -22.5q15 -9 8.5 -17t-21.5 -13q-45 -15 -105 -21t-100 -5.5t-116.5 3.5t-103.5 4q-44 1 -154 2t-190 4t-154 10z" />
    <glyph glyph-name="quoteleft" unicode="&#x2018;" horiz-adv-x="256" 
d="M148 1205q-44 0 -79.5 18.5t-46.5 56.5q-10 35 -11.5 71.5t11.5 74t43 55.5q25 14 59 15.5t60 -11.5q9 -5 14 -11.5t7 -11t0.5 -13t-2.5 -12.5t-6 -15.5t-6 -14.5q-8 -21 -16.5 -58t-11 -79t16.5 -49q15 -7 -13 -13q-14 -3 -19 -3z" />
    <glyph glyph-name="quoteright" unicode="&#x2019;" horiz-adv-x="244" 
d="M23 1218q-9 5 -14 11t-7 10.5t-0.5 13t2.5 12.5t6 15.5t6 14.5q8 20 17 58t11.5 79t-16.5 49q-15 7 13 13l18 3q104 0 127 -75q10 -34 11.5 -71t-12 -74t-43.5 -55q-25 -15 -59 -16.5t-60 12.5z" />
    <glyph glyph-name="quotesinglbase" unicode="&#x201a;" horiz-adv-x="240" 
d="M23 40q-9 5 -14 11t-7 10.5t-0.5 13t2.5 12.5t6 15.5t6 14.5q8 20 17 58t11.5 79t-16.5 49q-15 7 13 13q13 3 18 3q104 0 127 -75q10 -34 11.5 -71t-12 -74t-43.5 -55q-25 -15 -59 -16.5t-60 12.5z" />
    <glyph glyph-name="quotedblleft" unicode="&#x201c;" horiz-adv-x="442" 
d="M173 1485q9 -5 14 -11.5t7 -10.5t0.5 -13.5t-2.5 -12.5t-6.5 -15.5t-6.5 -14.5q-8 -21 -16.5 -58t-11 -79t16.5 -49q15 -7 -13 -13q-14 -3 -19 -3q-44 0 -79.5 18.5t-46.5 56.5q-10 35 -11.5 71.5t12 74t43.5 55.5q24 14 58 15.5t61 -11.5zM249 1481q25 14 59 15.5
t60 -11.5q9 -5 14 -11.5t7 -11t0.5 -13t-2.5 -12.5t-6 -15.5t-6 -14.5q-8 -21 -16.5 -58t-11 -79t16.5 -49q15 -7 -13 -13q-14 -3 -19 -3q-44 0 -79.5 18.5t-46.5 56.5q-10 35 -11.5 71.5t11.5 74t43 55.5z" />
    <glyph glyph-name="quotedblright" unicode="&#x201d;" horiz-adv-x="442" 
d="M211 1210q-9 5 -14 11t-7 10.5t-0.5 13.5t2.5 12t6.5 15.5t6.5 14.5q8 21 16.5 58t11 79t-16.5 49q-15 7 13 13q13 3 19 3q44 0 79.5 -18t46.5 -57q10 -34 11.5 -71t-12 -74t-43.5 -55q-24 -15 -58.5 -16.5t-60.5 12.5zM178 1414q10 -34 11.5 -71t-11.5 -74t-43 -55
q-25 -15 -59 -16.5t-60 12.5q-9 5 -14 11t-7 10.5t-0.5 13t2.5 12.5t6 15.5t6 14.5q8 21 16.5 58t11 79t-16.5 49q-15 7 13 13q13 3 19 3q45 0 80 -18t46 -57z" />
    <glyph glyph-name="quotedblbase" unicode="&#x201e;" horiz-adv-x="451" 
d="M211 -6q-9 5 -14 11t-7 10.5t-0.5 13.5t2.5 12t6.5 15.5t6.5 14.5q8 21 16.5 58t11 79t-16.5 49q-15 7 13 13q13 3 19 3q44 0 79.5 -18t46.5 -57q10 -34 11.5 -71t-12 -74t-43.5 -55q-24 -15 -58.5 -16.5t-60.5 12.5zM178 198q10 -34 11.5 -71t-11.5 -74t-43 -55
q-25 -15 -59 -16.5t-60 12.5q-9 5 -14 11t-7 10.5t-0.5 13t2.5 12.5t6 15.5t6 14.5q8 21 16.5 58t11 79t-16.5 49q-15 7 13 13q13 3 19 3q45 0 80 -18t46 -57z" />
    <glyph glyph-name="dagger" unicode="&#x2020;" horiz-adv-x="542" 
d="M326 480q2 -74 6 -149q1 -21 7 -76q6 -49 8 -115q1 -58 -18 -107q-7 -13 -31 -16q-21 -4 -48 1q-25 4 -34 15q-30 50 -38 120q-8 72 -8 133q0 11 -0.5 32.5t-1.5 32.5q-4 82 -5 123q-58 -4 -122 -1q-11 2 -23 9q-13 7 -16 18q-3 10 15 18q65 27 127 34q3 1 8.5 1.5
t8.5 0.5q-1 43 -1 129q0 184 10 351q1 7 1.5 21.5t0.5 21.5q1 60 13 135q11 68 48 117q7 7 22 8q20 2 30 1q16 -2 20 -9q31 -52 32 -116q2 -66 -6 -131q-2 -22 -4 -68q-7 -165 -6 -331l2 -121q34 1 77 -2q52 -4 99 -30q19 -13 13 -25t-24 -18q-70 -18 -139 -8q-8 1 -23 1z
" />
    <glyph glyph-name="daggerdbl" unicode="&#x2021;" horiz-adv-x="558" 
d="M326 480q1 -74 6 -149q1 -21 7 -76q6 -49 8 -115q1 -58 -18 -107q-7 -13 -31 -16q-21 -4 -48 1q-25 4 -34 15q-30 50 -38 120q-8 72 -8 133q0 11 -0.5 32.5t-1.5 32.5q-4 81 -5 124q-60 -5 -134 -2q-11 2 -23 9q-13 7 -16 18q-3 10 15 18q65 27 127 34q9 1 29 3
q-1 37 -1 110q-59 -5 -131 -2q-11 2 -23 9q-13 7 -16 18q-3 10 15 18q65 27 127 34q4 0 14 1t14 2q1 121 10 289q1 7 1.5 21.5t0.5 21.5q1 60 13 135q11 68 48 117q7 7 22 8q20 2 30 1q16 -2 20 -9q31 -52 32 -116q2 -66 -6 -131q-2 -22 -4 -68q-6 -130 -6 -262q44 0 67 -2
q52 -4 99 -30q19 -13 13 -25t-24 -18q-70 -18 -139 -8q-3 0 -8 0.5t-8 0.5l2 -108q43 0 65 -2q52 -4 99 -30q19 -13 13 -25t-24 -18q-70 -18 -139 -8q-8 0 -11 1z" />
    <glyph glyph-name="bullet" unicode="&#x2022;" horiz-adv-x="347" 
d="M77 346q-18 6 -38.5 17.5t-23.5 24.5q-35 129 9 195q24 38 113 40q93 0 114 -40q13 -25 22 -103q1 -13 5 -44q3 -15 3 -29q1 -18 -11.5 -32t-33 -21.5t-38.5 -11t-34 -4.5q-48 -3 -87 8z" />
    <glyph glyph-name="ellipsis" unicode="&#x2026;" horiz-adv-x="719" 
d="M48 145q-10 2 -23.5 9.5t-15.5 16.5q-22 80 6 121q15 23 70 25q58 0 71 -25q7 -13 14 -64q2 -18 3 -28q2 -10 2 -18q1 -20 -23 -30.5t-50 -12.5q-27 -1 -54 6zM292 145q-10 2 -23.5 9.5t-15.5 16.5q-22 80 6 121q15 23 70 25q58 0 71 -25q7 -13 14 -64q2 -18 3 -28
q2 -10 2 -18q1 -20 -23 -30.5t-50 -12.5q-27 -1 -54 6zM532 145q-10 2 -23.5 9.5t-15.5 16.5q-22 80 6 121q15 23 70 25q58 0 71 -25q7 -13 14 -64q2 -18 3 -28q2 -10 2 -18q1 -20 -23 -30.5t-50 -12.5q-27 -1 -54 6z" />
    <glyph glyph-name="lira" unicode="&#x20a4;" horiz-adv-x="1000" 
d="M800 229q8 21 59 20.5t60 -20.5q12 -35 9 -63.5t-26 -53t-50.5 -43t-64 -33.5t-65.5 -23.5t-57 -14.5q-124 -24 -255 -5q-19 3 -60.5 16.5t-75 25t-73.5 17t-56 -7.5q-23 -15 -81 -1q-50 12 -48 31q1 6 11 13q23 15 39 47.5t21.5 54t13.5 73.5t9 57q18 107 30 214
q1 8 3 24.5t3 24.5q-80 3 -131 25q-12 5 0 11q48 25 140 29q1 9 3 26.5t3 26.5q-39 -4 -62 -5q-24 -2 -52 14q-29 18 6 32q57 22 119 32q16 109 40 201q118 458 369 350q5 -2 5 -6q-3 -20 12 -31q-1 0 -3 -0.5t-7 -1.5t-9 -1t-8 0.5t-5 1.5q-27 17 -49 16t-45 -40.5
t-38.5 -75t-31 -87.5t-22 -78t-10.5 -47q-18 -91 -31 -193q22 -1 62 -7q13 -2 23.5 -5t20.5 -11.5t8 -20.5q-4 -25 -71 -29q-35 0 -52 1q-1 -9 -3 -26.5t-3 -26.5q59 0 106 -8q37 -9 36 -29q-3 -44 -151 -35q-26 -224 -49 -335q-19 -90 -44 -132q43 -4 111 -16t116 -20.5
t107 -9.5t101 11.5t81 49t62 97.5z" />
    <glyph glyph-name="Euro" unicode="&#x20ac;" horiz-adv-x="905" 
d="M749 1003q-12 23 -2 94.5t7 97.5q-5 37 -23.5 67t-45.5 42q-41 3 -91 -29.5t-93 -82t-75 -93.5t-49 -76q-62 -114 -92 -276q78 12 115 -9q5 -3 3 -7q-9 -15 -29.5 -21.5t-54.5 -8.5t-37 -3h-4q-4 -28 -5 -42q90 8 164 -12q6 -1 8 -3.5t-0.5 -5t-7.5 -4.5q-24 -7 -52 -11
t-63 -6.5t-53 -4.5h-1q0 -6 -1 -19t-2 -19q-19 -323 96 -469q38 -47 91 -64.5t109 6.5q26 13 51 33t43 38t41.5 48.5t34.5 47t35 53t32 47.5q1 2 10 3t17 0t8 -3q-8 -122 -175 -248q-86 -66 -181 -71q-110 -8 -195 43q-73 41 -119 123q-77 134 -75 356q0 20 2 64
q-16 -4 -50 -12q-17 -4 -52 5q-32 9 -4 19q71 23 110 33q0 7 1 20.5t2 20.5q-6 -2 -18.5 -4t-18.5 -4q-27 -6 -63 8q-33 13 -2 24q4 2 10 3q66 16 98 23q50 337 238 497q63 54 176.5 102t181.5 20q41 -5 73 -26q40 -27 57.5 -88t7 -123t-44.5 -94q-4 -4 -22 -4.5t-21 5.5z
" />
    <glyph glyph-name="trademark" unicode="&#x2122;" horiz-adv-x="1662" 
d="M683 1348q13 -2 20.5 -5.5t9 -8t-1.5 -8.5q2 -5 -3.5 -10t-17.5 -8t-26 -2q-140 8 -272 -4q1 1 -12 -109.5t-18 -147.5q-19 -150 -19 -287q-1 -62 9 -179t10 -172q0 -17 -25.5 -24.5t-53 -2.5t-32.5 20q-28 87 -33.5 207t1.5 212q6 230 52 434q4 24 7 37q-1 0 -4 -0.5
t-4 -1.5q-63 -9 -132 -23l-81 -21q-36 -12 -54 -14q-8 -2 -11 -2q-12 -4 -39 2q-14 3 -6 8q115 67 344 101q2 3 4.5 10t3.5 11q1 0 2 -0.5t2 -0.5q14 15 47 17.5t39 -21.5v-4q162 15 294 -3zM735 454q-17 25 -23 78q-45 357 32 711q19 86 49 126q17 23 35 23q24 0 33 -28
q4 -12 2 -45q-5 -43 -14 -130t-13 -130q6 48 66 160.5t112 145.5q49 28 90.5 2.5t53.5 -78.5q7 -15 6 -80.5t0 -81.5q29 77 37 97q10 25 20 45.5t25.5 47t31.5 45t38 35.5t45.5 23.5t53 3t60.5 -19.5q51 -27 64.5 -52t15.5 -82q2 -53 -2 -107.5t-16.5 -142t-14.5 -107.5
q-18 -144 -23.5 -255t-2.5 -159t7.5 -88.5t4.5 -51.5q0 -7 3.5 -45.5t-1.5 -44.5q0 -2 -3 -3t-7 -1.5t-5 -0.5q-33 -1 -58 13.5t-40 36t-24 57.5t-12.5 66t-3.5 74t1.5 68.5t4.5 61.5q1 20 2 28q21 268 77 571q0 2 4 19.5t5 24.5t3 23t-0.5 24.5t-6.5 19.5t-13.5 16.5
t-23.5 6.5q-34 2 -66 -43q-40 -53 -72.5 -126.5t-48.5 -125t-40 -141.5q-20 -75 -29.5 -114t-19 -102.5t-8.5 -116.5q0 -53 -10 -70q-9 -16 -28.5 -21.5t-32.5 6.5q-10 11 -10 42q1 102 20 286t23 236q1 8 6 51t6.5 70t-4 59.5t-21.5 46.5q-12 8 -23 8t-23.5 -13t-22 -27.5
t-20 -35t-17 -36.5t-13.5 -31.5t-9 -20.5q-49 -98 -77 -200q-58 -205 -32 -418q11 -92 -33 -110q-18 -7 -38 1.5t-32 25.5z" />
    <glyph glyph-name="minus" unicode="&#x2212;" horiz-adv-x="678" 
d="M589 487q-36 -9 -74.5 -10.5t-91 1.5t-75.5 3q-36 0 -139.5 -5.5t-160.5 -2.5q-24 1 -41 17q-18 17 12 28q104 37 310 43q7 0 44 0.5t49.5 0.5t44 -1.5t49.5 -4.5t42.5 -9.5t43.5 -16.5q22 -13 16 -24.5t-29 -18.5z" />
    <glyph glyph-name="approxequal" unicode="&#x2248;" horiz-adv-x="686" 
d="M620 467q8 -4 10 -14q-15 -66 -74 -96.5t-133 -27.5q-75 3 -139 35q-9 4 -31 20.5t-33 20.5q-13 4 -28 -3.5t-26 -17t-27.5 -26.5t-22.5 -23q-15 -14 -71 -7q-37 4 -34 14l1 2q106 136 234 120q23 -3 43 -12.5t43 -24.5t39 -22q28 -9 43 -10.5t29 9.5t21.5 22t20.5 28
t27 27q14 11 45.5 11.5t45.5 -11.5zM620 637q8 -4 10 -14q-15 -66 -74 -96.5t-133 -27.5q-75 3 -139 35q-9 4 -31 20.5t-33 20.5q-13 4 -28 -3.5t-26 -17t-27.5 -26.5t-22.5 -23q-15 -14 -71 -7q-37 4 -34 14q0 1 1 2q106 136 234 120q23 -3 43 -12.5t43 -24.5t39 -22
q28 -9 43 -10.5t29 9.5t21.5 22t20.5 28t27 27q14 11 45.5 11.5t45.5 -11.5z" />
    <glyph glyph-name="lessequal" unicode="&#x2264;" horiz-adv-x="595" 
d="M377 643l-25 -21q-26 -21 -35.5 -30t-29 -27.5t-30 -34t-15.5 -29.5q-13 -34 17 -62.5t75 -46t99 -42t76 -45.5q8 -4 12 -5q16 -8 16 -17.5t-16 -16.5q-43 -17 -85 0q-5 3 -14.5 7.5t-13.5 6.5q-78 11 -200 59q-3 1 -24 9t-28.5 11.5t-27 12.5t-28 15.5t-22 17.5
t-19.5 21.5t-10 25t-2 29.5q3 30 22 60.5t51 58.5t57 46.5t58 41.5q8 5 12 8q51 35 81 53.5t77.5 38.5t92.5 27q33 0 57 -10q14 -6 6 -13q-33 -30 -97.5 -80t-86.5 -69zM589 140q-36 -9 -74.5 -10.5t-91 1.5t-75.5 3q-36 0 -139.5 -5.5t-160.5 -2.5q-24 1 -41 17
q-18 17 12 28q104 37 310 43q7 0 44 0.5t49.5 0.5t44 -1.5t49.5 -4.5t42.5 -9.5t43.5 -16.5q22 -13 16 -24.5t-29 -18.5z" />
    <glyph glyph-name="greaterequal" unicode="&#x2265;" horiz-adv-x="595" 
d="M243 643q-22 19 -86.5 69t-97.5 80q-10 9 16 16t47 7q45 -7 92.5 -27t77.5 -38.5t81 -53.5q102 -70 140 -109q54 -56 60 -106q2 -15 -2 -29.5t-10 -25t-19.5 -21.5t-22 -17.5t-28 -15.5t-27 -12.5t-28.5 -11.5t-24 -9q-122 -48 -200 -59q-5 -2 -14 -6.5t-14 -7.5
q-42 -17 -85 0q-16 7 -16 16.5t16 17.5q4 1 12 5q22 21 76 45.5t99 42t75 46t17 62.5q-5 14 -15.5 29.5t-30 34t-29 27.5t-35.5 30zM31 140q-23 7 -29 18.5t16 24.5q19 10 43.5 16.5t42.5 9.5t49.5 4.5t44 1.5t49.5 -0.5t44 -0.5q206 -6 310 -43q34 -12 8 -31
q-18 -13 -37 -14q-57 -3 -160.5 2.5t-139.5 5.5q-23 0 -75.5 -3t-91 -1.5t-74.5 10.5z" />
    <glyph glyph-name="uniE315" unicode="&#xe393;" horiz-adv-x="1000" 
 />
    </font>
</defs>
</svg>
